<?xml version="1.0" standalone="no"?>
<!DOCTYPE svg PUBLIC "-//W3C//DTD SVG 20010904//EN"
 "http://www.w3.org/TR/2001/REC-SVG-20010904/DTD/svg10.dtd">
<svg version="1.0" xmlns="http://www.w3.org/2000/svg"
 width="335.000000pt" height="618.000000pt" viewBox="0 0 335.000000 618.000000"
 preserveAspectRatio="xMidYMid meet">
<metadata>
Created by potrace 1.11, written by Peter Selinger 2001-2013
</metadata>
<g transform="translate(0.000000,618.000000) scale(0.100000,-0.100000)"
fill="#000000" stroke="none">
<path d="M1520 6079 c-151 -23 -355 -176 -476 -359 -31 -47 -72 -136 -95 -205
-17 -52 -18 -289 -1 -329 9 -21 10 -32 1 -42 -6 -8 -7 -14 -2 -14 5 0 18 -7
29 -15 17 -13 16 -14 -15 -5 -19 5 -37 7 -40 4 -3 -3 -6 -38 -6 -77 0 -65 4
-78 36 -132 35 -58 37 -60 75 -57 21 2 51 11 67 20 27 16 28 19 22 77 -5 55
-5 58 9 41 17 -21 66 -56 79 -56 18 0 4 17 -28 34 -65 35 -75 76 -45 181 5 17
14 49 20 72 9 35 20 48 63 77 45 30 59 34 107 32 30 -2 66 1 79 6 17 6 29 4
42 -8 17 -15 20 -15 45 15 27 32 50 42 41 16 -4 -8 -2 -17 4 -20 5 -4 12 2 16
12 12 33 55 93 63 88 5 -3 22 20 39 50 18 31 60 84 94 119 56 57 66 63 97 60
33 -3 33 -3 5 4 l-29 7 28 23 c16 12 47 27 70 34 44 12 70 28 61 36 -8 8 34
34 45 27 6 -3 10 -23 10 -43 1 -28 10 -47 37 -77 30 -34 34 -36 28 -15 -7 25
-7 25 9 4 8 -12 25 -45 36 -75 12 -30 35 -78 51 -106 31 -57 33 -63 21 -63 -4
0 -17 20 -29 43 -26 53 -89 154 -102 161 -10 6 12 -100 23 -111 3 -4 6 5 7 18
0 15 3 18 6 9 3 -8 11 -28 18 -45 19 -46 39 -119 35 -130 -1 -5 -6 -26 -9 -45
l-7 -35 -22 49 c-12 27 -25 47 -28 44 -3 -3 5 -57 17 -119 13 -69 22 -156 23
-221 1 -66 5 -103 10 -98 6 6 17 3 28 -7 19 -17 19 -15 14 66 -5 83 3 111 33
111 6 0 11 4 11 9 0 5 24 21 54 37 52 27 54 29 60 78 17 144 -4 297 -55 398
-43 85 -138 189 -209 228 -19 10 -59 44 -88 74 -40 41 -71 62 -130 86 -42 18
-95 35 -117 38 -22 3 -42 8 -45 12 -7 11 -137 16 -190 9z m331 -99 c30 -6 59
-16 64 -23 6 -8 22 -17 36 -20 42 -11 44 -34 3 -29 -19 2 -42 1 -51 -3 -10 -4
-33 -7 -52 -6 -22 2 -31 -1 -26 -9 4 -6 16 -8 27 -4 14 4 19 2 16 -6 -2 -7
-23 -19 -47 -26 -42 -12 -42 -12 -25 7 10 11 19 29 21 40 3 17 0 18 -16 9 -11
-5 -23 -10 -28 -9 -4 0 10 9 32 20 30 14 35 19 18 19 -33 0 -74 -22 -69 -36 3
-7 -2 -18 -10 -24 -10 -9 -14 -9 -14 -1 0 6 4 11 10 11 16 0 -1 30 -19 31 -9
0 2 9 24 19 l40 19 -32 0 c-18 1 -33 5 -33 10 0 22 51 26 131 11z"/>
<path d="M1282 5250 c-39 -9 -95 -58 -88 -77 3 -7 1 -15 -5 -18 -5 -4 -7 -11
-4 -16 4 -5 1 -9 -4 -9 -6 0 -11 -4 -11 -10 0 -5 7 -10 15 -10 8 0 15 -6 15
-12 0 -9 3 -9 9 1 7 11 11 10 22 -7 12 -19 36 -19 49 -1 3 5 17 5 30 2 23 -7
22 -8 -15 -19 l-40 -12 35 -3 c19 -1 43 -1 53 -1 10 1 15 -3 12 -9 -4 -5 10
-3 30 5 51 22 72 21 54 0 -7 -9 -9 -18 -3 -22 13 -10 11 -45 -4 -50 -18 -6
-15 -26 8 -40 11 -7 20 -8 20 -3 0 5 9 11 20 14 15 4 20 14 20 41 0 20 4 36
10 36 5 0 7 7 4 15 -3 8 -2 20 2 27 31 49 14 155 -28 182 -13 8 -22 6 -37 -8
-14 -13 -24 -15 -38 -8 -28 14 -94 20 -131 12z"/>
<path d="M1396 4685 c-15 -23 -15 -28 4 -85 11 -32 20 -69 20 -80 0 -11 8 -33
18 -48 41 -65 107 -96 152 -72 17 9 21 9 15 0 -5 -8 -1 -11 11 -8 11 2 18 11
16 20 -1 10 8 18 25 23 50 12 94 49 139 117 60 91 61 108 7 124 -29 9 -53 10
-74 4 -18 -5 -35 -7 -39 -5 -5 3 -10 -1 -13 -9 -11 -28 -153 -23 -183 7 -4 4
-16 7 -27 7 -11 0 -28 7 -37 15 -16 14 -19 13 -34 -10z"/>
<path d="M2080 4490 c0 -75 -14 -108 -99 -240 -38 -58 -72 -115 -75 -127 -4
-13 -10 -23 -14 -24 -4 0 -14 -2 -22 -4 -99 -19 -137 -24 -205 -27 -46 -2 -82
1 -85 7 -3 6 10 9 33 7 20 -2 37 -1 37 3 0 18 -27 30 -60 27 -48 -5 -64 23
-23 39 14 5 28 8 30 5 3 -2 -5 -7 -16 -11 -12 -3 -21 -10 -21 -14 0 -9 100 21
100 31 0 4 -9 5 -19 3 -11 -2 -35 1 -53 7 -115 37 -117 39 -181 116 -35 42
-76 96 -91 119 -25 37 -30 41 -54 33 -15 -5 -90 -13 -167 -20 -319 -25 -429
-57 -658 -193 -100 -59 -170 -152 -192 -256 -5 -23 -15 -37 -34 -44 -20 -8
-41 -42 -97 -154 l-70 -144 127 -86 c112 -74 133 -93 170 -150 24 -36 61 -77
86 -95 29 -19 42 -35 39 -44 -3 -8 1 -25 8 -37 35 -54 93 -415 121 -757 9
-102 22 -250 30 -330 27 -276 54 -790 56 -1074 2 -302 3 -295 -9 -346 -5 -25
-12 -64 -16 -87 l-6 -43 62 -29 c35 -16 72 -31 83 -33 18 -3 20 -13 25 -123 6
-125 7 -124 16 15 4 47 7 86 8 87 1 1 19 -3 40 -9 25 -8 41 -20 48 -37 16 -41
-9 -261 -38 -338 -27 -72 -27 -73 -15 -73 27 0 81 248 81 376 l0 57 33 -8 c17
-4 68 -10 113 -14 77 -6 114 -20 114 -45 0 -6 4 -17 9 -25 8 -12 12 -12 25 -2
10 8 16 9 16 3 0 -6 -5 -14 -11 -18 -8 -4 -7 -9 2 -15 21 -13 29 -11 27 9 -1
9 0 32 0 49 l2 33 176 -4 c96 -2 177 -6 180 -9 2 -2 8 -23 12 -46 l7 -42 70
59 c144 122 306 317 496 597 42 61 104 149 140 197 35 48 102 153 148 235 46
81 114 200 151 263 37 63 78 135 90 160 13 25 58 97 101 161 43 64 75 120 72
123 -4 3 -2 6 3 6 9 0 27 25 132 190 l41 65 11 225 c14 298 69 734 98 784 12
20 17 38 11 41 -16 11 -10 25 12 25 11 0 41 20 66 44 l46 43 -27 87 c-15 47
-54 148 -87 224 -34 75 -64 154 -69 174 -9 47 -31 80 -75 115 -20 15 -47 47
-60 70 -55 93 -206 193 -340 227 -155 38 -238 50 -397 54 -148 4 -169 6 -184
23 -28 31 -34 23 -34 -41z m415 -930 c37 -5 72 -14 76 -22 22 -34 -9 -225 -50
-313 -51 -108 -165 -225 -219 -225 -26 0 -128 68 -178 118 -40 40 -84 135
-113 247 -12 43 -15 193 -5 219 5 13 24 16 103 17 67 0 109 5 141 18 l45 18
66 -35 c44 -22 89 -36 134 -42z"/>
</g>
</svg>
