<?xml version="1.0" standalone="no"?>
<!DOCTYPE svg PUBLIC "-//W3C//DTD SVG 1.1//EN" "http://www.w3.org/Graphics/SVG/1.1/DTD/svg11.dtd" >
<svg xmlns="http://www.w3.org/2000/svg" xmlns:xlink="http://www.w3.org/1999/xlink" version="1.1">
<metadata></metadata>
<defs>
<font id="bigotesmedium_condensed" horiz-adv-x="987" >
<font-face units-per-em="2048" ascent="1638" descent="-410" />
<missing-glyph horiz-adv-x="389" />
<glyph horiz-adv-x="389" />
<glyph horiz-adv-x="389" />
<glyph horiz-adv-x="682" />
<glyph unicode="&#xd;" horiz-adv-x="0" />
<glyph unicode=" "  horiz-adv-x="389" />
<glyph unicode="&#x09;" horiz-adv-x="389" />
<glyph unicode="&#xa0;" horiz-adv-x="389" />
<glyph unicode="!" horiz-adv-x="618" d="M195 109q0 52 32.5 88t81.5 36t83 -36.5t34 -87.5q0 -54 -33.5 -88.5t-83.5 -34.5t-82 34.5t-32 88.5zM221 446v1004h176v-1004h-176z" />
<glyph unicode="&#x22;" horiz-adv-x="727" d="M160 936v514h137v-514h-137zM430 936v514h137v-514h-137z" />
<glyph unicode="#" horiz-adv-x="794" d="M55 444v138h142l28 288h-131v138h142l38 442h121l-39 -442h138l41 442h118l-41 -442h129v-138h-141l-27 -288h117v-138h-129l-39 -444h-119l39 444h-137l-41 -444h-119l37 444h-127zM317 582h138l26 288h-139z" />
<glyph unicode="$" d="M106 145l97 134q49 -55 113.5 -87t125.5 -34v501q-72 27 -123 57t-96.5 75.5t-68.5 111t-23 150.5q0 170 89.5 275.5t228.5 117.5v164h88v-162q91 -2 173 -35t140 -98l-90 -129q-39 50 -98 79t-125 29v-483q47 -21 74.5 -34t67 -35.5t62.5 -42.5t50 -51t41 -64.5t24 -79 t10 -98.5q0 -176 -93.5 -287.5t-242.5 -116.5v-166h-88v166q-93 5 -184 43.5t-152 99.5zM291 1071q0 -95 38.5 -143.5t112.5 -83.5v446q-64 -8 -107.5 -66t-43.5 -153zM537 158q69 6 115 68t46 167q0 52 -12 91t-36.5 66.5t-49.5 45t-63 35.5v-473z" />
<glyph unicode="%" horiz-adv-x="1351" d="M61 1100q0 168 73 273.5t198 105.5t197.5 -105.5t72.5 -273.5q0 -167 -72.5 -271t-197.5 -104t-198 104t-73 271zM207 1102q0 -108 32.5 -177t92.5 -69t92.5 69t32.5 177t-32.5 177t-92.5 69t-92.5 -69t-32.5 -177zM334 -10l579 1519l111 -36l-580 -1520zM754 354 q0 168 72.5 273.5t197.5 105.5t197.5 -105.5t72.5 -273.5q0 -167 -72.5 -270.5t-197.5 -103.5t-197.5 103.5t-72.5 270.5zM899 356q0 -108 32.5 -176.5t92.5 -68.5t92.5 68.5t32.5 176.5t-32.5 177t-92.5 69t-92.5 -69t-32.5 -177z" />
<glyph unicode="&#x26;" horiz-adv-x="1095" d="M82 385q0 266 246 422q-65 96 -91 170.5t-26 161.5q0 160 88.5 255t226.5 95q132 0 214.5 -88t82.5 -236q0 -68 -21.5 -127.5t-62.5 -108t-86 -85t-106 -74.5l205 -301l120 313h181l-197 -446l234 -336h-216l-118 178q-101 -211 -318 -211q-163 0 -259.5 111t-96.5 307z M252 399q0 -126 55.5 -199t147.5 -73q72 0 125.5 53t81.5 131l-252 375q-158 -105 -158 -287zM383 1143q0 -72 20.5 -131t69.5 -133q87 57 135.5 121t48.5 153q0 88 -34.5 140.5t-96.5 52.5q-65 0 -104 -57t-39 -146z" />
<glyph unicode="'" horiz-adv-x="456" d="M160 936v514h137v-514h-137z" />
<glyph unicode="(" horiz-adv-x="524" d="M49 590q0 250 63.5 496.5t180.5 435.5l131 -62q-106 -175 -165.5 -408.5t-59.5 -461.5t59.5 -462t165.5 -409l-131 -61q-117 189 -180.5 435.5t-63.5 496.5z" />
<glyph unicode=")" horiz-adv-x="524" d="M100 -281q106 175 166 409.5t60 461.5t-60 461t-166 409l131 62q115 -193 179.5 -438.5t64.5 -493.5t-64.5 -493.5t-179.5 -438.5z" />
<glyph unicode="*" horiz-adv-x="890" d="M74 1122l45 125l256 -94v297h141v-297l256 90l43 -127l-260 -86l164 -248l-113 -82l-162 252l-159 -245l-115 79l166 244z" />
<glyph unicode="+" horiz-adv-x="1363" d="M143 537v168h455v454h168v-454h455v-168h-455v-455h-168v455h-455z" />
<glyph unicode="," horiz-adv-x="466" d="M68 -262l118 524h170l-147 -524h-141z" />
<glyph unicode="-" horiz-adv-x="471" d="M74 473v141h323v-141h-323z" />
<glyph unicode="." horiz-adv-x="466" d="M119 109q0 52 32.5 88t81.5 36t83 -36.5t34 -87.5q0 -54 -33.5 -88.5t-83.5 -34.5t-82 34.5t-32 88.5z" />
<glyph unicode="/" horiz-adv-x="512" d="M12 -45l369 1599l117 -24l-367 -1600z" />
<glyph unicode="0" d="M82 725q0 90 7.5 173t24 171t48 159t75.5 128.5t109.5 89t147.5 31.5t147.5 -31.5t109.5 -89t75 -128.5t47.5 -159t24 -171t7.5 -173t-7.5 -173t-24 -171t-47.5 -159t-75 -128.5t-109.5 -89t-147.5 -31.5t-147.5 31.5t-109.5 89t-75.5 128.5t-48 159t-24 171t-7.5 173z M270 725q0 -61 2.5 -116t10 -127t23.5 -129t39.5 -108t61.5 -79.5t87 -28.5q48 0 86 28.5t61.5 79.5t39.5 108.5t23 129t10 127t3 115.5t-3 115t-10 126.5t-23 129.5t-39.5 109t-61.5 79.5t-86 28.5q-49 0 -87 -28.5t-61.5 -79.5t-39.5 -108.5t-23.5 -129.5t-10 -127 t-2.5 -115z" />
<glyph unicode="1" d="M141 1186l355 264h170v-1450h-181v1239l-258 -197z" />
<glyph unicode="2" d="M94 1116q29 177 130 269t261 92q171 0 266 -110.5t95 -281.5q0 -53 -12.5 -106t-29 -94.5t-50 -96.5t-58 -90.5t-71.5 -99.5l-320 -436h522v-162h-725v170l406 551q149 200 149 354q0 105 -47.5 173.5t-136.5 68.5q-82 0 -135 -56.5t-70 -162.5z" />
<glyph unicode="3" d="M70 270l163 45q26 -85 84.5 -134.5t143.5 -49.5q57 0 102 25.5t72 66.5t41 88.5t14 96.5q0 132 -72 203t-192 71h-51v147h55q105 0 166 67.5t61 188.5q0 93 -50 164.5t-146 71.5q-61 0 -109.5 -38t-75.5 -103l-159 49q47 122 144.5 185t211.5 63q159 0 260 -103t101 -268 q0 -124 -59 -221t-161 -121v-4q117 -26 185.5 -123t68.5 -236q0 -183 -108.5 -305.5t-290.5 -122.5q-153 0 -255.5 75.5t-143.5 221.5z" />
<glyph unicode="4" d="M59 334v166l453 950h236v-961h172v-155h-172v-334h-166v334h-523zM227 489h359v783h-4z" />
<glyph unicode="5" d="M92 258l158 53q30 -83 84.5 -129.5t130.5 -46.5q100 0 160.5 87.5t60.5 234.5q0 149 -65.5 233t-186.5 84q-60 0 -131.5 -19t-120.5 -48l21 743h612v-162h-455l-16 -405q65 35 150 35q180 0 275 -124t95 -331q0 -229 -109.5 -359.5t-285.5 -130.5q-141 0 -238.5 74 t-138.5 211z" />
<glyph unicode="6" d="M84 453q0 193 109 409l294 588h199l-307 -592l2 -2q62 59 162 59q49 0 96 -13t95.5 -46t84.5 -83t59 -132t23 -186q0 -223 -112 -352.5t-297 -129.5q-187 0 -297.5 130t-110.5 350zM268 453q0 -149 60.5 -236.5t165.5 -87.5q107 0 165 88.5t58 239.5q0 145 -56 231 t-163 86q-103 0 -166.5 -91t-63.5 -230z" />
<glyph unicode="7" d="M109 1286v164h741v-150l-457 -1300h-196l467 1286h-555z" />
<glyph unicode="8" d="M94 397q0 144 63 240.5t171 132.5v4q-98 41 -148.5 125.5t-50.5 202.5q0 162 95 268.5t272 106.5q89 0 160.5 -29.5t116.5 -81t69 -119t24 -145.5q0 -119 -49.5 -203t-146.5 -125v-4q109 -39 170 -134t61 -239q0 -191 -109.5 -307.5t-295.5 -116.5q-184 0 -293 116.5 t-109 307.5zM281 406q0 -125 57.5 -205t157.5 -80q102 0 159.5 80t57.5 205q0 129 -59.5 208.5t-157.5 79.5q-97 0 -156 -79.5t-59 -208.5zM309 1090q0 -104 52 -178t135 -74q84 0 136 74t52 178q0 111 -49.5 179t-138.5 68q-90 0 -138.5 -67.5t-48.5 -179.5z" />
<glyph unicode="9" d="M88 999q0 215 113.5 346.5t296.5 131.5q188 0 297.5 -127.5t109.5 -348.5q0 -199 -108 -413l-295 -588h-199l320 606l-2 2q-69 -57 -177 -57q-49 0 -96 12.5t-95 45t-84 82t-58.5 129t-22.5 179.5zM272 1004q0 -136 57 -222t163 -86q103 0 166 89t63 223q0 142 -60 227.5 t-165 85.5q-106 0 -165 -87t-59 -230z" />
<glyph unicode=":" horiz-adv-x="548" d="M168 117q0 48 30 81t76 33q47 0 77 -33t30 -81q0 -50 -31 -83.5t-76 -33.5q-47 0 -76.5 33t-29.5 84zM168 913q0 48 30 81.5t76 33.5t76.5 -33.5t30.5 -81.5q0 -50 -31 -83t-76 -33q-47 0 -76.5 32.5t-29.5 83.5z" />
<glyph unicode=";" horiz-adv-x="520" d="M92 -262l119 524h162l-148 -524h-133zM168 913q0 48 30 81.5t76 33.5t76.5 -33.5t30.5 -81.5q0 -50 -31 -83t-76 -33q-47 0 -76.5 32.5t-29.5 83.5z" />
<glyph unicode="&#x3c;" horiz-adv-x="1363" d="M162 559v123l1044 473v-174l-788 -360l784 -361v-174z" />
<glyph unicode="=" horiz-adv-x="1363" d="M143 369v166h1078v-166h-1078zM143 707v165h1078v-165h-1078z" />
<glyph unicode="&#x3e;" horiz-adv-x="1363" d="M162 86v174l784 361l-784 360v174l1040 -473v-123z" />
<glyph unicode="?" horiz-adv-x="780" d="M49 1143q26 154 118.5 247t242.5 93t239.5 -95t89.5 -266q0 -60 -13 -111t-40.5 -95t-53 -74t-67.5 -72q-64 -64 -85 -117.5t-21 -132.5v-74h-158v97q0 160 125 303l43 49q46 54 70 101t24 112q0 103 -44.5 161t-125.5 58q-80 0 -129.5 -63t-62.5 -152zM274 109 q0 52 33 88t82 36t83 -36.5t34 -87.5q0 -54 -33.5 -88.5t-83.5 -34.5t-82.5 34.5t-32.5 88.5z" />
<glyph unicode="@" horiz-adv-x="1310" d="M74 723q0 215 74 388.5t214 275.5t320 102q264 0 410.5 -174.5t146.5 -483.5q0 -143 -37.5 -256.5t-110.5 -180t-169 -66.5q-68 0 -107 38t-39 111h-2q-33 -65 -77 -107t-115 -42q-104 0 -160.5 91t-56.5 228q0 124 32.5 234.5t102.5 186t164 75.5q69 0 108 -39t47 -103 h6l21 93h129l-68 -336q-22 -110 -22 -203q0 -44 14 -66.5t49 -23.5q72 -4 120 102.5t48 261.5q0 249 -113.5 394t-320.5 145q-140 0 -250 -89.5t-167.5 -235.5t-57.5 -320q0 -185 56 -328t167 -226t262 -83q112 0 211 50t170 132l74 -104q-94 -102 -205.5 -152.5 t-259.5 -50.5q-192 0 -331 100t-208 270.5t-69 391.5zM508 643q0 -83 28 -131.5t85 -48.5q41 0 74.5 40t52.5 99.5t29.5 119.5t10.5 109q0 177 -106 177q-54 0 -95 -57.5t-60 -139t-19 -168.5z" />
<glyph unicode="A" horiz-adv-x="997" d="M16 0l365 1450h244l356 -1450h-193l-81 340h-420l-84 -340h-187zM311 485h371l-178 793h-8z" />
<glyph unicode="B" horiz-adv-x="1024" d="M160 0v1450h348q54 0 104.5 -9.5t103 -34.5t91.5 -63.5t63.5 -103t24.5 -147.5q0 -130 -56 -212t-143 -114v-4q43 -9 84 -34t79 -67t61.5 -110t23.5 -152q0 -86 -24.5 -156t-63.5 -114t-91.5 -74t-105.5 -42.5t-108 -12.5h-391zM334 156h178q111 0 180.5 64.5t69.5 191.5 q0 71 -23 125.5t-61 85t-82 45t-92 14.5h-170v-526zM334 827h158q94 0 162.5 59t68.5 177q0 63 -19.5 109t-54 72t-75 38t-87.5 12h-153v-467z" />
<glyph unicode="C" horiz-adv-x="995" d="M96 725q0 218 61.5 390t179.5 271t273 99q112 0 204 -44t151 -130l-115 -125q-86 129 -232 129q-81 0 -144 -46.5t-102.5 -128t-60 -187t-20.5 -228.5q0 -164 35.5 -295t112.5 -213t184 -82q72 0 131 39t96 102l111 -120q-123 -191 -351 -191q-158 0 -276 100t-178 271 t-60 389z" />
<glyph unicode="D" horiz-adv-x="1132" d="M160 0v1450h334q260 0 401 -187t141 -540q0 -350 -142 -536.5t-402 -186.5h-332zM342 162h150q161 0 260.5 144t99.5 417q0 277 -99.5 421t-260.5 144h-150v-1126z" />
<glyph unicode="E" horiz-adv-x="872" d="M160 0v1450h610v-164h-432v-457h403v-153h-403v-510h453v-166h-631z" />
<glyph unicode="F" horiz-adv-x="829" d="M160 0v1450h608v-168h-426v-467h395v-160h-395v-655h-182z" />
<glyph unicode="G" horiz-adv-x="1107" d="M96 727q0 218 60 388.5t177.5 270t274.5 99.5q238 0 357 -174l-115 -125q-88 131 -234 131q-106 0 -181.5 -82.5t-109.5 -212.5t-34 -295q0 -170 37 -301t115 -209t188 -78q116 0 174 49v449h-191v160h369v-707q-137 -117 -356 -117q-165 0 -285.5 94t-183 264t-62.5 396 z" />
<glyph unicode="H" horiz-adv-x="1193" d="M160 0v1450h184v-616h506v616h184v-1450h-184v670h-506v-670h-184z" />
<glyph unicode="I" horiz-adv-x="503" d="M160 0v1450h184v-1450h-184z" />
<glyph unicode="J" horiz-adv-x="808" d="M-12 223l162 68q15 -66 56.5 -111t106.5 -45q89 0 126.5 72.5t37.5 210.5v1032h185v-1051q0 -212 -86 -323t-261 -111q-130 0 -213.5 68t-113.5 190z" />
<glyph unicode="K" horiz-adv-x="1021" d="M160 0v1450h180v-645h4l418 645h213l-463 -672l494 -778h-220l-442 727h-4v-727h-180z" />
<glyph unicode="L" horiz-adv-x="763" d="M160 0v1450h184v-1278h410v-172h-594z" />
<glyph unicode="M" horiz-adv-x="1492" d="M160 0v1450h270l309 -1151h9l303 1151h282v-1450h-182v1200h-6l-324 -1200h-166l-319 1200h-6v-1200h-170z" />
<glyph unicode="N" horiz-adv-x="1173" d="M160 0v1450h221l457 -1126h6v1126h170v-1450h-215l-463 1124h-6v-1124h-170z" />
<glyph unicode="O" horiz-adv-x="1185" d="M96 727q0 228 57.5 398t170.5 265t270 95q152 0 265 -94.5t172 -265.5t59 -398q0 -226 -59 -398t-172 -268t-265 -96q-153 0 -266.5 96t-172.5 268t-59 398zM291 727q0 -169 32 -300t102 -211.5t169 -80.5q96 0 165 80t102.5 212t33.5 300t-33.5 300t-102.5 212t-165 80 q-99 0 -169 -80.5t-102 -211.5t-32 -300z" />
<glyph unicode="P" horiz-adv-x="972" d="M160 0v1450h366q55 0 107 -12t103.5 -42t89.5 -75t61.5 -117t23.5 -162q0 -102 -30.5 -184t-82.5 -132.5t-118.5 -77.5t-140.5 -27h-197v-621h-182zM342 774h166q101 0 161 68t60 198q0 126 -59.5 189t-161.5 63h-166v-518z" />
<glyph unicode="Q" horiz-adv-x="1196" d="M96 737q0 335 137.5 541.5t362.5 206.5q149 0 262.5 -94.5t174.5 -262.5t61 -385q0 -186 -67 -354t-159 -223v-6h279v-160h-557q-223 0 -358.5 199t-135.5 538zM291 737q0 -161 36 -289t106.5 -204t164.5 -76q95 0 164.5 80.5t103 207.5t33.5 281q0 161 -35.5 289 t-105 204.5t-162.5 76.5q-94 0 -164 -76.5t-105.5 -204.5t-35.5 -289z" />
<glyph unicode="R" horiz-adv-x="1007" d="M160 0v1450h375q83 0 151.5 -22t122.5 -67.5t84.5 -123.5t30.5 -182q0 -83 -22.5 -152.5t-59 -113.5t-78 -71t-84.5 -36l270 -682h-196l-246 647h-168v-647h-180zM340 791h170q106 0 168.5 67.5t62.5 188.5q0 57 -13.5 100.5t-35.5 71t-53 44.5t-63.5 24t-69.5 7h-166 v-503z" />
<glyph unicode="S" horiz-adv-x="901" d="M55 133l109 133q47 -61 117 -96t143 -35q95 0 153 63t58 177q0 100 -62 166t-174 121q-67 33 -114 65.5t-90.5 80.5t-66 114.5t-22.5 150.5q0 102 33 182.5t88 129.5t123 74.5t142 25.5q213 0 325 -139l-110 -132q-77 103 -209 103q-87 0 -150 -60.5t-63 -179.5 q0 -98 56 -159t161 -113q52 -26 91.5 -50.5t83.5 -62.5t72.5 -79.5t47 -100.5t18.5 -127q0 -193 -111 -306.5t-280 -113.5q-109 0 -208.5 46t-160.5 122z" />
<glyph unicode="T" horiz-adv-x="735" d="M0 1292v158h735v-158h-276v-1292h-183v1292h-276z" />
<glyph unicode="U" horiz-adv-x="1140" d="M139 498v952h185v-934q0 -381 247 -381q246 0 246 381v934h184v-952q0 -114 -23 -207.5t-72.5 -168t-135.5 -116t-203 -41.5q-116 0 -201 41.5t-133.5 116t-71 167.5t-22.5 208z" />
<glyph unicode="V" horiz-adv-x="976" d="M10 1450h203l276 -1237h5l276 1237h197l-363 -1450h-237z" />
<glyph unicode="W" horiz-adv-x="1523" d="M31 1450h188l213 -1208h6l224 1208h215l227 -1208h4l211 1208h180l-280 -1450h-236l-217 1174h-4l-217 -1174h-236z" />
<glyph unicode="X" horiz-adv-x="960" d="M10 0l367 766l-330 684h195l241 -541l238 541h190l-329 -686l368 -764h-200l-273 610l-272 -610h-195z" />
<glyph unicode="Y" horiz-adv-x="894" d="M-6 1450h201l251 -682l259 682h196l-364 -870v-580h-183v580z" />
<glyph unicode="Z" horiz-adv-x="841" d="M51 0v156l518 1130h-487v164h684v-156l-514 -1126h514v-168h-715z" />
<glyph unicode="[" horiz-adv-x="520" d="M80 -319v1818h340v-129h-184v-1560h184v-129h-340z" />
<glyph unicode="\" horiz-adv-x="512" d="M14 1530l117 24l369 -1599l-119 -25z" />
<glyph unicode="]" horiz-adv-x="520" d="M106 -190h185v1560h-185v129h338v-1818h-338v129z" />
<glyph unicode="^" horiz-adv-x="1363" d="M152 633l462 817h136l462 -817h-186l-346 614l-342 -614h-186z" />
<glyph unicode="_" horiz-adv-x="1024" d="M0 -154h1024v-129h-1024v129z" />
<glyph unicode="`" horiz-adv-x="481" d="M0 1464h172l184 -295h-137z" />
<glyph unicode="a" horiz-adv-x="849" d="M78 279q0 85 26.5 151t67.5 104.5t98 63t111 33t113 8.5h67v45q0 229 -170 229q-112 0 -190 -104l-88 109q50 67 131.5 106t163.5 39q171 0 242 -108t71 -324v-416q0 -129 14 -215h-143q-17 107 -17 170h-4q-50 -197 -241 -197q-45 0 -88 17.5t-80.5 52t-60.5 96 t-23 140.5zM242 297q0 -89 38.5 -135.5t96.5 -46.5q50 0 88.5 31t59 82t30.5 106t10 112v60h-76q-247 0 -247 -209z" />
<glyph unicode="b" horiz-adv-x="983" d="M150 0v1548h174v-667h4q24 82 85.5 132t149.5 50q157 0 242.5 -149t85.5 -394q0 -246 -87.5 -400.5t-240.5 -154.5q-99 0 -155.5 52t-83.5 145h-5v-162h-169zM319 514q0 -174 51.5 -284.5t147.5 -110.5q65 0 109.5 53.5t64 140.5t19.5 201q0 115 -19.5 202t-64 141 t-109.5 54q-95 0 -147 -111.5t-52 -285.5z" />
<glyph unicode="c" horiz-adv-x="704" d="M92 514q0 251 96.5 400t276.5 149q139 0 227 -88l-88 -131q-53 63 -137 63q-95 0 -145 -108t-50 -285q0 -118 20 -202t67 -134.5t118 -50.5q84 0 139 68l78 -136q-82 -94 -231 -94q-180 0 -275.5 148.5t-95.5 400.5z" />
<glyph unicode="d" horiz-adv-x="983" d="M92 520q0 245 85.5 394t242.5 149q88 0 149.5 -50t85.5 -132h4v667h175v-1548h-170v162h-5q-27 -93 -83.5 -145t-155.5 -52q-153 0 -240.5 154.5t-87.5 400.5zM272 514q0 -114 19.5 -201t64 -140.5t109.5 -53.5q96 0 147.5 110.5t51.5 284.5t-52 285.5t-147 111.5 q-65 0 -109.5 -54t-64 -141t-19.5 -202z" />
<glyph unicode="e" horiz-adv-x="899" d="M92 512q0 246 103.5 398.5t271.5 152.5q92 0 160 -39t108 -109.5t59 -160.5t19 -201v-84h-545q0 -154 54 -251t153 -97q116 0 176 145l131 -76q-44 -104 -122 -164.5t-191 -60.5q-177 0 -277 144.5t-100 402.5zM272 610h365q0 141 -43 221t-131 80q-49 0 -88 -31t-60 -79 t-32 -97.5t-11 -93.5z" />
<glyph unicode="f" horiz-adv-x="512" d="M29 887v141h133v189q0 169 70.5 268.5t216.5 99.5q54 0 92 -14l-13 -144q-33 11 -59 11q-137 0 -137 -224v-186h168v-141h-166v-887h-172v887h-133z" />
<glyph unicode="g" horiz-adv-x="983" d="M92 520q0 245 85.5 394t242.5 149q88 0 150.5 -50t86.5 -132h7v147h170v-1028q0 -108 -20.5 -194t-65 -154.5t-121.5 -106t-183 -37.5q-103 0 -196 44t-154 118l109 123q46 -58 111 -92.5t137 -34.5q62 0 105 25t66 72.5t32.5 104.5t9.5 132v162h-5q-27 -93 -83.5 -145 t-155.5 -52q-153 0 -240.5 154.5t-87.5 400.5zM272 514q0 -114 19.5 -201t64 -140.5t109.5 -53.5q96 0 147.5 110.5t51.5 284.5t-52 285.5t-147 111.5q-65 0 -109.5 -54t-64 -141t-19.5 -202z" />
<glyph unicode="h" d="M150 0v1548h176v-694h4q28 91 94.5 150t159.5 59q64 0 112 -23.5t76 -60.5t45 -92.5t23 -110t6 -121.5v-655h-176v655q0 40 -2.5 71.5t-11.5 67t-24 59t-42.5 39t-65.5 15.5q-88 0 -143 -88.5t-55 -228.5v-590h-176z" />
<glyph unicode="i" horiz-adv-x="475" d="M129 1333q0 50 31 83.5t78 33.5t77.5 -33.5t30.5 -83.5t-31.5 -83t-76.5 -33q-47 0 -78 32.5t-31 83.5zM150 0v1028h174v-1028h-174z" />
<glyph unicode="j" horiz-adv-x="477" d="M-47 -481l14 159q24 -8 56 -8q131 0 131 215v1143h174v-1155q0 -171 -70 -268t-223 -97q-25 0 -82 11zM133 1333q0 50 30 83.5t77 33.5t77.5 -33.5t30.5 -83.5q0 -51 -30.5 -83.5t-77.5 -32.5t-77 32.5t-30 83.5z" />
<glyph unicode="k" horiz-adv-x="862" d="M150 0v1548h174v-966h4l301 446h205l-353 -475l371 -553h-207l-317 508h-4v-508h-174z" />
<glyph unicode="l" horiz-adv-x="475" d="M150 0v1548h176v-1548h-176z" />
<glyph unicode="m" horiz-adv-x="1492" d="M145 1028h166q13 -110 13 -178h4q24 96 89.5 154.5t164.5 58.5q102 0 155.5 -59t77.5 -154h4q16 40 38.5 75t55 67.5t78 51.5t99.5 19q64 0 112 -23.5t76 -60.5t45 -92.5t23 -110t6 -121.5v-655h-176v655q0 40 -2.5 71.5t-11.5 67t-24 59t-42.5 39t-65.5 15.5 q-86 0 -140 -88.5t-54 -228.5v-590h-172v655q0 40 -2.5 71.5t-11.5 67t-24 59t-42.5 39t-65.5 15.5q-87 0 -139.5 -88t-52.5 -229v-590h-172v768q0 146 -9 260z" />
<glyph unicode="n" horiz-adv-x="989" d="M145 1028h166q13 -110 13 -178h4q31 95 98 154t160 59q64 0 112 -23.5t76 -60.5t45 -92.5t23 -110t6 -121.5v-655h-176v655q0 40 -2.5 71.5t-11.5 67t-24 59t-42.5 39t-65.5 15.5q-88 0 -143 -88.5t-55 -228.5v-590h-174v768q0 146 -9 260z" />
<glyph unicode="o" horiz-adv-x="931" d="M92 512q0 251 99 401t274 150t275 -150t100 -401q0 -248 -100 -397.5t-275 -149.5q-172 0 -272.5 150t-100.5 397zM272 514q0 -176 49 -285.5t144 -109.5q50 0 88 30.5t60.5 84.5t34 124.5t11.5 155.5q0 115 -20.5 202.5t-65 141t-108.5 53.5q-95 0 -144 -110t-49 -287z " />
<glyph unicode="p" horiz-adv-x="983" d="M150 -492v1520h169v-160h5q27 93 83 144t156 51q153 0 240.5 -154.5t87.5 -398.5q0 -245 -85.5 -395t-242.5 -150q-88 0 -149.5 51t-85.5 134h-4v-642h-174zM319 516q0 -174 52 -285.5t147 -111.5q65 0 109.5 54t64 141t19.5 202q0 114 -19.5 201t-64 140.5t-109.5 53.5 q-96 0 -147.5 -110.5t-51.5 -284.5z" />
<glyph unicode="q" horiz-adv-x="983" d="M92 510q0 244 87.5 398.5t240.5 154.5q100 0 156 -51t83 -144h5v160h170v-1520h-175v642h-4q-24 -83 -85.5 -134t-149.5 -51q-157 0 -242.5 150t-85.5 395zM272 516q0 -115 19.5 -202t64 -141t109.5 -54q95 0 147 111.5t52 285.5t-51.5 284.5t-147.5 110.5 q-65 0 -109.5 -53.5t-64 -140.5t-19.5 -201z" />
<glyph unicode="r" horiz-adv-x="583" d="M145 1028h166q13 -110 13 -213h4q25 125 83.5 186.5t139.5 61.5q18 0 24 -2l-8 -182q-20 4 -35 4q-63 0 -110 -54.5t-69.5 -135.5t-22.5 -173v-520h-176v768q0 146 -9 260z" />
<glyph unicode="s" horiz-adv-x="722" d="M41 104l102 113q87 -106 199 -106q65 0 103 47t38 123q0 42 -13 73t-41.5 53t-55.5 35t-74 31q-44 17 -77 36.5t-66.5 52.5t-51.5 83.5t-18 116.5q0 133 87 217t216 84q172 0 268 -115l-100 -114q-62 90 -168 90q-61 0 -99 -42.5t-38 -113.5q0 -67 36 -100.5t126 -67.5 q235 -88 235 -307q0 -155 -87 -241.5t-226 -86.5q-90 0 -166.5 37t-128.5 102z" />
<glyph unicode="t" horiz-adv-x="540" d="M33 887v141h129v275h170v-275h182v-141h-182v-592q0 -90 25.5 -130t80.5 -40q38 0 74 16l4 -139q-56 -29 -133 -29q-115 0 -167 73.5t-52 213.5v627h-131z" />
<glyph unicode="u" horiz-adv-x="989" d="M141 373v655h176v-655q0 -40 2.5 -71.5t11.5 -67t24 -59t42.5 -39t65.5 -15.5q88 0 143.5 88.5t55.5 228.5v590h174v-768q0 -159 8 -260h-166q-12 102 -12 178h-4q-31 -95 -98.5 -154t-160.5 -59q-64 0 -112 23.5t-76 60.5t-45 92.5t-23 110t-6 121.5z" />
<glyph unicode="v" horiz-adv-x="811" d="M29 1028h184l197 -844h4l188 844h180l-272 -1028h-205z" />
<glyph unicode="w" horiz-adv-x="1228" d="M41 1028h178l143 -827h5l165 827h162l170 -827h2l146 827h176l-219 -1028h-201l-158 778h-2l-159 -778h-195z" />
<glyph unicode="x" horiz-adv-x="802" d="M29 0l272 541l-250 487h193l159 -358l158 358h187l-248 -485l274 -543h-194l-181 401l-182 -401h-188z" />
<glyph unicode="y" horiz-adv-x="811" d="M29 1028h184l203 -823h4l184 823h178l-317 -1214q-40 -153 -105 -229.5t-186 -76.5q-64 0 -121 17l23 158q41 -15 82 -15q57 0 88 34.5t47 104.5l39 162z" />
<glyph unicode="z" horiz-adv-x="710" d="M53 0v150l414 729h-383v149h565v-145l-413 -733h415v-150h-598z" />
<glyph unicode="{" horiz-adv-x="520" d="M0 520v139q55 0 83 42.5t28 154.5v346q0 297 213 297h110v-129h-69q-107 0 -107 -176v-363q0 -112 -39 -171t-90 -68v-4q51 -9 90 -68.5t39 -171.5v-362q0 -176 107 -176h69v-129h-110q-213 0 -213 296v347q0 112 -28 154t-83 42z" />
<glyph unicode="|" horiz-adv-x="454" d="M143 -512v2048h168v-2048h-168z" />
<glyph unicode="}" horiz-adv-x="520" d="M90 -190h70q59 0 82.5 45.5t23.5 130.5v362q0 112 39 171.5t90 68.5v4q-51 9 -90 68t-39 171v363q0 85 -23.5 130.5t-82.5 45.5h-70v129h111q213 0 213 -297v-346q0 -112 28.5 -154.5t81.5 -42.5v-139q-53 0 -81.5 -42t-28.5 -154v-347q0 -296 -213 -296h-111v129z" />
<glyph unicode="~" horiz-adv-x="1363" d="M166 586q122 200 295 200q63 0 115 -17t120 -60q77 -49 117 -64.5t86 -15.5q101 0 178 139l121 -113q-121 -198 -295 -198q-61 0 -113.5 17t-123.5 61q-75 48 -115 62.5t-86 14.5q-101 0 -178 -139z" />
<glyph unicode="&#xa1;" horiz-adv-x="618" d="M195 946q0 54 32 88.5t82 34.5t83.5 -34.5t33.5 -88.5q0 -51 -34 -88t-83 -37t-81.5 36.5t-32.5 88.5zM221 -395v1003h176v-1003h-176z" />
<glyph unicode="&#xa2;" d="M152 510q0 228 90.5 376.5t255.5 160.5v135h90v-135q145 -8 227 -97l-78 -121q-55 62 -149 70v-778q90 2 153 82l70 -115q-33 -44 -93 -75.5t-130 -35.5v-124h-90v124q-166 12 -256 157.5t-90 375.5zM319 506q0 -78 10.5 -144t31.5 -119t56.5 -85.5t82.5 -38.5v780 q-62 -8 -104 -65.5t-59.5 -140.5t-17.5 -187z" />
<glyph unicode="&#xa3;" d="M78 0v166h188v514h-174v141h174v209q0 88 23 168t68.5 146t122 105.5t173.5 39.5q158 0 252 -90l-98 -133q-55 59 -148 59q-60 0 -104 -26t-67 -72t-33.5 -99t-10.5 -116v-191h267v-141h-267v-514h404v-166h-770z" />
<glyph unicode="&#xa4;" d="M41 100l141 181q-71 132 -71 290t65 285l-135 172l84 105l137 -168q105 92 234 92q132 0 231 -92l137 168l84 -105l-133 -168q70 -119 70 -289q0 -171 -74 -297l137 -174l-84 -106l-141 174q-92 -86 -227 -86q-123 0 -226 90l-145 -178zM268 571q0 -141 59.5 -233 t168.5 -92q111 0 170 92t59 233t-59 232.5t-170 91.5q-109 0 -168.5 -91.5t-59.5 -232.5z" />
<glyph unicode="&#xa5;" d="M49 1450h184l263 -637l262 637h180l-291 -645h221v-123h-290v-211h290v-123h-290v-348h-175v348h-288v123h288v211h-288v125h227z" />
<glyph unicode="&#xa6;" horiz-adv-x="454" d="M143 358h168v-716h-168v716zM143 666v716h168v-716h-168z" />
<glyph unicode="&#xa7;" horiz-adv-x="999" d="M92 -133l98 117q50 -60 119 -93.5t146 -33.5q89 0 148 47.5t59 138.5q0 42 -14 74.5t-45 58.5t-66 45t-91 43l-71 31q-136 58 -196 127.5t-60 195.5q0 106 62 177.5t143 101.5q-79 47 -117.5 104.5t-38.5 153.5q0 148 104.5 242t262.5 94q218 0 321 -150l-106 -100 q-30 52 -86.5 79.5t-126.5 27.5q-83 0 -144 -49.5t-61 -145.5q0 -33 11.5 -60.5t25.5 -45t47 -38.5t54.5 -31.5t70.5 -33.5l61 -29q139 -65 204.5 -138.5t65.5 -192.5q0 -111 -59 -181t-147 -94q161 -86 161 -254q0 -87 -32 -155t-86 -108t-118.5 -60.5t-135.5 -20.5 q-110 0 -206 41t-157 115zM272 631q0 -30 6.5 -55.5t20.5 -45t28 -34t39 -29t42.5 -23.5t48.5 -22l96 -41q69 8 118.5 57.5t49.5 134.5q0 41 -14 73.5t-45 57.5t-59.5 41.5t-76.5 38.5l-88 41q-67 -14 -116.5 -62.5t-49.5 -131.5z" />
<glyph unicode="&#xa8;" horiz-adv-x="481" d="M-14 1331q0 45 27.5 77t70.5 32q41 0 70.5 -32.5t29.5 -76.5q0 -46 -29 -76t-71 -30q-44 0 -71 29.5t-27 76.5zM299 1331q0 44 29.5 76.5t70.5 32.5q42 0 70.5 -32t28.5 -77q0 -47 -28.5 -76.5t-70.5 -29.5t-71 30t-29 76z" />
<glyph unicode="&#xa9;" horiz-adv-x="1310" d="M74 727q0 350 160 559t421 209q259 0 420.5 -209.5t161.5 -558.5q0 -350 -161.5 -559t-420.5 -209q-261 0 -421 208.5t-160 559.5zM180 727q0 -196 56.5 -349t165 -241t253.5 -88t253.5 88t165 241t56.5 349t-56.5 349t-165 241t-253.5 88t-253.5 -88t-165 -241 t-56.5 -349zM362 731q0 211 84.5 339t229.5 128q71 0 127.5 -30.5t89.5 -84.5l-88 -106q-41 78 -129 78q-77 0 -118.5 -89.5t-41.5 -234.5q0 -141 41.5 -230t118.5 -89q83 0 129 82l90 -105q-79 -125 -215 -125q-146 0 -232 128t-86 339z" />
<glyph unicode="&#xaa;" horiz-adv-x="622" d="M100 1001q0 63 23 108t62 68.5t79.5 33.5t85.5 10h41v24q0 125 -98 125q-61 0 -113 -59l-59 78q35 41 84.5 64.5t99.5 23.5q106 0 151.5 -63.5t45.5 -190.5v-260q0 -86 6 -127h-98q-9 50 -9 94h-2q-30 -113 -145 -113q-62 0 -108 46t-46 138zM213 1014q0 -48 21.5 -74.5 t52.5 -26.5q52 0 79 57t27 126v34h-43q-63 0 -100 -25t-37 -91z" />
<glyph unicode="&#xab;" horiz-adv-x="741" d="M70 516l211 442l106 -57l-180 -385l180 -387l-106 -57zM354 516l209 442l107 -57l-181 -385l181 -387l-107 -57z" />
<glyph unicode="&#xac;" horiz-adv-x="1363" d="M143 707v165h1078v-587h-166v422h-912z" />
<glyph unicode="&#xad;" horiz-adv-x="471" d="M74 473v141h323v-141h-323z" />
<glyph unicode="&#xae;" horiz-adv-x="983" d="M143 1022q0 210 97 335.5t252 125.5t251.5 -125.5t96.5 -335.5q0 -211 -96 -336t-252 -125t-252.5 125t-96.5 336zM207 1022q0 -180 77.5 -294t207.5 -114t207 114t77 294t-77 294t-207 114t-207.5 -114t-77.5 -294zM346 762v528h164q69 0 113.5 -39.5t44.5 -120.5 q0 -112 -82 -139l94 -229h-107l-77 209h-52v-209h-98zM444 1049h54q71 0 71 79q0 76 -69 76h-56v-155z" />
<glyph unicode="&#xaf;" horiz-adv-x="481" d="M-25 1257v117h529v-117h-529z" />
<glyph unicode="&#xb0;" horiz-adv-x="655" d="M80 1157q0 136 67 231t181 95q112 0 178.5 -95t66.5 -231t-66.5 -234t-178.5 -98q-76 0 -133.5 47.5t-86 122t-28.5 162.5zM188 1157q0 -101 39 -166t101 -65q61 0 100 65.5t39 165.5q0 97 -39 161t-100 64q-62 0 -101 -63.5t-39 -161.5z" />
<glyph unicode="&#xb1;" horiz-adv-x="1363" d="M143 82v166h1078v-166h-1078zM143 692v166h457v307h166v-307h455v-166h-455v-301h-166v301h-457z" />
<glyph unicode="&#xb2;" horiz-adv-x="655" d="M70 1229q18 121 88.5 182.5t181.5 61.5q119 0 185.5 -69.5t66.5 -184.5q0 -41 -9.5 -77.5t-35.5 -78t-41.5 -62.5t-56.5 -73l-191 -238h320v-133h-496v139l266 330q86 106 86 188q0 57 -25 91t-77 34q-45 0 -75.5 -32.5t-37.5 -94.5z" />
<glyph unicode="&#xb3;" horiz-adv-x="655" d="M61 748l138 34q31 -108 131 -108q62 0 94.5 43.5t32.5 103.5q0 70 -42 108t-112 38h-37v116h41q60 0 95.5 37t35.5 103q0 50 -26.5 86.5t-81.5 36.5q-37 0 -65 -23t-42 -61l-135 36q29 91 98.5 136t151.5 45q105 0 175.5 -65t70.5 -173q0 -80 -35 -136t-100 -73v-2 q72 -19 114.5 -76.5t42.5 -138.5q0 -122 -74.5 -197t-195.5 -75q-106 0 -177.5 52t-97.5 153z" />
<glyph unicode="&#xb4;" horiz-adv-x="481" d="M125 1169l184 295h172l-219 -295h-137z" />
<glyph unicode="&#xb5;" horiz-adv-x="1183" d="M154 -492v1463h192v-537q0 -64 9.5 -114t33 -94t68.5 -67.5t110 -23.5q117 0 188.5 87t71.5 233v516h193v-762q0 -125 8 -209h-182q-8 65 -8 160h-4q-38 -80 -126.5 -133.5t-191.5 -53.5q-52 0 -98 16.5t-72 45.5v-527h-192z" />
<glyph unicode="&#xb6;" horiz-adv-x="1228" d="M80 1047q0 198 126 300.5t347 102.5h518v-1708h-160v1579h-235v-1579h-162v928q-190 0 -312 108t-122 269z" />
<glyph unicode="&#xb7;" horiz-adv-x="466" d="M119 535q0 52 32.5 88t81.5 36t83 -36.5t34 -87.5q0 -54 -33.5 -88.5t-83.5 -34.5t-82 34.5t-32 88.5z" />
<glyph unicode="&#xb8;" horiz-adv-x="481" d="M29 -432l34 84q52 -29 140 -29q40 0 77 21t37 63q0 37 -26.5 56.5t-69.5 19.5q-41 0 -84 -16l-39 34l119 199h98l-88 -147q16 6 62 6q63 0 111.5 -37.5t48.5 -110.5q0 -50 -21.5 -87.5t-57.5 -57t-74.5 -28.5t-80.5 -9q-107 0 -186 39z" />
<glyph unicode="&#xb9;" horiz-adv-x="655" d="M80 1282l242 168h143v-895h-154v721l-161 -111z" />
<glyph unicode="&#xba;" horiz-adv-x="622" d="M82 1145q0 152 61 243t170 91t171.5 -91.5t62.5 -242.5q0 -150 -62.5 -240t-171.5 -90q-107 0 -169 90t-62 240zM207 1147q0 -101 26 -162t80 -61t81.5 61.5t27.5 161.5q0 98 -28 159.5t-81 61.5q-54 0 -80 -60.5t-26 -160.5z" />
<glyph unicode="&#xbb;" horiz-adv-x="741" d="M70 129l180 387l-180 385l106 57l211 -442l-211 -444zM354 129l181 387l-181 385l107 57l209 -442l-209 -444z" />
<glyph unicode="&#xbc;" horiz-adv-x="1515" d="M80 1282l242 168h143v-895h-154v721l-161 -111zM414 -16l569 1525l111 -30l-568 -1526zM836 193v135l278 567h201v-573h100v-129h-100v-193h-141v193h-338zM975 322h203v430h-2z" />
<glyph unicode="&#xbd;" horiz-adv-x="1515" d="M80 1282l242 168h143v-895h-154v721l-161 -111zM414 -16l569 1525l111 -30l-568 -1526zM893 672q18 121 88.5 182t181.5 61q119 0 185.5 -69t66.5 -184q0 -41 -9.5 -77.5t-35.5 -78t-41.5 -62.5t-56.5 -73l-191 -238h320v-133h-496v139l266 330q86 106 86 188 q0 57 -25 91t-77 34q-45 0 -75.5 -32.5t-37.5 -94.5z" />
<glyph unicode="&#xbe;" horiz-adv-x="1515" d="M61 748l138 34q31 -108 131 -108q62 0 94.5 43.5t32.5 103.5q0 70 -42 108t-112 38h-37v116h41q60 0 95.5 37t35.5 103q0 50 -26.5 86.5t-81.5 36.5q-37 0 -65 -23t-42 -61l-135 36q29 91 98.5 136t151.5 45q105 0 175.5 -65t70.5 -173q0 -80 -35 -136t-100 -73v-2 q72 -19 114.5 -76.5t42.5 -138.5q0 -122 -74.5 -197t-195.5 -75q-106 0 -177.5 52t-97.5 153zM414 -16l569 1525l111 -30l-568 -1526zM836 193v135l278 567h201v-573h100v-129h-100v-193h-141v193h-338zM975 322h203v430h-2z" />
<glyph unicode="&#xbf;" horiz-adv-x="780" d="M41 -68q0 61 13 111.5t42 96t52 72.5t67 73q63 65 85 119t22 131v73h157v-96q0 -160 -125 -303l-43 -49q-46 -54 -70 -101t-24 -112q0 -103 44.5 -161t125.5 -58q80 0 130 63t63 152l151 -31q-26 -154 -118 -247t-242 -93t-240 95t-90 265zM274 946q0 54 33.5 88.5 t83.5 34.5t82.5 -34.5t32.5 -88.5q0 -52 -33 -88.5t-82 -36.5t-83 37t-34 88z" />
<glyph unicode="&#xc0;" horiz-adv-x="997" d="M16 0l365 1450h244l356 -1450h-193l-81 340h-420l-84 -340h-187zM250 1860h172l184 -295h-137zM311 485h371l-178 793h-8z" />
<glyph unicode="&#xc1;" horiz-adv-x="997" d="M16 0l365 1450h244l356 -1450h-193l-81 340h-420l-84 -340h-187zM311 485h371l-178 793h-8zM403 1565l185 295h172l-219 -295h-138z" />
<glyph unicode="&#xc2;" horiz-adv-x="997" d="M16 0l365 1450h244l356 -1450h-193l-81 340h-420l-84 -340h-187zM207 1565l215 295h164l213 -295h-152l-145 207l-146 -207h-149zM311 485h371l-178 793h-8z" />
<glyph unicode="&#xc3;" horiz-adv-x="997" d="M16 0l365 1450h244l356 -1450h-193l-81 340h-420l-84 -340h-187zM219 1589q6 100 48.5 158.5t109.5 58.5q35 0 63.5 -10.5t71.5 -38.5q47 -29 68.5 -38t46.5 -9q32 0 46.5 22t20.5 74h90q-6 -104 -47.5 -160.5t-109.5 -56.5q-35 0 -63 10.5t-70 38.5q-44 30 -64.5 37.5 t-48.5 7.5q-58 0 -70 -94h-92zM311 485h371l-178 793h-8z" />
<glyph unicode="&#xc4;" horiz-adv-x="997" d="M16 0l365 1450h244l356 -1450h-193l-81 340h-420l-84 -340h-187zM248 1726q0 45 27.5 77t70.5 32q41 0 70.5 -32.5t29.5 -76.5q0 -46 -29 -76t-71 -30q-44 0 -71 29.5t-27 76.5zM311 485h371l-178 793h-8zM561 1726q0 44 30 76.5t71 32.5q42 0 70 -32t28 -77 q0 -47 -28 -76.5t-70 -29.5t-71.5 30t-29.5 76z" />
<glyph unicode="&#xc5;" horiz-adv-x="997" d="M16 0l365 1450h244l356 -1450h-193l-81 340h-420l-84 -340h-187zM307 1745q0 93 53.5 152t139.5 59t141 -59.5t55 -151.5q0 -91 -55 -151t-141 -60q-85 0 -139 59.5t-54 151.5zM311 485h371l-178 793h-8zM389 1745q0 -57 29.5 -96t81.5 -39q53 0 83.5 39t30.5 96 q0 58 -30 96.5t-84 38.5q-52 0 -81.5 -38.5t-29.5 -96.5z" />
<glyph unicode="&#xc6;" horiz-adv-x="1329" d="M-12 0l526 1450h715v-164h-412v-457h381v-153h-381v-510h430v-166h-602v336h-344l-119 -336h-194zM350 485h295v805h-16z" />
<glyph unicode="&#xc7;" horiz-adv-x="995" d="M96 725q0 219 61.5 390.5t179.5 269.5t273 98q112 0 204 -44t151 -130l-115 -125q-86 129 -232 129q-107 0 -182 -80.5t-110 -211t-35 -296.5q0 -164 35.5 -295t112.5 -213t184 -82q72 0 131 39t96 102l111 -120q-111 -169 -310 -189l-67 -114q16 6 61 6 q63 0 111.5 -37.5t48.5 -110.5q0 -50 -21.5 -87.5t-57.5 -57t-74.5 -28.5t-80.5 -9q-107 0 -186 39l35 84q52 -29 139 -29q40 0 77.5 21t37.5 63q0 37 -26.5 56.5t-69.5 19.5q-41 0 -84 -16l-39 34l100 168q-143 16 -247.5 119t-158 267t-53.5 370z" />
<glyph unicode="&#xc8;" horiz-adv-x="872" d="M160 0v1450h610v-164h-432v-457h403v-153h-403v-510h453v-166h-631zM223 1860h172l185 -295h-138z" />
<glyph unicode="&#xc9;" horiz-adv-x="872" d="M160 0v1450h610v-164h-432v-457h403v-153h-403v-510h453v-166h-631zM369 1565l184 295h172l-219 -295h-137z" />
<glyph unicode="&#xca;" horiz-adv-x="872" d="M160 0v1450h610v-164h-432v-457h403v-153h-403v-510h453v-166h-631zM172 1565l215 295h164l213 -295h-152l-145 207l-145 -207h-150z" />
<glyph unicode="&#xcb;" horiz-adv-x="872" d="M160 0v1450h610v-164h-432v-457h403v-153h-403v-510h453v-166h-631zM209 1726q0 45 27.5 77t70.5 32q41 0 71 -32.5t30 -76.5q0 -46 -29.5 -76t-71.5 -30q-44 0 -71 29.5t-27 76.5zM522 1726q0 44 30 76.5t71 32.5q42 0 70 -32t28 -77q0 -47 -28 -76.5t-70 -29.5 t-71.5 30t-29.5 76z" />
<glyph unicode="&#xcc;" horiz-adv-x="503" d="M-16 1860h172l184 -295h-137zM160 0v1450h184v-1450h-184z" />
<glyph unicode="&#xcd;" horiz-adv-x="503" d="M160 0v1450h184v-1450h-184zM164 1565l184 295h172l-219 -295h-137z" />
<glyph unicode="&#xce;" horiz-adv-x="503" d="M-43 1565l215 295h164l213 -295h-152l-145 207l-146 -207h-149zM160 0v1450h184v-1450h-184z" />
<glyph unicode="&#xcf;" horiz-adv-x="503" d="M-2 1726q0 45 27.5 77t70.5 32q41 0 71 -32.5t30 -76.5q0 -46 -29.5 -76t-71.5 -30q-44 0 -71 29.5t-27 76.5zM160 0v1450h184v-1450h-184zM311 1726q0 44 30 76.5t71 32.5q42 0 70 -32t28 -77q0 -47 -28 -76.5t-70 -29.5t-71.5 30t-29.5 76z" />
<glyph unicode="&#xd0;" horiz-adv-x="1128" d="M43 684v125h117v641h334q260 0 401 -187t141 -540q0 -350 -142 -536.5t-402 -186.5h-332v684h-117zM342 162h150q161 0 260.5 144t99.5 417q0 277 -99.5 421t-260.5 144h-150v-479h272v-125h-272v-522z" />
<glyph unicode="&#xd1;" horiz-adv-x="1173" d="M160 0v1450h221l457 -1126h6v1126h170v-1450h-215l-463 1124h-6v-1124h-170zM303 1589q6 100 48.5 158.5t109.5 58.5q35 0 63.5 -10.5t71.5 -38.5q47 -29 68.5 -38t46.5 -9q32 0 46.5 22t20.5 74h90q-6 -104 -47.5 -160.5t-109.5 -56.5q-35 0 -63 10.5t-70 38.5 q-44 30 -64.5 37.5t-48.5 7.5q-58 0 -70 -94h-92z" />
<glyph unicode="&#xd2;" horiz-adv-x="1185" d="M96 727q0 228 57.5 398t170.5 265t270 95q152 0 265 -94.5t172 -265.5t59 -398q0 -226 -59 -398t-172 -268t-265 -96q-153 0 -266.5 96t-172.5 268t-59 398zM291 727q0 -169 32 -300t102 -211.5t169 -80.5q96 0 165 80t102.5 212t33.5 300t-33.5 300t-102.5 212t-165 80 q-99 0 -169 -80.5t-102 -211.5t-32 -300zM328 1860h172l184 -295h-137z" />
<glyph unicode="&#xd3;" horiz-adv-x="1185" d="M96 727q0 228 57.5 398t170.5 265t270 95q152 0 265 -94.5t172 -265.5t59 -398q0 -226 -59 -398t-172 -268t-265 -96q-153 0 -266.5 96t-172.5 268t-59 398zM291 727q0 -169 32 -300t102 -211.5t169 -80.5q96 0 165 80t102.5 212t33.5 300t-33.5 300t-102.5 212t-165 80 q-99 0 -169 -80.5t-102 -211.5t-32 -300zM518 1565l184 295h172l-219 -295h-137z" />
<glyph unicode="&#xd4;" horiz-adv-x="1185" d="M96 727q0 228 57.5 398t170.5 265t270 95q152 0 265 -94.5t172 -265.5t59 -398q0 -226 -59 -398t-172 -268t-265 -96q-153 0 -266.5 96t-172.5 268t-59 398zM291 727q0 -169 32 -300t102 -211.5t169 -80.5q96 0 165 80t102.5 212t33.5 300t-33.5 300t-102.5 212t-165 80 q-99 0 -169 -80.5t-102 -211.5t-32 -300zM295 1565l215 295h164l213 -295h-152l-145 207l-146 -207h-149z" />
<glyph unicode="&#xd5;" horiz-adv-x="1185" d="M96 727q0 228 57.5 398t170.5 265t270 95q152 0 265 -94.5t172 -265.5t59 -398q0 -226 -59 -398t-172 -268t-265 -96q-153 0 -266.5 96t-172.5 268t-59 398zM291 727q0 -169 32 -300t102 -211.5t169 -80.5q96 0 165 80t102.5 212t33.5 300t-33.5 300t-102.5 212t-165 80 q-99 0 -169 -80.5t-102 -211.5t-32 -300zM307 1589q6 100 48.5 158.5t109.5 58.5q35 0 63.5 -10.5t71.5 -38.5q47 -29 68.5 -38t46.5 -9q32 0 46.5 22t20.5 74h90q-6 -104 -47.5 -160.5t-109.5 -56.5q-35 0 -63 10.5t-70 38.5q-44 30 -64.5 37.5t-48.5 7.5q-58 0 -70 -94 h-92z" />
<glyph unicode="&#xd6;" horiz-adv-x="1185" d="M96 727q0 228 57.5 398t170.5 265t270 95q152 0 265 -94.5t172 -265.5t59 -398q0 -226 -59 -398t-172 -268t-265 -96q-153 0 -266.5 96t-172.5 268t-59 398zM291 727q0 -169 32 -300t102 -211.5t169 -80.5q96 0 165 80t102.5 212t33.5 300t-33.5 300t-102.5 212t-165 80 q-99 0 -169 -80.5t-102 -211.5t-32 -300zM334 1726q0 45 27.5 77t70.5 32q41 0 70.5 -32.5t29.5 -76.5q0 -46 -29 -76t-71 -30q-44 0 -71 29.5t-27 76.5zM647 1726q0 44 30 76.5t71 32.5q42 0 70 -32t28 -77q0 -47 -28 -76.5t-70 -29.5t-71.5 30t-29.5 76z" />
<glyph unicode="&#xd7;" horiz-adv-x="1363" d="M213 268l352 348l-350 357l117 114l350 -350l348 350l117 -114l-348 -350l352 -355l-121 -118l-350 348l-348 -348z" />
<glyph unicode="&#xd8;" horiz-adv-x="1185" d="M96 727q0 228 57.5 398t170.5 265t270 95q148 0 264 -96l70 139l104 -45l-94 -178q152 -206 152 -578q0 -226 -59 -398t-172 -268t-265 -96q-168 0 -287 113l-74 -152l-108 45l106 199q-135 204 -135 557zM289 727q0 -221 51 -367l430 869q-78 94 -176 94 q-99 0 -169.5 -80.5t-103 -212.5t-32.5 -303zM399 244q77 -113 195 -113q97 0 167 80t103 213t33 303q0 231 -63 391z" />
<glyph unicode="&#xd9;" horiz-adv-x="1140" d="M139 498v952h185v-934q0 -381 247 -381q246 0 246 381v934h184v-952q0 -114 -23 -207.5t-72.5 -168t-135.5 -116t-203 -41.5q-116 0 -201 41.5t-133.5 116t-71 167.5t-22.5 208zM303 1860h172l184 -295h-137z" />
<glyph unicode="&#xda;" horiz-adv-x="1140" d="M139 498v952h185v-934q0 -381 247 -381q246 0 246 381v934h184v-952q0 -114 -23 -207.5t-72.5 -168t-135.5 -116t-203 -41.5q-116 0 -201 41.5t-133.5 116t-71 167.5t-22.5 208zM477 1565l185 295h172l-220 -295h-137z" />
<glyph unicode="&#xdb;" horiz-adv-x="1140" d="M139 498v952h185v-934q0 -381 247 -381q246 0 246 381v934h184v-952q0 -114 -23 -207.5t-72.5 -168t-135.5 -116t-203 -41.5q-116 0 -201 41.5t-133.5 116t-71 167.5t-22.5 208zM281 1565l215 295h163l213 -295h-151l-146 207l-145 -207h-149z" />
<glyph unicode="&#xdc;" horiz-adv-x="1140" d="M139 498v952h185v-934q0 -381 247 -381q246 0 246 381v934h184v-952q0 -114 -23 -207.5t-72.5 -168t-135.5 -116t-203 -41.5q-116 0 -201 41.5t-133.5 116t-71 167.5t-22.5 208zM319 1726q0 45 28 77t71 32q41 0 70.5 -32.5t29.5 -76.5q0 -46 -29 -76t-71 -30 q-44 0 -71.5 29.5t-27.5 76.5zM633 1726q0 44 29.5 76.5t70.5 32.5q42 0 70 -32t28 -77q0 -47 -28 -76.5t-70 -29.5t-71 30t-29 76z" />
<glyph unicode="&#xdd;" horiz-adv-x="894" d="M-6 1450h201l251 -682l259 682h196l-364 -870v-580h-183v580zM356 1565l185 295h172l-219 -295h-138z" />
<glyph unicode="&#xde;" horiz-adv-x="1007" d="M160 0v1450h182v-299h152q201 0 315.5 -102t114.5 -301q0 -210 -119.5 -310t-319.5 -100h-143v-338h-182zM342 512h127q130 0 199 54.5t69 178.5q0 232 -266 232h-129v-465z" />
<glyph unicode="&#xdf;" horiz-adv-x="956" d="M139 0v1069q0 111 19 199.5t60.5 158.5t112.5 108t169 38q158 0 241.5 -104.5t83.5 -270.5q0 -132 -64.5 -222t-156.5 -112v-2q123 -21 198 -128.5t75 -291.5q0 -96 -20.5 -176.5t-62.5 -145t-114 -100.5t-168 -36q-50 0 -104 12v147q36 -8 71 -8q117 0 173.5 89 t56.5 229q0 154 -65 240.5t-187 86.5h-31v148h31q91 0 149 72t58 188q0 97 -42 165t-126 68q-53 0 -91 -29t-58 -80t-29 -110t-9 -131v-1071h-170z" />
<glyph unicode="&#xe0;" horiz-adv-x="849" d="M78 279q0 85 26.5 151t67.5 104.5t98 63t111 33t113 8.5h67v45q0 229 -170 229q-112 0 -190 -104l-88 109q50 67 131.5 106t163.5 39q171 0 242 -108t71 -324v-416q0 -129 14 -215h-143q-17 107 -17 170h-4q-50 -197 -241 -197q-45 0 -88 17.5t-80.5 52t-60.5 96 t-23 140.5zM154 1464h172l184 -295h-137zM242 297q0 -89 38.5 -135.5t96.5 -46.5q50 0 88.5 31t59 82t30.5 106t10 112v60h-76q-247 0 -247 -209z" />
<glyph unicode="&#xe1;" horiz-adv-x="849" d="M78 279q0 85 26.5 151t67.5 104.5t98 63t111 33t113 8.5h67v45q0 229 -170 229q-112 0 -190 -104l-88 109q50 67 131.5 106t163.5 39q171 0 242 -108t71 -324v-416q0 -129 14 -215h-143q-17 107 -17 170h-4q-50 -197 -241 -197q-45 0 -88 17.5t-80.5 52t-60.5 96 t-23 140.5zM242 297q0 -89 38.5 -135.5t96.5 -46.5q50 0 88.5 31t59 82t30.5 106t10 112v60h-76q-247 0 -247 -209zM340 1169l184 295h172l-219 -295h-137z" />
<glyph unicode="&#xe2;" horiz-adv-x="849" d="M78 279q0 85 26.5 151t67.5 104.5t98 63t111 33t113 8.5h67v45q0 229 -170 229q-112 0 -190 -104l-88 109q50 67 131.5 106t163.5 39q171 0 242 -108t71 -324v-416q0 -129 14 -215h-143q-17 107 -17 170h-4q-50 -197 -241 -197q-45 0 -88 17.5t-80.5 52t-60.5 96 t-23 140.5zM125 1169l215 295h164l213 -295h-152l-145 207l-146 -207h-149zM242 297q0 -89 38.5 -135.5t96.5 -46.5q50 0 88.5 31t59 82t30.5 106t10 112v60h-76q-247 0 -247 -209z" />
<glyph unicode="&#xe3;" horiz-adv-x="849" d="M78 279q0 85 26.5 151t67.5 104.5t98 63t111 33t113 8.5h67v45q0 229 -170 229q-112 0 -190 -104l-88 109q50 67 131.5 106t163.5 39q171 0 242 -108t71 -324v-416q0 -129 14 -215h-143q-17 107 -17 170h-4q-50 -197 -241 -197q-45 0 -88 17.5t-80.5 52t-60.5 96 t-23 140.5zM143 1194q6 100 48.5 158.5t109.5 58.5q35 0 63.5 -10.5t71.5 -38.5q47 -29 68.5 -38t46.5 -9q32 0 46.5 22t20.5 74h91q-6 -103 -48 -160t-110 -57q-35 0 -63 10.5t-70 38.5q-44 30 -64.5 37.5t-48.5 7.5q-57 0 -69 -94h-93zM242 297q0 -89 38.5 -135.5 t96.5 -46.5q50 0 88.5 31t59 82t30.5 106t10 112v60h-76q-247 0 -247 -209z" />
<glyph unicode="&#xe4;" horiz-adv-x="849" d="M78 279q0 85 26.5 151t67.5 104.5t98 63t111 33t113 8.5h67v45q0 229 -170 229q-112 0 -190 -104l-88 109q50 67 131.5 106t163.5 39q171 0 242 -108t71 -324v-416q0 -129 14 -215h-143q-17 107 -17 170h-4q-50 -197 -241 -197q-45 0 -88 17.5t-80.5 52t-60.5 96 t-23 140.5zM162 1331q0 45 27.5 77t70.5 32q41 0 70.5 -32.5t29.5 -76.5q0 -46 -29 -76t-71 -30q-44 0 -71 29.5t-27 76.5zM242 297q0 -89 38.5 -135.5t96.5 -46.5q50 0 88.5 31t59 82t30.5 106t10 112v60h-76q-247 0 -247 -209zM475 1331q0 44 29.5 76.5t70.5 32.5 q42 0 70.5 -32t28.5 -77q0 -47 -28.5 -76.5t-70.5 -29.5t-71 30t-29 76z" />
<glyph unicode="&#xe5;" horiz-adv-x="849" d="M78 279q0 85 26.5 151t67.5 104.5t98 63t111 33t113 8.5h67v45q0 229 -170 229q-112 0 -190 -104l-88 109q50 67 131.5 106t163.5 39q171 0 242 -108t71 -324v-416q0 -129 14 -215h-143q-17 107 -17 170h-4q-50 -197 -241 -197q-45 0 -88 17.5t-80.5 52t-60.5 96 t-23 140.5zM231 1350q0 93 53.5 152t139.5 59t141.5 -59.5t55.5 -151.5q0 -91 -55.5 -151t-141.5 -60q-85 0 -139 59.5t-54 151.5zM242 297q0 -89 38.5 -135.5t96.5 -46.5q50 0 88.5 31t59 82t30.5 106t10 112v60h-76q-247 0 -247 -209zM313 1350q0 -57 29.5 -96.5 t81.5 -39.5q53 0 84 39.5t31 96.5q0 58 -30.5 96.5t-84.5 38.5q-52 0 -81.5 -38.5t-29.5 -96.5z" />
<glyph unicode="&#xe6;" horiz-adv-x="1361" d="M78 268q0 83 26.5 145.5t67.5 99t98.5 59.5t110.5 30.5t113 7.5h67v43q0 121 -46 190.5t-124 69.5q-112 0 -190 -104l-88 109q50 67 131.5 106t163.5 39q211 0 254 -207q34 97 101.5 152t166.5 55q92 0 160 -39t108 -109.5t59 -160.5t19 -201v-84h-545q0 -154 54 -251 t153 -97q116 0 176 145l131 -76q-44 -104 -122 -164.5t-191 -60.5q-237 0 -289 242q-23 -118 -100 -180t-205 -62q-49 0 -93 17t-82.5 51t-61.5 95t-23 140zM242 285q0 -88 38 -129t97 -41q50 0 88 27t59 72t31 96t10 106v59h-76q-49 0 -91 -9.5t-78 -30t-57 -59t-21 -91.5z M735 610h365q0 141 -43 221t-131 80q-48 0 -87 -31t-60.5 -79t-32.5 -97.5t-11 -93.5z" />
<glyph unicode="&#xe7;" horiz-adv-x="704" d="M92 514q0 251 96.5 400t276.5 149q139 0 227 -88l-88 -131q-53 63 -137 63q-95 0 -145 -108t-50 -285q0 -118 20 -202t67 -134.5t118 -50.5q84 0 139 68l78 -136q-76 -88 -211 -94l-67 -112q16 6 61 6q63 0 111.5 -37.5t48.5 -110.5q0 -50 -21.5 -87.5t-57.5 -57 t-74.5 -28.5t-80.5 -9q-107 0 -186 39l35 84q52 -29 139 -29q40 0 77.5 21t37.5 63q0 37 -26.5 56.5t-69.5 19.5q-41 0 -84 -16l-39 34l102 172q-146 29 -221.5 172.5t-75.5 368.5z" />
<glyph unicode="&#xe8;" horiz-adv-x="899" d="M92 512q0 246 103.5 398.5t271.5 152.5q92 0 160 -39t108 -109.5t59 -160.5t19 -201v-84h-545q0 -154 54 -251t153 -97q116 0 176 145l131 -76q-44 -104 -122 -164.5t-191 -60.5q-177 0 -277 144.5t-100 402.5zM227 1464h172l185 -295h-138zM272 610h365q0 141 -43 221 t-131 80q-49 0 -88 -31t-60 -79t-32 -97.5t-11 -93.5z" />
<glyph unicode="&#xe9;" horiz-adv-x="899" d="M92 512q0 246 103.5 398.5t271.5 152.5q92 0 160 -39t108 -109.5t59 -160.5t19 -201v-84h-545q0 -154 54 -251t153 -97q116 0 176 145l131 -76q-44 -104 -122 -164.5t-191 -60.5q-177 0 -277 144.5t-100 402.5zM272 610h365q0 141 -43 221t-131 80q-49 0 -88 -31t-60 -79 t-32 -97.5t-11 -93.5zM365 1169l184 295h172l-219 -295h-137z" />
<glyph unicode="&#xea;" horiz-adv-x="899" d="M92 512q0 246 103.5 398.5t271.5 152.5q92 0 160 -39t108 -109.5t59 -160.5t19 -201v-84h-545q0 -154 54 -251t153 -97q116 0 176 145l131 -76q-44 -104 -122 -164.5t-191 -60.5q-177 0 -277 144.5t-100 402.5zM180 1169l215 295h164l213 -295h-151l-146 207l-145 -207 h-150zM272 610h365q0 141 -43 221t-131 80q-49 0 -88 -31t-60 -79t-32 -97.5t-11 -93.5z" />
<glyph unicode="&#xeb;" horiz-adv-x="899" d="M92 512q0 246 103.5 398.5t271.5 152.5q92 0 160 -39t108 -109.5t59 -160.5t19 -201v-84h-545q0 -154 54 -251t153 -97q116 0 176 145l131 -76q-44 -104 -122 -164.5t-191 -60.5q-177 0 -277 144.5t-100 402.5zM219 1331q0 45 27.5 77t70.5 32q41 0 71 -32.5t30 -76.5 q0 -46 -29.5 -76t-71.5 -30q-44 0 -71 29.5t-27 76.5zM272 610h365q0 141 -43 221t-131 80q-49 0 -88 -31t-60 -79t-32 -97.5t-11 -93.5zM532 1331q0 44 30 76.5t71 32.5q42 0 70 -32t28 -77q0 -47 -28 -76.5t-70 -29.5t-71.5 30t-29.5 76z" />
<glyph unicode="&#xec;" horiz-adv-x="475" d="M-33 1464h172l185 -295h-138zM150 0v1028h174v-1028h-174z" />
<glyph unicode="&#xed;" horiz-adv-x="475" d="M150 0v1028h174v-1028h-174zM152 1169l184 295h172l-219 -295h-137z" />
<glyph unicode="&#xee;" horiz-adv-x="475" d="M-57 1169l215 295h164l213 -295h-152l-145 207l-146 -207h-149zM150 0v1028h174v-1028h-174z" />
<glyph unicode="&#xef;" horiz-adv-x="475" d="M-20 1331q0 45 27.5 77t70.5 32q41 0 70.5 -32.5t29.5 -76.5q0 -46 -29 -76t-71 -30q-44 0 -71 29.5t-27 76.5zM150 0v1028h174v-1028h-174zM293 1331q0 44 29.5 76.5t70.5 32.5q42 0 70.5 -32t28.5 -77q0 -47 -28.5 -76.5t-70.5 -29.5t-71 30t-29 76z" />
<glyph unicode="&#xf0;" horiz-adv-x="921" d="M88 514q0 235 97.5 382.5t258.5 147.5q78 0 129 -51l5 4q-74 179 -183 301l-196 -112l-72 78l201 112q-68 79 -162 146l145 71q104 -89 160 -155l182 102l78 -76l-196 -108q113 -142 202.5 -374t89.5 -472q0 -246 -101 -395.5t-267 -149.5q-168 0 -269.5 149.5 t-101.5 399.5zM266 514q0 -175 51 -287t144 -112q94 0 144 111.5t50 287.5q0 175 -50.5 287t-143.5 112t-144 -112t-51 -287z" />
<glyph unicode="&#xf1;" horiz-adv-x="989" d="M145 1028h166q13 -110 13 -178h4q31 95 98 154t160 59q64 0 112 -23.5t76 -60.5t45 -92.5t23 -110t6 -121.5v-655h-176v655q0 40 -2.5 71.5t-11.5 67t-24 59t-42.5 39t-65.5 15.5q-88 0 -143 -88.5t-55 -228.5v-590h-174v768q0 146 -9 260zM213 1194q6 100 48.5 158.5 t109.5 58.5q35 0 63.5 -10.5t71.5 -38.5q47 -29 68.5 -38t46.5 -9q32 0 46.5 22t20.5 74h90q-6 -104 -47.5 -160.5t-109.5 -56.5q-35 0 -64 10.5t-70 38.5q-44 30 -64.5 37.5t-47.5 7.5q-58 0 -70 -94h-92z" />
<glyph unicode="&#xf2;" horiz-adv-x="931" d="M92 512q0 251 99 401t274 150t275 -150t100 -401q0 -248 -100 -397.5t-275 -149.5q-172 0 -272.5 150t-100.5 397zM203 1464h172l184 -295h-137zM272 514q0 -176 49 -285.5t144 -109.5q50 0 88 30.5t60.5 84.5t34 124.5t11.5 155.5q0 115 -20.5 202.5t-65 141 t-108.5 53.5q-95 0 -144 -110t-49 -287z" />
<glyph unicode="&#xf3;" horiz-adv-x="931" d="M92 512q0 251 99 401t274 150t275 -150t100 -401q0 -248 -100 -397.5t-275 -149.5q-172 0 -272.5 150t-100.5 397zM272 514q0 -176 49 -285.5t144 -109.5q50 0 88 30.5t60.5 84.5t34 124.5t11.5 155.5q0 115 -20.5 202.5t-65 141t-108.5 53.5q-95 0 -144 -110t-49 -287z M350 1169l185 295h172l-220 -295h-137z" />
<glyph unicode="&#xf4;" horiz-adv-x="931" d="M92 512q0 251 99 401t274 150t275 -150t100 -401q0 -248 -100 -397.5t-275 -149.5q-172 0 -272.5 150t-100.5 397zM170 1169l215 295h164l213 -295h-152l-145 207l-146 -207h-149zM272 514q0 -176 49 -285.5t144 -109.5q50 0 88 30.5t60.5 84.5t34 124.5t11.5 155.5 q0 115 -20.5 202.5t-65 141t-108.5 53.5q-95 0 -144 -110t-49 -287z" />
<glyph unicode="&#xf5;" horiz-adv-x="931" d="M92 512q0 251 99 401t274 150t275 -150t100 -401q0 -248 -100 -397.5t-275 -149.5q-172 0 -272.5 150t-100.5 397zM182 1194q6 100 48.5 158.5t109.5 58.5q35 0 63.5 -10.5t71.5 -38.5q47 -29 68.5 -38t46.5 -9q32 0 46.5 22t20.5 74h91q-6 -103 -48 -160t-110 -57 q-35 0 -63 10.5t-70 38.5q-44 30 -64.5 37.5t-48.5 7.5q-58 0 -70 -94h-92zM272 514q0 -176 49 -285.5t144 -109.5q50 0 88 30.5t60.5 84.5t34 124.5t11.5 155.5q0 115 -20.5 202.5t-65 141t-108.5 53.5q-95 0 -144 -110t-49 -287z" />
<glyph unicode="&#xf6;" horiz-adv-x="931" d="M92 512q0 251 99 401t274 150t275 -150t100 -401q0 -248 -100 -397.5t-275 -149.5q-172 0 -272.5 150t-100.5 397zM209 1331q0 45 27.5 77t70.5 32q41 0 71 -32.5t30 -76.5q0 -46 -29.5 -76t-71.5 -30q-44 0 -71 29.5t-27 76.5zM272 514q0 -176 49 -285.5t144 -109.5 q50 0 88 30.5t60.5 84.5t34 124.5t11.5 155.5q0 115 -20.5 202.5t-65 141t-108.5 53.5q-95 0 -144 -110t-49 -287zM522 1331q0 44 30 76.5t71 32.5q42 0 70 -32t28 -77q0 -47 -28 -76.5t-70 -29.5t-71.5 30t-29.5 76z" />
<glyph unicode="&#xf7;" horiz-adv-x="1363" d="M143 537v168h1078v-168h-1078zM549 270q0 55 38.5 94t94.5 39t94.5 -39t38.5 -94t-38.5 -94t-94.5 -39t-94.5 39t-38.5 94zM549 961q0 55 38.5 94t94.5 39t94.5 -39t38.5 -94t-38.5 -94.5t-94.5 -39.5t-94.5 39.5t-38.5 94.5z" />
<glyph unicode="&#xf8;" horiz-adv-x="931" d="M92 512q0 251 99 401t274 150q118 0 203 -76l63 127l84 -39l-80 -155q48 -74 76.5 -181t28.5 -227q0 -248 -100 -397.5t-275 -149.5q-108 0 -197 76l-59 -117l-82 45l76 140q-111 141 -111 403zM266 514q0 -153 31 -242l293 580q-41 66 -125 66q-67 0 -113 -54t-66 -143 t-20 -207zM344 184q21 -31 53.5 -51t67.5 -20q66 0 112.5 53.5t67.5 142.5t21 205q0 134 -29 236z" />
<glyph unicode="&#xf9;" horiz-adv-x="989" d="M141 373v655h176v-655q0 -40 2.5 -71.5t11.5 -67t24 -59t42.5 -39t65.5 -15.5q88 0 143.5 88.5t55.5 228.5v590h174v-768q0 -159 8 -260h-166q-12 102 -12 178h-4q-31 -95 -98.5 -154t-160.5 -59q-64 0 -112 23.5t-76 60.5t-45 92.5t-23 110t-6 121.5zM217 1464h172 l184 -295h-137z" />
<glyph unicode="&#xfa;" horiz-adv-x="989" d="M141 373v655h176v-655q0 -40 2.5 -71.5t11.5 -67t24 -59t42.5 -39t65.5 -15.5q88 0 143.5 88.5t55.5 228.5v590h174v-768q0 -159 8 -260h-166q-12 102 -12 178h-4q-31 -95 -98.5 -154t-160.5 -59q-64 0 -112 23.5t-76 60.5t-45 92.5t-23 110t-6 121.5zM379 1169l184 295 h172l-219 -295h-137z" />
<glyph unicode="&#xfb;" horiz-adv-x="989" d="M141 373v655h176v-655q0 -40 2.5 -71.5t11.5 -67t24 -59t42.5 -39t65.5 -15.5q88 0 143.5 88.5t55.5 228.5v590h174v-768q0 -159 8 -260h-166q-12 102 -12 178h-4q-31 -95 -98.5 -154t-160.5 -59q-64 0 -112 23.5t-76 60.5t-45 92.5t-23 110t-6 121.5zM199 1169l215 295 h164l213 -295h-152l-145 207l-146 -207h-149z" />
<glyph unicode="&#xfc;" horiz-adv-x="989" d="M141 373v655h176v-655q0 -40 2.5 -71.5t11.5 -67t24 -59t42.5 -39t65.5 -15.5q88 0 143.5 88.5t55.5 228.5v590h174v-768q0 -159 8 -260h-166q-12 102 -12 178h-4q-31 -95 -98.5 -154t-160.5 -59q-64 0 -112 23.5t-76 60.5t-45 92.5t-23 110t-6 121.5zM238 1331 q0 45 27.5 77t70.5 32q41 0 70.5 -32.5t29.5 -76.5q0 -46 -29 -76t-71 -30q-44 0 -71 29.5t-27 76.5zM551 1331q0 44 29.5 76.5t70.5 32.5q42 0 70.5 -32t28.5 -77q0 -47 -28.5 -76.5t-70.5 -29.5t-71 30t-29 76z" />
<glyph unicode="&#xfd;" horiz-adv-x="811" d="M29 1028h184l203 -823h4l184 823h178l-317 -1214q-40 -153 -105 -229.5t-186 -76.5q-64 0 -121 17l23 158q41 -15 82 -15q57 0 88 34.5t47 104.5l39 162zM319 1169l185 295h172l-219 -295h-138z" />
<glyph unicode="&#xfe;" horiz-adv-x="983" d="M150 -492v2040h169v-680h5q27 93 83 144t156 51q153 0 240.5 -154.5t87.5 -398.5q0 -245 -85.5 -395t-242.5 -150q-88 0 -149.5 51t-85.5 134h-4v-642h-174zM319 516q0 -174 52 -285.5t147 -111.5q65 0 109.5 54t64 141t19.5 202q0 114 -19.5 201t-64 140.5t-109.5 53.5 q-96 0 -147.5 -110.5t-51.5 -284.5z" />
<glyph unicode="&#xff;" horiz-adv-x="811" d="M29 1028h184l203 -823h4l184 823h178l-317 -1214q-40 -153 -105 -229.5t-186 -76.5q-64 0 -121 17l23 158q41 -15 82 -15q57 0 88 34.5t47 104.5l39 162zM164 1331q0 45 27.5 77t70.5 32q41 0 70.5 -32.5t29.5 -76.5q0 -46 -29 -76t-71 -30q-44 0 -71 29.5t-27 76.5z M477 1331q0 44 30 76.5t71 32.5q42 0 70 -32t28 -77q0 -47 -28 -76.5t-70 -29.5t-71.5 30t-29.5 76z" />
<glyph unicode="&#x152;" horiz-adv-x="1400" d="M96 727q0 349 142.5 536t402.5 187h659v-164h-411v-457h383v-153h-383v-510h430v-166h-678q-260 0 -402.5 187.5t-142.5 539.5zM283 727q0 -277 99.5 -421t260.5 -144h72v1126h-72q-161 0 -260.5 -144t-99.5 -417z" />
<glyph unicode="&#x153;" horiz-adv-x="1456" d="M92 512q0 251 99 401t274 150q98 0 173.5 -50.5t113.5 -142.5q36 89 106.5 141t165.5 52q92 0 160 -39t108 -109.5t59 -160.5t19 -201v-84h-545q0 -154 54 -251t153 -97q116 0 176 145l131 -76q-44 -104 -122 -164.5t-191 -60.5q-201 0 -281 187q-79 -187 -280 -187 q-172 0 -272.5 150t-100.5 397zM272 514q0 -176 49 -285.5t144 -109.5q50 0 88 30.5t60.5 84.5t34 124.5t11.5 155.5q0 115 -20.5 202.5t-65 141t-108.5 53.5q-95 0 -144 -110t-49 -287zM829 610h365q0 141 -43 221t-131 80q-48 0 -87 -31t-60.5 -79t-32.5 -97.5t-11 -93.5z " />
<glyph unicode="&#x178;" horiz-adv-x="894" d="M-6 1450h201l251 -682l259 682h196l-364 -870v-580h-183v580zM190 1718q0 45 28 77t71 32q41 0 70.5 -32.5t29.5 -76.5q0 -46 -29 -76t-71 -30q-44 0 -71.5 29.5t-27.5 76.5zM504 1718q0 44 29.5 76.5t70.5 32.5q42 0 70 -32t28 -77q0 -47 -28 -76.5t-70 -29.5t-71 30 t-29 76z" />
<glyph unicode="&#x2c6;" horiz-adv-x="481" d="M-55 1169l215 295h164l213 -295h-152l-145 207l-146 -207h-149z" />
<glyph unicode="&#x2dc;" horiz-adv-x="481" d="M-47 1194q6 100 48.5 158.5t109.5 58.5q35 0 63.5 -10.5t71.5 -38.5q48 -30 69 -38.5t45 -8.5q32 0 47 22t21 74h90q-6 -103 -48 -160t-110 -57q-35 0 -63 10.5t-70 38.5q-44 30 -64.5 37.5t-47.5 7.5q-58 0 -70 -94h-92z" />
<glyph unicode="&#x2000;" horiz-adv-x="978" />
<glyph unicode="&#x2001;" horiz-adv-x="1956" />
<glyph unicode="&#x2002;" horiz-adv-x="978" />
<glyph unicode="&#x2003;" horiz-adv-x="1956" />
<glyph unicode="&#x2004;" horiz-adv-x="652" />
<glyph unicode="&#x2005;" horiz-adv-x="489" />
<glyph unicode="&#x2006;" horiz-adv-x="326" />
<glyph unicode="&#x2007;" horiz-adv-x="326" />
<glyph unicode="&#x2008;" horiz-adv-x="244" />
<glyph unicode="&#x2009;" horiz-adv-x="391" />
<glyph unicode="&#x200a;" horiz-adv-x="108" />
<glyph unicode="&#x2010;" horiz-adv-x="471" d="M74 473v141h323v-141h-323z" />
<glyph unicode="&#x2011;" horiz-adv-x="471" d="M74 473v141h323v-141h-323z" />
<glyph unicode="&#x2012;" horiz-adv-x="471" d="M74 473v141h323v-141h-323z" />
<glyph unicode="&#x2013;" horiz-adv-x="737" d="M49 469v145h639v-145h-639z" />
<glyph unicode="&#x2014;" horiz-adv-x="942" d="M49 469v145h844v-145h-844z" />
<glyph unicode="&#x2018;" horiz-adv-x="405" d="M82 954l111 496h131l-91 -496h-151z" />
<glyph unicode="&#x2019;" horiz-adv-x="405" d="M82 954l90 496h152l-111 -496h-131z" />
<glyph unicode="&#x201a;" horiz-adv-x="405" d="M82 -260l90 496h152l-109 -496h-133z" />
<glyph unicode="&#x201c;" horiz-adv-x="686" d="M82 954l111 496h131l-91 -496h-151zM362 954l109 496h133l-90 -496h-152z" />
<glyph unicode="&#x201d;" horiz-adv-x="681" d="M82 954l90 496h152l-109 -496h-133zM358 954l91 496h151l-108 -496h-134z" />
<glyph unicode="&#x201e;" horiz-adv-x="681" d="M82 -260l90 496h152l-109 -496h-133zM358 -260l91 496h151l-108 -496h-134z" />
<glyph unicode="&#x2022;" horiz-adv-x="1024" d="M150 725q0 151 105.5 256.5t256.5 105.5t256.5 -105.5t105.5 -256.5t-105.5 -257t-256.5 -106t-256.5 106t-105.5 257z" />
<glyph unicode="&#x2026;" horiz-adv-x="1843" d="M193 109q0 52 32.5 88t81.5 36t83 -36.5t34 -87.5q0 -54 -33.5 -88.5t-83.5 -34.5t-82 34.5t-32 88.5zM807 109q0 52 33 88t82 36t82.5 -36.5t33.5 -87.5q0 -54 -33 -88.5t-83 -34.5t-82.5 34.5t-32.5 88.5zM1421 109q0 52 33 88t82 36t83 -36.5t34 -87.5 q0 -54 -33.5 -88.5t-83.5 -34.5t-82.5 34.5t-32.5 88.5z" />
<glyph unicode="&#x202f;" horiz-adv-x="391" />
<glyph unicode="&#x2039;" horiz-adv-x="458" d="M70 516l211 442l106 -57l-180 -385l180 -387l-106 -57z" />
<glyph unicode="&#x203a;" horiz-adv-x="458" d="M70 129l180 387l-180 385l106 57l211 -442l-211 -444z" />
<glyph unicode="&#x205f;" horiz-adv-x="489" />
<glyph unicode="&#x20ac;" d="M51 496l29 122h96q-4 62 -4 101q0 82 6 117h-123l27 122h108q50 260 185 393.5t336 133.5q137 0 221 -41l-41 -144q-68 35 -174 35q-132 0 -221 -97t-121 -280h442l-31 -122h-434q-8 -44 -8 -117q0 -39 4 -101h402l-29 -122h-356q25 -176 115 -275.5t220 -99.5 q118 0 199 51l27 -149q-101 -58 -244 -58q-204 0 -331 144t-165 387h-135z" />
<glyph unicode="&#x2122;" horiz-adv-x="1556" d="M82 1327v123h481v-123h-172v-721h-137v721h-172zM674 606v844h186l176 -631l181 631h184v-844h-123v658h-2l-193 -658h-100l-186 658h-4v-658h-119z" />
<glyph unicode="&#x25fc;" horiz-adv-x="1024" d="M0 0v1024h1024v-1024h-1024z" />
<glyph unicode="&#xfb01;" d="M29 887v141h133v189q0 169 70.5 268.5t216.5 99.5q54 0 92 -14l-13 -144q-33 11 -59 11q-137 0 -137 -224v-186h168v-141h-166v-887h-172v887h-133zM641 1333q0 50 31 83.5t78 33.5t77.5 -33.5t30.5 -83.5t-31.5 -83t-76.5 -33q-47 0 -78 32.5t-31 83.5zM662 0v1028h174 v-1028h-174z" />
<glyph unicode="&#xfb02;" d="M29 887v141h133v189q0 169 70.5 268.5t216.5 99.5q54 0 92 -14l-13 -144q-33 11 -59 11q-137 0 -137 -224v-186h168v-141h-166v-887h-172v887h-133zM662 0v1548h176v-1548h-176z" />
</font>
</defs>
</svg>
