<?xml version="1.0" standalone="no"?>
<!DOCTYPE svg PUBLIC "-//W3C//DTD SVG 1.1//EN" "http://www.w3.org/Graphics/SVG/1.1/DTD/svg11.dtd" >
<svg xmlns="http://www.w3.org/2000/svg">
<metadata></metadata>
<defs>
<font id="bigotesmedium" horiz-adv-x="1218" >
<font-face units-per-em="2048" ascent="1638" descent="-410" />
<missing-glyph horiz-adv-x="512" />
<glyph horiz-adv-x="1024" />
<glyph horiz-adv-x="1024" />
<glyph horiz-adv-x="682" />
<glyph unicode="&#xd;" horiz-adv-x="0" />
<glyph unicode=" "  horiz-adv-x="512" />
<glyph unicode="&#x09;" horiz-adv-x="512" />
<glyph unicode="&#xa0;" horiz-adv-x="512" />
<glyph unicode="!" horiz-adv-x="684" d="M205 121q0 56 39 95.5t98 39.5t98 -38.5t39 -94.5q0 -55 -39 -95t-98 -40q-57 0 -97 39.5t-40 93.5zM240 424v1026h202v-1026h-202z" />
<glyph unicode="&#x22;" horiz-adv-x="866" d="M184 938v512h168v-512h-168zM514 938v512h168v-512h-168z" />
<glyph unicode="#" horiz-adv-x="1175" d="M84 432v150h217l39 288h-201v150h223l60 430h153l-61 -430h242l59 430h154l-62 -430h185v-150h-205l-41 -288h190v-150h-209l-61 -432h-154l62 432h-242l-61 -432h-152l62 432h-197zM453 582h241l39 288h-239z" />
<glyph unicode="$" d="M84 180l149 127q51 -74 142 -120t166 -46v521q-89 25 -156 55t-128.5 77.5t-94.5 118.5t-33 162q0 173 120 281.5t292 116.5v143h104v-141q112 -2 220.5 -41.5t183.5 -114.5l-140 -129q-46 58 -117.5 89.5t-146.5 33.5v-488q52 -18 90 -32.5t85.5 -37.5t80.5 -46 t67.5 -56.5t55.5 -71t34 -86.5t13 -106q0 -125 -59 -219t-154.5 -142t-212.5 -51v-147h-104v147q-136 4 -253 56.5t-204 146.5zM324 1087q0 -92 55.5 -145.5t161.5 -85.5v457q-94 -6 -155.5 -66.5t-61.5 -159.5zM645 141q97 5 163 68t66 178q0 171 -229 246v-492z" />
<glyph unicode="%" horiz-adv-x="1781" d="M84 1112q0 151 105.5 257t256.5 106t257 -106t106 -257t-106 -256.5t-257 -105.5t-256.5 105.5t-105.5 256.5zM254 1112q0 -80 56 -136t136 -56t136.5 56.5t56.5 135.5q0 80 -56.5 136.5t-136.5 56.5q-79 0 -135.5 -56.5t-56.5 -136.5zM379 2l889 1514l137 -68 l-887 -1514zM973 338q0 151 105.5 256.5t256.5 105.5t257 -105.5t106 -256.5t-106 -257t-257 -106t-256.5 106t-105.5 257zM1143 338q0 -80 56.5 -136.5t135.5 -56.5t136 56.5t57 136.5q0 79 -56.5 135.5t-136.5 56.5q-79 0 -135.5 -56t-56.5 -136z" />
<glyph unicode="&#x26;" horiz-adv-x="1480" d="M98 385q0 267 326 420q-79 82 -122.5 161.5t-43.5 170.5q0 86 31.5 154t86 110t123 64t146.5 22q159 0 267 -90t108 -250q0 -239 -311 -383l288 -297l183 307h225l-279 -432l332 -342h-268l-180 190q-86 -108 -190.5 -162.5t-250.5 -54.5q-130 0 -235 46t-170.5 141.5 t-65.5 224.5zM303 389q0 -113 80.5 -182.5t189.5 -69.5q102 0 174 44.5t134 137.5l-344 361q-113 -47 -173.5 -116.5t-60.5 -174.5zM453 1135q0 -63 43 -132t100 -120q50 23 89 47t74.5 55.5t55 71.5t19.5 86q0 79 -53 131.5t-134 52.5q-85 0 -139.5 -53t-54.5 -139z" />
<glyph unicode="'" horiz-adv-x="536" d="M184 938v512h168v-512h-168z" />
<glyph unicode="(" horiz-adv-x="645" d="M70 590q0 251 80 486.5t219 424.5l139 -90q-124 -170 -194 -384.5t-70 -436.5t70 -436.5t194 -384.5l-139 -91q-139 189 -219 425t-80 487z" />
<glyph unicode=")" horiz-adv-x="645" d="M137 -231q124 170 194 384.5t70 436.5t-70 436.5t-194 384.5l139 90q139 -189 219 -424.5t80 -486.5t-80 -487t-219 -425z" />
<glyph unicode="*" horiz-adv-x="929" d="M57 1114l56 156l260 -84v264h164v-264l260 84l55 -156l-260 -84l166 -223l-131 -98l-172 231l-172 -231l-131 98l165 223z" />
<glyph unicode="+" horiz-adv-x="1363" d="M143 537v168h455v454h168v-454h455v-168h-455v-455h-168v455h-455z" />
<glyph unicode="," horiz-adv-x="532" d="M70 -272l141 512h192l-170 -512h-163z" />
<glyph unicode="-" horiz-adv-x="655" d="M90 418v164h475v-164h-475z" />
<glyph unicode="." horiz-adv-x="532" d="M129 121q0 56 39 95.5t98 39.5t98 -38.5t39 -94.5q0 -55 -39 -95t-98 -40q-57 0 -97 39.5t-40 93.5z" />
<glyph unicode="/" horiz-adv-x="778" d="M-4 -18l629 1538l145 -54l-629 -1534z" />
<glyph unicode="0" d="M115 725q0 162 29.5 297.5t88 241t155 164.5t222.5 59q125 0 221.5 -59t155 -164t88 -241t29.5 -298q0 -163 -29.5 -298.5t-88 -240.5t-155 -164t-221.5 -59q-126 0 -222.5 59t-155 164t-88 240.5t-29.5 298.5zM317 725q0 -81 7 -157t27 -158t51.5 -141.5t85 -98.5 t122.5 -39q57 0 103.5 26.5t77 73.5t53 104.5t34.5 126.5t17.5 133t5.5 130q0 81 -7.5 157.5t-27.5 158t-51.5 142t-84 99.5t-120.5 39q-69 0 -122.5 -39t-85 -99t-51.5 -142.5t-27 -158.5t-7 -157z" />
<glyph unicode="1" d="M186 1116l412 334h178v-1450h-198v1208l-275 -229z" />
<glyph unicode="2" d="M123 0v190l577 574q76 74 118 147.5t42 159.5q0 113 -74.5 181.5t-183.5 68.5q-108 0 -180.5 -69.5t-91.5 -182.5l-195 33q25 168 155 276.5t314 108.5q123 0 225.5 -45.5t168 -141t65.5 -225.5q0 -128 -60 -228t-174 -210l-471 -459h711v-178h-946z" />
<glyph unicode="3" d="M82 283l184 61q33 -97 113 -155t192 -58q76 0 140.5 30t107.5 94.5t43 152.5q0 73 -32 127t-86 83.5t-115.5 43.5t-130.5 14h-62v164h64q66 0 120.5 11.5t102 38t74 75t26.5 116.5q0 106 -75 173t-181 67q-91 0 -156 -46t-98 -132l-180 63q54 131 171.5 206t270.5 75 q189 0 318 -104.5t129 -288.5q0 -119 -72 -209.5t-184 -120.5v-4q130 -25 212.5 -121t82.5 -233q0 -105 -41 -190.5t-109.5 -140t-155 -83.5t-180.5 -29q-177 0 -306 80t-187 240z" />
<glyph unicode="4" d="M63 326v180l617 944h244v-954h209v-170h-209v-326h-193v326h-668zM268 496h463v727h-4z" />
<glyph unicode="5" d="M96 254l180 72q36 -89 111 -142t172 -53q129 0 216 86.5t87 224.5q0 80 -27.5 142.5t-75.5 100t-108 56.5t-129 19q-80 0 -166 -22t-155 -58l20 770h783v-176h-598l-13 -381q82 27 187 27q213 0 349 -124.5t136 -332.5q0 -224 -143.5 -362t-362.5 -138q-166 0 -283.5 77 t-179.5 214z" />
<glyph unicode="6" d="M106 440q0 110 35.5 205t106.5 207l379 598h235l-389 -584l2 -4q64 39 180 39q192 0 322.5 -129.5t130.5 -325.5q0 -214 -142 -348.5t-358 -134.5q-217 0 -359.5 135.5t-142.5 341.5zM307 438q0 -130 84 -218.5t217 -88.5t216 86.5t83 222.5q0 132 -82 217.5t-215 85.5 q-136 0 -219.5 -85.5t-83.5 -219.5z" />
<glyph unicode="7" d="M131 1274v176h924v-180l-582 -1270h-227l604 1274h-719z" />
<glyph unicode="8" d="M123 395q0 140 77.5 236.5t196.5 132.5v4q-101 36 -162 121t-61 203q0 176 126.5 285.5t309.5 109.5q119 0 217.5 -47t157.5 -137t59 -207t-61.5 -206t-161.5 -122v-4q119 -30 197 -131.5t78 -237.5q0 -99 -39 -181t-105.5 -136.5t-155 -84.5t-186.5 -30q-99 0 -187.5 30 t-155 84.5t-105.5 136.5t-39 181zM326 406q0 -123 78.5 -200t205.5 -77q124 0 203.5 77.5t79.5 199.5q0 119 -80 196.5t-203 77.5t-203.5 -77.5t-80.5 -196.5zM373 1085q0 -99 67 -167t170 -68q99 0 168.5 68.5t69.5 166.5q0 103 -69.5 170.5t-168.5 67.5q-104 0 -170.5 -67 t-66.5 -171z" />
<glyph unicode="9" d="M111 1004q0 142 65 252.5t179 170.5t257 60q215 0 357.5 -136t142.5 -341q0 -111 -35 -207.5t-104 -204.5l-379 -598h-236l390 586l-3 2q-34 -21 -83 -29q-55 -10 -99 -10q-192 0 -322 129t-130 326zM311 1010q0 -132 82.5 -217.5t216.5 -85.5q136 0 219.5 85.5 t83.5 219.5q0 130 -84 219.5t-217 89.5q-134 0 -217.5 -87.5t-83.5 -223.5z" />
<glyph unicode=":" horiz-adv-x="614" d="M170 121q0 56 39 95.5t98 39.5t98 -38.5t39 -94.5q0 -55 -39 -95t-98 -40q-57 0 -97 39.5t-40 93.5zM170 848q0 55 39 95t98 40t98 -39t39 -94q0 -56 -39 -95.5t-98 -39.5q-57 0 -97 39t-40 94z" />
<glyph unicode=";" horiz-adv-x="614" d="M88 -272l141 512h193l-170 -512h-164zM170 848q0 55 39 95t98 40t98 -39t39 -94q0 -56 -39 -95.5t-98 -39.5q-57 0 -97 39t-40 94z" />
<glyph unicode="&#x3c;" horiz-adv-x="1363" d="M162 559v123l1044 473v-174l-788 -360l784 -361v-174z" />
<glyph unicode="=" horiz-adv-x="1363" d="M143 369v166h1078v-166h-1078zM143 707v165h1078v-165h-1078z" />
<glyph unicode="&#x3e;" horiz-adv-x="1363" d="M162 86v174l784 361l-784 360v174l1040 -473v-123z" />
<glyph unicode="?" horiz-adv-x="1024" d="M98 1102q24 176 147 277.5t298 101.5q115 0 208 -42.5t150 -130t57 -206.5q0 -52 -10 -95.5t-24.5 -74.5t-43 -65t-52.5 -56.5t-66 -58.5q-89 -75 -117.5 -124t-28.5 -145v-71h-192v98q0 101 35.5 165.5t113.5 139.5l76 72q52 48 78.5 93t26.5 110q0 97 -62.5 156 t-161.5 59t-161.5 -64t-73.5 -162zM393 121q0 56 39 95.5t98 39.5t98.5 -38.5t39.5 -94.5q0 -55 -39.5 -95t-98.5 -40q-57 0 -97 39.5t-40 93.5z" />
<glyph unicode="@" horiz-adv-x="1638" d="M68 723q0 213 105 389t284.5 275.5t392.5 99.5q113 0 218.5 -25.5t198 -79.5t161 -130.5t108 -185.5t39.5 -237q0 -120 -32.5 -217t-88.5 -158t-127.5 -93.5t-152.5 -32.5q-84 0 -131.5 40.5t-47.5 102.5h-10q-30 -55 -97 -99t-155 -44q-137 0 -216 92t-79 242 q0 87 29.5 170t81 148t129 104.5t166.5 39.5q76 0 132 -32.5t75 -83.5h4l18 86h156l-80 -385q-21 -102 -21 -146q0 -43 16.5 -67.5t65.5 -24.5q90 0 147.5 96t57.5 246q0 251 -156 388.5t-411 137.5q-177 0 -315 -81.5t-212.5 -222.5t-74.5 -316q0 -276 172 -442t448 -166 q167 0 294.5 52t236.5 154l94 -108q-234 -246 -641 -246q-231 0 -409.5 97t-275.5 270t-97 393zM618 655q0 -24 3.5 -47t14 -48t26 -44t42.5 -31t62 -12q48 0 88 20.5t65.5 53t43 74.5t25 82.5t7.5 78.5q0 53 -12 94.5t-47.5 72t-91.5 30.5q-70 0 -123 -51t-78 -123.5 t-25 -149.5z" />
<glyph unicode="A" horiz-adv-x="1456" d="M10 0l629 1450h184l623 -1450h-229l-148 356h-688l-145 -356h-226zM453 535h542l-270 679z" />
<glyph unicode="B" horiz-adv-x="1314" d="M176 0v1450h500q69 0 132 -11.5t123 -38.5t103 -68t69.5 -105t26.5 -144q0 -119 -67.5 -201.5t-185.5 -113.5v-4q145 -18 233 -110.5t88 -241.5q0 -102 -42.5 -181.5t-117.5 -129.5t-172.5 -75.5t-212.5 -25.5h-477zM379 172h254q55 0 104 7t97 24.5t82.5 45t55.5 72 t21 101.5q0 126 -86 185t-256 59h-272v-494zM379 838h264q125 0 205 57t80 168q0 217 -318 217h-231v-442z" />
<glyph unicode="C" horiz-adv-x="1449" d="M102 727q0 167 58.5 309.5t161.5 241t245.5 154t306.5 55.5q156 0 299 -59t222 -166l-160 -123q-55 75 -153 122.5t-208 47.5q-163 0 -290 -79.5t-193.5 -211.5t-66.5 -291q0 -164 65 -296t190 -210t289 -78q123 0 223 49.5t166 143.5l162 -111q-91 -123 -229.5 -192.5 t-323.5 -69.5q-219 0 -393 96.5t-272.5 271.5t-98.5 396z" />
<glyph unicode="D" horiz-adv-x="1558" d="M176 0v1450h498q115 0 224 -25.5t211 -82.5t178.5 -139.5t122.5 -205.5t46 -272q0 -144 -46 -265.5t-122.5 -204.5t-178 -142t-211.5 -86t-224 -27h-498zM379 178h254q177 0 313 64t214.5 189t78.5 294q0 132 -45 236.5t-126 172.5t-191.5 104t-243.5 36h-254v-1096z" />
<glyph unicode="E" horiz-adv-x="1230" d="M176 0v1450h930v-178h-727v-434h684v-174h-684v-484h758v-180h-961z" />
<glyph unicode="F" horiz-adv-x="1163" d="M176 0v1450h905v-178h-702v-451h657v-174h-657v-647h-203z" />
<glyph unicode="G" horiz-adv-x="1593" d="M102 727q0 167 58.5 309.5t161.5 241t245.5 154t306.5 55.5q169 0 306 -50t231 -139l-141 -147q-68 74 -169.5 116t-223.5 42q-124 0 -228.5 -46.5t-175 -125.5t-110 -185t-39.5 -225q0 -121 39 -227.5t110 -185t177 -124t233 -45.5q209 0 338 72v404h-322v172h522v-703 q-239 -127 -544 -127q-168 0 -312 56.5t-246 156.5t-159.5 242.5t-57.5 308.5z" />
<glyph unicode="H" horiz-adv-x="1492" d="M176 0v1450h203v-606h733v606h205v-1450h-205v664h-733v-664h-203z" />
<glyph unicode="I" horiz-adv-x="555" d="M176 0v1450h203v-1450h-203z" />
<glyph unicode="J" horiz-adv-x="1013" d="M31 270l188 54q18 -80 73.5 -130.5t135.5 -50.5q219 0 219 310v997h203v-1006q0 -66 -10 -127.5t-38 -128t-72 -114.5t-119 -79.5t-173 -31.5q-161 0 -267.5 84t-139.5 223z" />
<glyph unicode="K" horiz-adv-x="1349" d="M176 0v1450h203v-639h4l647 639h281l-705 -664l748 -786h-291l-680 750h-4v-750h-203z" />
<glyph unicode="L" horiz-adv-x="1046" d="M176 0v1450h203v-1270h647v-180h-850z" />
<glyph unicode="M" horiz-adv-x="1849" d="M176 0v1450h316l434 -1114h4l428 1114h315v-1450h-203v1212h-4l-481 -1212h-129l-479 1212h-4v-1212h-197z" />
<glyph unicode="N" horiz-adv-x="1581" d="M176 0v1450h264l758 -1159h4v1159h203v-1450h-256l-766 1184h-4v-1184h-203z" />
<glyph unicode="O" horiz-adv-x="1738" d="M102 727q0 167 58 309.5t159 241t243 154t306 55.5t306.5 -55.5t244.5 -154t160.5 -241t58.5 -309.5q0 -221 -100 -396t-275.5 -271.5t-394.5 -96.5t-393.5 96.5t-273.5 271.5t-99 396zM322 727q0 -162 66.5 -294t192 -210t287.5 -78q123 0 227.5 45.5t174.5 124 t109.5 185t39.5 227.5q0 119 -39.5 225t-109.5 185t-174.5 125.5t-227.5 46.5q-162 0 -288 -79.5t-192 -211.5t-66 -291z" />
<glyph unicode="P" d="M176 0v1450h442q245 0 382 -99t137 -304q0 -106 -39.5 -185.5t-111.5 -128t-167 -72.5t-211 -24h-229v-637h-203zM379 809h215q158 0 248 57.5t90 180.5q0 231 -334 231h-219v-469z" />
<glyph unicode="Q" horiz-adv-x="1732" d="M102 743q0 214 98 384t270.5 265t387.5 95q214 0 385 -95t268 -265t97 -384q0 -190 -79.5 -335.5t-219.5 -233.5v-4h399v-170h-852q-220 0 -391 91t-267 260.5t-96 391.5zM322 743q0 -118 38 -222t106.5 -179.5t169 -119.5t220.5 -44q156 0 279 75t189.5 203.5 t66.5 286.5q0 155 -64 283t-187 205.5t-282 77.5q-119 0 -220.5 -45t-170 -122t-107 -180.5t-38.5 -218.5z" />
<glyph unicode="R" horiz-adv-x="1257" d="M176 0v1450h465q110 0 200 -22t162.5 -67.5t113 -125t40.5 -186.5q0 -156 -96 -256t-256 -127l405 -666h-245l-369 645h-217v-645h-203zM379 815h233q99 0 172.5 22t120.5 75.5t47 136.5q0 51 -17.5 90.5t-47 65.5t-71.5 42.5t-88.5 23.5t-100.5 7h-248v-463z" />
<glyph unicode="S" horiz-adv-x="1165" d="M76 174l157 133q52 -77 139 -123.5t185 -46.5q72 0 136 25t109.5 83.5t45.5 139.5q0 29 -6.5 54.5t-15 45.5t-27 39t-33 32t-43 27.5t-47 23t-55 21.5t-56.5 19t-61 19q-64 20 -111.5 39t-100.5 53t-86.5 74.5t-56 102.5t-22.5 138q0 84 29 154t77 117t113 80t135 48 t144 15q126 0 236 -45t179 -121l-143 -139q-44 62 -118.5 98.5t-164.5 36.5q-51 0 -99.5 -14t-90 -42t-67 -74.5t-25.5 -105.5q0 -29 5 -54t19 -46t26 -36.5t38 -31t42 -24.5t52 -22.5t54 -19.5t61 -20q41 -13 67 -21.5t66 -23.5t65.5 -28.5t59.5 -34t55.5 -41.5t45 -50.5 t37 -62t22 -74t8.5 -88.5q0 -109 -42 -195t-113 -138.5t-159.5 -79.5t-187.5 -27q-140 0 -267 54.5t-210 156.5z" />
<glyph unicode="T" horiz-adv-x="1165" d="M16 1272v178h1133v-178h-465v-1272h-203v1272h-465z" />
<glyph unicode="U" horiz-adv-x="1458" d="M166 537v913h203v-901q0 -62 11 -118.5t38 -109.5t67.5 -91.5t103 -61.5t140.5 -23q97 0 169.5 34.5t113 93.5t59.5 128t19 148v901h202v-913q0 -90 -21 -173t-66.5 -156.5t-110.5 -127.5t-159 -85.5t-206 -31.5t-206 31.5t-159 85.5t-110.5 127.5t-66.5 156.5t-21 173z " />
<glyph unicode="V" horiz-adv-x="1314" d="M-4 1450h225l436 -1188h7l436 1188h219l-569 -1450h-189z" />
<glyph unicode="W" horiz-adv-x="2023" d="M20 1450h220l319 -1155h4l340 1155h223l338 -1155h4l320 1155h215l-426 -1450h-211l-352 1165h-4l-353 -1165h-211z" />
<glyph unicode="X" horiz-adv-x="1368" d="M37 0l518 768l-467 682h248l348 -541l344 541h238l-463 -686l526 -764h-256l-397 610l-389 -610h-250z" />
<glyph unicode="Y" horiz-adv-x="1277" d="M-6 1450h250l401 -655l404 655h235l-543 -823v-627h-204v627z" />
<glyph unicode="Z" horiz-adv-x="1212" d="M68 0v178l817 1094h-801v178h1049v-178l-820 -1092h832v-180h-1077z" />
<glyph unicode="[" horiz-adv-x="645" d="M121 -319v1818h362v-135h-190v-1548h190v-135h-362z" />
<glyph unicode="\" horiz-adv-x="778" d="M8 1466l144 54l630 -1538l-145 -50z" />
<glyph unicode="]" horiz-adv-x="645" d="M162 -184h190v1548h-190v135h362v-1818h-362v135z" />
<glyph unicode="^" horiz-adv-x="1363" d="M152 633l462 817h136l462 -817h-186l-346 614l-342 -614h-186z" />
<glyph unicode="_" horiz-adv-x="1024" d="M0 -154h1024v-129h-1024v129z" />
<glyph unicode="`" horiz-adv-x="512" d="M-70 1450h232l205 -295h-158z" />
<glyph unicode="a" horiz-adv-x="1110" d="M94 274q0 61 21 110t55 83t87 59t108.5 39.5t127.5 23t135.5 11t141.5 2.5v27q0 106 -64 159.5t-176 53.5q-79 0 -152 -31t-124 -82l-102 123q73 68 176.5 106.5t220.5 38.5q200 0 302.5 -106t102.5 -275v-423q0 -123 15 -193h-174q-17 80 -17 139h-6 q-114 -164 -326 -164q-49 0 -96 9.5t-94 32t-82.5 55.5t-57.5 85.5t-22 116.5zM291 279q0 -79 57.5 -115.5t140.5 -36.5q132 0 206.5 79.5t74.5 205.5v51h-47q-66 0 -119 -3t-114 -14.5t-102.5 -30.5t-69 -54t-27.5 -82z" />
<glyph unicode="b" horiz-adv-x="1302" d="M170 0v1548h192v-723h7q53 77 142 124.5t204 47.5q214 0 349.5 -146t135.5 -364q0 -144 -59 -260t-171.5 -185t-258.5 -69q-106 0 -200.5 47.5t-150.5 133.5h-4v-154h-186zM350 485q0 -144 92 -247t236 -103q102 0 177 51t110.5 129.5t35.5 171.5q0 94 -35.5 172 t-110.5 128.5t-177 50.5q-144 0 -236 -104.5t-92 -248.5z" />
<glyph unicode="c" horiz-adv-x="1011" d="M102 485q0 227 147 369.5t372 142.5q107 0 206.5 -41.5t157.5 -117.5l-139 -113q-31 48 -93 79.5t-130 31.5q-145 0 -231.5 -102.5t-86.5 -248.5t86.5 -248t233.5 -102q73 0 133.5 28.5t99.5 78.5l129 -117q-130 -152 -362 -152q-227 0 -375 141.5t-148 370.5z" />
<glyph unicode="d" horiz-adv-x="1300" d="M100 487q0 218 136.5 364t351.5 146q113 0 202.5 -47.5t143.5 -124.5h4v723h192v-1548h-186v154h-4q-54 -86 -148.5 -133.5t-201.5 -47.5q-146 0 -258.5 68.5t-172 185t-59.5 260.5zM301 487q0 -144 86 -248t236 -104q144 0 235.5 103t91.5 247t-91.5 248.5t-235.5 104.5 q-101 0 -176 -50.5t-110.5 -129t-35.5 -171.5z" />
<glyph unicode="e" horiz-adv-x="1173" d="M102 483q0 226 142.5 370t359.5 144q216 0 341.5 -135t125.5 -368q0 -43 -2 -66h-770q4 -124 95.5 -209.5t219.5 -85.5q93 0 166 41t117 107l135 -109q-151 -199 -418 -199q-223 0 -367.5 141.5t-144.5 368.5zM299 571h578q-5 122 -74.5 198.5t-198.5 76.5 q-122 0 -209.5 -79.5t-95.5 -195.5z" />
<glyph unicode="f" horiz-adv-x="634" d="M12 813v158h193v203q0 88 20 158.5t62 125.5t113 85t167 30q72 0 121 -14l-22 -166q-54 14 -97 14q-53 0 -88.5 -18.5t-53 -53.5t-24 -72.5t-6.5 -88.5v-203h226v-158h-226v-813h-192v813h-193z" />
<glyph unicode="g" horiz-adv-x="1294" d="M102 492q0 104 35 196.5t98 160.5t155 108t200 40q109 0 202.5 -46.5t147.5 -135.5h4v156h186v-922q0 -112 -28 -205t-88 -170.5t-167 -121.5t-253 -44q-129 0 -256.5 46.5t-218.5 130.5l123 149q63 -72 159 -115t195 -43q181 0 261.5 97t80.5 262v125h-4 q-53 -80 -144.5 -124t-197.5 -44q-145 0 -257.5 67t-172.5 180.5t-60 252.5zM301 496q0 -140 88 -241t234 -101t237.5 98t91.5 244q0 142 -92.5 242t-236.5 100q-147 0 -234.5 -98.5t-87.5 -243.5z" />
<glyph unicode="h" horiz-adv-x="1196" d="M170 0v1548h192v-725h5q36 74 121 124t186 50q91 0 161.5 -31t113.5 -85.5t65 -125t22 -153.5v-602h-192v537q0 50 -5.5 91t-20.5 80.5t-39 66t-63 43t-91 16.5q-117 0 -190 -87.5t-73 -232.5v-514h-192z" />
<glyph unicode="i" horiz-adv-x="530" d="M137 1321q0 54 36.5 89.5t90.5 35.5t91.5 -35.5t37.5 -89.5q0 -53 -37 -88t-92 -35q-54 0 -90.5 36t-36.5 87zM168 0v971h192v-971h-192z" />
<glyph unicode="j" horiz-adv-x="532" d="M-63 -479l20 164q50 -11 78 -11q42 0 69.5 15.5t41.5 45.5t19 64t5 82v1090h192v-1096q0 -79 -14 -140.5t-47 -115t-97.5 -82.5t-156.5 -29q-43 0 -110 13zM137 1321q0 54 37.5 89.5t91.5 35.5t91.5 -35.5t37.5 -89.5q0 -53 -37 -88t-92 -35q-54 0 -91.5 36t-37.5 87z " />
<glyph unicode="k" horiz-adv-x="1079" d="M170 0v1548h192v-999h7l407 422h258l-454 -441l493 -530h-266l-438 504h-7v-504h-192z" />
<glyph unicode="l" horiz-adv-x="532" d="M170 0v1548h192v-1548h-192z" />
<glyph unicode="m" horiz-adv-x="1816" d="M158 971h182q8 -65 8 -160h6q38 82 121 134t189 52q219 0 301 -194q49 93 136 143.5t193 50.5q121 0 204.5 -54.5t121 -141.5t37.5 -199v-602h-193v539q0 297 -215 297q-63 0 -112 -27t-77 -72.5t-42 -99.5t-14 -113v-524h-193v578q0 258 -205 258q-108 0 -178 -88 t-70 -232v-516h-192v762q0 125 -8 209z" />
<glyph unicode="n" horiz-adv-x="1191" d="M158 971h182q8 -65 8 -160h6q38 80 125.5 133t190.5 53q91 0 161.5 -31t113.5 -85.5t65 -125t22 -153.5v-602h-192v539q0 63 -10 113t-33.5 93.5t-68.5 67t-110 23.5q-116 0 -188 -87.5t-72 -232.5v-516h-192v762q0 125 -8 209z" />
<glyph unicode="o" horiz-adv-x="1249" d="M102 487q0 223 149.5 366.5t373.5 143.5q147 0 266.5 -64.5t188.5 -181.5t69 -264q0 -224 -150 -369t-374 -145t-373.5 145t-149.5 369zM301 487q0 -147 87.5 -249.5t236.5 -102.5t236 102.5t87 249.5t-87 249t-236 102t-236.5 -102t-87.5 -249z" />
<glyph unicode="p" horiz-adv-x="1298" d="M166 -492v1463h188v-152h6q49 81 141 129.5t210 48.5q214 0 349.5 -146t135.5 -364q0 -144 -59 -260t-171.5 -185t-258.5 -69q-105 0 -197 45.5t-145 126.5h-7v-637h-192zM346 485q0 -144 92 -247t236 -103q102 0 177 51t110.5 129.5t35.5 171.5q0 94 -35.5 172 t-110.5 128.5t-177 50.5q-144 0 -236 -104.5t-92 -248.5z" />
<glyph unicode="q" horiz-adv-x="1296" d="M100 487q0 218 136.5 364t351.5 146q115 0 207 -48.5t143 -129.5h6v152h186v-1463h-192v637h-4q-53 -81 -145.5 -126.5t-198.5 -45.5q-146 0 -258.5 68.5t-172 185t-59.5 260.5zM301 487q0 -144 86 -248t236 -104q144 0 235.5 103t91.5 247t-91.5 248.5t-235.5 104.5 q-101 0 -176 -50.5t-110.5 -129t-35.5 -171.5z" />
<glyph unicode="r" horiz-adv-x="741" d="M158 971h182q8 -65 8 -164h6q42 87 121 138.5t176 51.5q49 0 76 -8l-8 -178q-45 10 -88 10q-132 0 -202.5 -89.5t-70.5 -221.5v-510h-192v762q0 125 -8 209z" />
<glyph unicode="s" horiz-adv-x="909" d="M53 147l137 117q40 -59 110 -97t149 -38q52 0 93 12.5t70 45.5t29 83q0 63 -57.5 95.5t-196.5 66.5q-46 11 -80.5 22.5t-75 33t-66.5 48.5t-43.5 69.5t-17.5 94.5q0 99 54.5 168t135 99t177.5 30q108 0 204 -41.5t148 -117.5l-133 -113q-33 55 -93 88t-132 33 q-75 0 -127.5 -32t-52.5 -95q0 -58 51 -88.5t170 -57.5q75 -17 130 -39t101.5 -55t70 -81t23.5 -111q0 -67 -21.5 -120.5t-58 -89t-86.5 -59.5t-105 -34.5t-116 -10.5q-115 0 -219.5 44.5t-171.5 129.5z" />
<glyph unicode="t" horiz-adv-x="673" d="M6 813v158h187v278h190v-278h258v-158h-258v-506q0 -87 32.5 -125.5t104.5 -38.5q61 0 113 25l6 -158q-76 -26 -164 -26q-138 0 -210 76t-72 227v526h-187z" />
<glyph unicode="u" horiz-adv-x="1191" d="M158 369v602h192v-537q0 -64 9.5 -114t33 -94t68.5 -67.5t110 -23.5q117 0 188.5 87t71.5 233v516h193v-762q0 -125 8 -209h-182q-8 65 -8 160h-4q-38 -80 -126.5 -133.5t-191.5 -53.5q-92 0 -162.5 31t-113.5 85.5t-64.5 125t-21.5 154.5z" />
<glyph unicode="v" horiz-adv-x="1032" d="M18 971h213l285 -764h4l287 764h205l-389 -971h-209z" />
<glyph unicode="w" horiz-adv-x="1583" d="M29 971h209l219 -742h4l231 742h203l235 -742h5l219 742h202l-321 -971h-201l-239 729h-4l-238 -729h-201z" />
<glyph unicode="x" horiz-adv-x="1046" d="M14 0l389 510l-354 461h238l237 -334l240 334h225l-350 -459l391 -512h-239l-271 379l-274 -379h-232z" />
<glyph unicode="y" horiz-adv-x="1032" d="M18 971h215l302 -762h4l268 762h205l-471 -1200q-51 -132 -126.5 -197.5t-209.5 -65.5q-63 0 -127 15l18 170q56 -17 97 -17q71 0 109.5 38.5t70.5 123.5l61 162z" />
<glyph unicode="z" horiz-adv-x="946" d="M68 0v158l548 655h-522v158h764v-158l-553 -651h576v-162h-813z" />
<glyph unicode="{" horiz-adv-x="645" d="M10 514v152q67 0 109.5 45.5t42.5 138.5v385q0 133 68.5 198.5t172.5 65.5h140v-141h-105q-104 0 -104 -148v-374q0 -62 -21.5 -111t-53.5 -75.5t-61.5 -40.5t-54.5 -17v-4q20 -2 42 -9t49.5 -25.5t49 -44.5t36 -71t14.5 -100v-369q0 -147 104 -147h105v-141h-140 q-104 0 -172.5 65.5t-68.5 198.5v377q0 98 -42.5 145t-109.5 47z" />
<glyph unicode="|" horiz-adv-x="454" d="M143 -512v2048h168v-2048h-168z" />
<glyph unicode="}" horiz-adv-x="645" d="M102 -178h107q102 0 102 147v369q0 55 14.5 100t36 71t49.5 44.5t50 25.5t43 9v4q-26 3 -56 17t-62 40.5t-53.5 75.5t-21.5 111v374q0 148 -102 148h-107v141h140q104 0 172.5 -65.5t68.5 -198.5v-385q0 -93 42.5 -138.5t109.5 -45.5v-152q-67 0 -109.5 -47t-42.5 -145 v-377q0 -133 -68.5 -198.5t-172.5 -65.5h-140v141z" />
<glyph unicode="~" horiz-adv-x="1363" d="M166 586q122 200 295 200q63 0 115 -17t120 -60q77 -49 117 -64.5t86 -15.5q101 0 178 139l121 -113q-121 -198 -295 -198q-61 0 -113.5 17t-123.5 61q-75 48 -115 62.5t-86 14.5q-101 0 -178 -139z" />
<glyph unicode="&#xa1;" horiz-adv-x="684" d="M205 877q0 54 40 93.5t97 39.5q59 0 98 -40.5t39 -95.5q0 -56 -39 -94.5t-98 -38.5t-98 40t-39 96zM240 -453v1026h202v-1026h-202z" />
<glyph unicode="&#xa2;" d="M170 487q0 205 119.5 343t322.5 163v133h105v-131q219 -10 340 -153l-135 -123q-79 99 -205 108v-684q124 3 209 109l131 -123q-64 -72 -153 -110.5t-187 -43.5v-135h-105v137q-201 20 -321.5 162t-120.5 348zM360 485q0 -130 66.5 -223t185.5 -117v680 q-120 -23 -186 -116t-66 -224z" />
<glyph unicode="&#xa3;" d="M143 0v172h205v494h-198v147h198v180q0 69 14.5 135.5t49 132.5t87 115.5t134.5 80t184 30.5q206 0 338 -123l-121 -137q-39 44 -97 69t-124 25q-63 0 -111.5 -22.5t-76.5 -57t-46 -82t-24 -90t-6 -88.5v-168h340v-147h-340v-494h538v-172h-944z" />
<glyph unicode="&#xa4;" d="M41 100l176 181q-88 131 -88 290q0 156 82 285l-170 172l106 105l172 -168q134 92 293 92q164 0 291 -92l170 168l107 -105l-168 -168q88 -124 88 -289q0 -163 -92 -297l172 -174l-105 -106l-178 174q-119 -86 -285 -86q-153 0 -284 90l-181 -178zM301 571 q0 -137 86 -231t225 -94q141 0 227.5 94t86.5 231t-86.5 230.5t-227.5 93.5q-139 0 -225 -93.5t-86 -230.5z" />
<glyph unicode="&#xa5;" d="M27 1450h235l356 -602l349 602h225l-426 -662h289v-135h-348v-186h348v-135h-348v-332h-195v332h-348v135h348v186h-348v135h297z" />
<glyph unicode="&#xa6;" horiz-adv-x="454" d="M143 358h168v-716h-168v716zM143 666v716h168v-716h-168z" />
<glyph unicode="&#xa7;" d="M154 -51l170 94q33 -80 106.5 -120t159.5 -40q36 0 72 9t69 28t53.5 54t20.5 81q0 22 -3 40.5t-14.5 36t-19.5 29t-32.5 28t-38.5 25t-53 27t-59.5 28t-74.5 32.5q-64 28 -102 46.5t-85 49t-72.5 61t-43 75t-17.5 98.5q0 101 56.5 173.5t148.5 110.5q-141 90 -141 240 q0 81 34.5 145.5t91.5 104.5t127 61t146 21q128 0 226 -48.5t149 -135.5l-145 -107q-31 57 -91.5 94t-136.5 37q-84 0 -143 -42.5t-59 -117.5q0 -41 15.5 -72.5t53 -59.5t79.5 -49t114 -52q66 -28 110.5 -50.5t91.5 -54.5t74.5 -66t45.5 -81t18 -102q0 -89 -49.5 -161 t-124.5 -106q125 -82 125 -245q0 -87 -35.5 -156t-95 -111t-132.5 -64t-153 -22q-140 0 -257.5 60t-178.5 174zM379 659q0 -38 13.5 -67t44.5 -52t58 -37t78 -36l172 -74q51 19 86 61t35 99q0 41 -14 73.5t-43.5 56.5t-56 39t-68.5 34l-154 67q-60 -14 -105.5 -56 t-45.5 -108z" />
<glyph unicode="&#xa8;" horiz-adv-x="512" d="M-70 1321q0 51 36.5 88t90.5 37t90.5 -35.5t36.5 -89.5q0 -51 -36.5 -87t-90.5 -36t-90.5 37t-36.5 86zM328 1321q0 51 36.5 88t90.5 37t90.5 -35.5t36.5 -89.5q0 -51 -36.5 -87t-90.5 -36t-90.5 37t-36.5 86z" />
<glyph unicode="&#xa9;" horiz-adv-x="1638" d="M41 723q0 158 61.5 301.5t166 246.5t249 163.5t303.5 60.5q157 0 300.5 -60.5t247.5 -163.5t166 -246.5t62 -301.5q0 -210 -104.5 -387t-283 -279t-388.5 -102q-159 0 -303.5 60.5t-249 162.5t-166 244.5t-61.5 300.5zM164 723q0 -133 52.5 -253.5t140.5 -208 t209.5 -139.5t254.5 -52q177 0 327.5 87.5t238.5 238t88 327.5q0 133 -52 254.5t-139.5 209.5t-208.5 140.5t-254 52.5t-254.5 -52.5t-209.5 -140.5t-140.5 -209.5t-52.5 -254.5zM375 737q0 208 136 334.5t343 126.5q92 0 180.5 -34.5t139.5 -100.5l-119 -94 q-33 45 -88 67.5t-113 22.5q-134 0 -219.5 -92t-85.5 -230q0 -147 81.5 -236t217.5 -89q139 0 215 102l125 -88q-127 -156 -342 -156q-207 0 -339 129.5t-132 337.5z" />
<glyph unicode="&#xaa;" horiz-adv-x="778" d="M104 1049q0 50 25 86.5t62.5 57t93.5 33t106.5 16t112.5 3.5v15q0 52 -37 79t-96 27q-94 0 -160 -66l-74 89q96 92 246 92q74 0 127.5 -21.5t81 -58.5t39.5 -77.5t12 -88.5v-352h-137v75h-2q-24 -40 -72.5 -65t-109.5 -25q-51 0 -98 15.5t-83.5 58.5t-36.5 107zM250 1051 q0 -74 102 -74q73 0 112.5 39.5t39.5 109.5v21h-33q-221 0 -221 -96z" />
<glyph unicode="&#xab;" horiz-adv-x="1024" d="M82 500l299 444l125 -86l-236 -358l238 -359l-127 -88zM498 500l299 444l125 -86l-236 -358l236 -359l-125 -88z" />
<glyph unicode="&#xac;" horiz-adv-x="1363" d="M143 707v165h1078v-587h-166v422h-912z" />
<glyph unicode="&#xad;" horiz-adv-x="655" d="M90 418v164h475v-164h-475z" />
<glyph unicode="&#xae;" horiz-adv-x="1228" d="M147 1010q0 126 63 233t170.5 169.5t233.5 62.5t233.5 -62.5t170.5 -169.5t63 -233q0 -191 -137 -326t-330 -135t-330 135t-137 326zM221 1010q0 -162 115 -278t278 -116q164 0 279 116t115 278q0 164 -115 278.5t-279 114.5t-278.5 -114.5t-114.5 -278.5zM416 754v524 h225q83 0 141 -39t58 -125q0 -98 -105 -139l139 -221h-147l-113 202h-73v-202h-125zM541 1047h96q31 0 53.5 18.5t22.5 48.5q0 29 -24.5 45.5t-51.5 16.5h-96v-129z" />
<glyph unicode="&#xaf;" horiz-adv-x="512" d="M-47 1223v137h606v-137h-606z" />
<glyph unicode="&#xb0;" horiz-adv-x="819" d="M92 1157q0 133 92 225.5t226 92.5q133 0 225 -92t92 -226q0 -133 -91.5 -224t-225.5 -91t-226 91t-92 224zM223 1157q0 -78 54.5 -132t132.5 -54t132 54t54 132q0 79 -54 134t-132 55t-132.5 -55t-54.5 -134z" />
<glyph unicode="&#xb1;" horiz-adv-x="1363" d="M143 82v166h1078v-166h-1078zM143 692v166h457v307h166v-307h455v-166h-455v-301h-166v301h-457z" />
<glyph unicode="&#xb2;" horiz-adv-x="788" d="M102 586v137l336 338q82 82 82 160q0 53 -34 82.5t-89 29.5t-91.5 -37.5t-47.5 -101.5l-152 20q17 114 97 186.5t194 72.5q119 0 201 -65.5t82 -186.5q0 -79 -37 -138.5t-106 -126.5l-234 -229h379v-141h-580z" />
<glyph unicode="&#xb3;" horiz-adv-x="788" d="M82 788l145 46q19 -57 60.5 -90t99.5 -33q61 0 105.5 34t44.5 99q0 48 -30 79t-70 41.5t-89 10.5h-55v127h55q73 0 118.5 31t45.5 98q0 48 -36 78t-89 30q-44 0 -80 -28t-55 -76l-139 47q36 91 110.5 142t167.5 51q122 0 199.5 -61.5t77.5 -176.5q0 -66 -35 -116t-92 -74 q67 -20 108 -76.5t41 -130.5q0 -126 -88 -196.5t-211 -70.5q-232 0 -309 215z" />
<glyph unicode="&#xb4;" horiz-adv-x="512" d="M145 1155l205 295h232l-279 -295h-158z" />
<glyph unicode="&#xb5;" horiz-adv-x="1183" d="M154 -492v1463h192v-537q0 -64 9.5 -114t33 -94t68.5 -67.5t110 -23.5q117 0 188.5 87t71.5 233v516h193v-762q0 -125 8 -209h-182q-8 65 -8 160h-4q-38 -80 -126.5 -133.5t-191.5 -53.5q-52 0 -98 16.5t-72 45.5v-527h-192z" />
<glyph unicode="&#xb6;" horiz-adv-x="1228" d="M80 1047q0 198 126 300.5t347 102.5h518v-1708h-160v1579h-235v-1579h-162v928q-190 0 -312 108t-122 269z" />
<glyph unicode="&#xb7;" horiz-adv-x="532" d="M129 618q0 56 40 97t99 41q57 0 97.5 -39.5t40.5 -95.5q0 -55 -39.5 -95.5t-98.5 -40.5t-99 39t-40 94z" />
<glyph unicode="&#xb8;" horiz-adv-x="512" d="M25 -434l41 86q78 -35 157 -35q45 0 85 20t40 66q0 41 -31.5 59.5t-78.5 18.5q-37 0 -84 -14l-41 40l127 193h102l-94 -141q12 4 55 4q79 0 136 -38.5t57 -121.5q0 -51 -24 -88.5t-63.5 -57.5t-82.5 -29t-90 -9q-125 0 -211 47z" />
<glyph unicode="&#xb9;" horiz-adv-x="788" d="M113 1241l256 209h137v-872h-160v679l-139 -120z" />
<glyph unicode="&#xba;" horiz-adv-x="778" d="M78 1176q0 133 88 218t223 85t223 -85t88 -218q0 -132 -88 -218t-223 -86t-223 86t-88 218zM233 1176q0 -70 41 -119t115 -49t116 49t42 119q0 71 -41.5 119t-116.5 48t-115.5 -47.5t-40.5 -119.5z" />
<glyph unicode="&#xbb;" horiz-adv-x="1024" d="M102 141l236 359l-236 358l125 86l299 -444l-299 -447zM516 141l238 359l-236 358l125 86l299 -444l-299 -447z" />
<glyph unicode="&#xbc;" horiz-adv-x="1781" d="M113 1241l256 209h137v-872h-160v679l-139 -120zM346 -8l924 1521l116 -63l-921 -1522zM995 186v131l363 555h170v-548h121v-138h-121v-186h-146v186h-387zM1153 324h229v356h-6z" />
<glyph unicode="&#xbd;" horiz-adv-x="1781" d="M113 1241l256 209h137v-872h-160v679l-139 -120zM346 -8l924 1521l116 -63l-921 -1522zM1081 0v137l336 338q82 82 82 160q0 53 -34 83t-89 30t-91.5 -38t-47.5 -102l-152 21q17 114 97 186t194 72q119 0 201 -65.5t82 -186.5q0 -79 -36.5 -137.5t-106.5 -126.5 l-234 -230h379v-141h-580z" />
<glyph unicode="&#xbe;" horiz-adv-x="1781" d="M82 788l145 46q19 -57 60.5 -90t99.5 -33q61 0 105.5 34t44.5 99q0 48 -30 79t-70 41.5t-89 10.5h-55v127h55q73 0 118.5 31t45.5 98q0 48 -36 78t-89 30q-44 0 -80 -28t-55 -76l-139 47q36 91 110.5 142t167.5 51q122 0 199.5 -61.5t77.5 -176.5q0 -66 -35 -116t-92 -74 q67 -20 108 -76.5t41 -130.5q0 -126 -88 -196.5t-211 -70.5q-232 0 -309 215zM346 -8l924 1521l116 -63l-921 -1522zM995 186v131l363 555h170v-548h121v-138h-121v-186h-146v186h-387zM1153 324h229v356h-6z" />
<glyph unicode="&#xbf;" horiz-adv-x="1024" d="M78 -104q0 52 10 95.5t24.5 74.5t43 65t52.5 56.5t66 58.5q88 74 117 123t29 145v72h192v-99q0 -101 -35.5 -165.5t-113.5 -139.5l-76 -71q-51 -48 -77.5 -92.5t-26.5 -110.5q0 -97 62 -156t161 -59t161.5 63.5t73.5 161.5l197 -22q-24 -176 -146.5 -277.5t-297.5 -101.5 q-116 0 -209 42.5t-150 130t-57 206.5zM369 874q0 55 39 95.5t98 40.5q57 0 97 -39.5t40 -93.5q0 -56 -39 -96t-98 -40t-98 38.5t-39 94.5z" />
<glyph unicode="&#xc0;" horiz-adv-x="1456" d="M10 0l629 1450h184l623 -1450h-229l-148 356h-688l-145 -356h-226zM375 1860h233l205 -295h-158zM453 535h542l-270 679z" />
<glyph unicode="&#xc1;" horiz-adv-x="1456" d="M10 0l629 1450h184l623 -1450h-229l-148 356h-688l-145 -356h-226zM453 535h542l-270 679zM659 1565l203 295h234l-281 -295h-156z" />
<glyph unicode="&#xc2;" horiz-adv-x="1456" d="M10 0l629 1450h184l623 -1450h-229l-148 356h-688l-145 -356h-226zM395 1565l230 295h221l229 -295h-186l-154 202l-155 -202h-185zM453 535h542l-270 679z" />
<glyph unicode="&#xc3;" horiz-adv-x="1456" d="M10 0l629 1450h184l623 -1450h-229l-148 356h-688l-145 -356h-226zM379 1581q40 238 209 238q69 0 153 -41q99 -45 138 -45q70 0 98 94h110q-40 -238 -208 -238q-66 0 -158 43q-84 43 -133 43q-68 0 -96 -94h-113zM453 535h542l-270 679z" />
<glyph unicode="&#xc4;" horiz-adv-x="1456" d="M10 0l629 1450h184l623 -1450h-229l-148 356h-688l-145 -356h-226zM406 1731q0 51 36 87.5t90 36.5t90.5 -35t36.5 -89q0 -51 -36.5 -87t-90.5 -36t-90 37t-36 86zM453 535h542l-270 679zM803 1731q0 51 36.5 87.5t90.5 36.5t90.5 -35t36.5 -89q0 -51 -36.5 -87 t-90.5 -36t-90.5 37t-36.5 86z" />
<glyph unicode="&#xc5;" horiz-adv-x="1456" d="M10 0l629 1450h184l623 -1450h-229l-148 356h-688l-145 -356h-226zM453 535h542l-270 679zM528 1745q0 87 59 145t146 58t147 -57.5t60 -143.5q0 -87 -60 -145t-147 -58q-86 0 -145.5 57.5t-59.5 143.5zM612 1745q0 -49 35 -83t86 -34t87 34t36 85t-36 85t-87 34t-86 -35 t-35 -86z" />
<glyph unicode="&#xc6;" horiz-adv-x="2078" d="M4 0l936 1450h1014v-178h-678v-434h635v-174h-635v-484h709v-180h-912v393h-579l-248 -393h-242zM600 569h473v703h-29z" />
<glyph unicode="&#xc7;" horiz-adv-x="1449" d="M102 727q0 167 58.5 309.5t161.5 241t245.5 154t306.5 55.5q156 0 299 -59t222 -166l-160 -123q-55 75 -153 122.5t-208 47.5q-163 0 -290 -79.5t-193.5 -211.5t-66.5 -291q0 -164 65 -296t190 -210t289 -78q123 0 223 49.5t166 143.5l162 -111q-86 -116 -218.5 -185 t-305.5 -75l-70 -106q12 4 56 4q79 0 135.5 -38.5t56.5 -121.5q0 -51 -24 -88.5t-63.5 -57.5t-82.5 -29t-90 -9q-125 0 -211 47l41 86q78 -35 158 -35q45 0 85 20t40 66q0 41 -32 59.5t-79 18.5q-37 0 -84 -14l-41 40l105 160q-307 25 -500 235t-193 525z" />
<glyph unicode="&#xc8;" horiz-adv-x="1230" d="M176 0v1450h930v-178h-727v-434h684v-174h-684v-484h758v-180h-961zM360 1860h234l205 -295h-158z" />
<glyph unicode="&#xc9;" horiz-adv-x="1230" d="M176 0v1450h930v-178h-727v-434h684v-174h-684v-484h758v-180h-961zM537 1565l202 295h234l-281 -295h-155z" />
<glyph unicode="&#xca;" horiz-adv-x="1230" d="M176 0v1450h930v-178h-727v-434h684v-174h-684v-484h758v-180h-961zM311 1565l230 295h221l229 -295h-186l-154 202l-155 -202h-185z" />
<glyph unicode="&#xcb;" horiz-adv-x="1230" d="M176 0v1450h930v-178h-727v-434h684v-174h-684v-484h758v-180h-961zM324 1731q0 51 36.5 87.5t90.5 36.5t90.5 -35t36.5 -89q0 -51 -36.5 -87t-90.5 -36t-90.5 37t-36.5 86zM721 1731q0 51 36.5 87.5t90.5 36.5t90.5 -35t36.5 -89q0 -51 -36.5 -87t-90.5 -36t-90.5 37 t-36.5 86z" />
<glyph unicode="&#xcc;" horiz-adv-x="555" d="M-57 1860h233l205 -295h-158zM176 0v1450h203v-1450h-203z" />
<glyph unicode="&#xcd;" horiz-adv-x="555" d="M174 1565l203 295h233l-280 -295h-156zM176 0v1450h203v-1450h-203z" />
<glyph unicode="&#xce;" horiz-adv-x="555" d="M-66 1565l230 295h221l229 -295h-186l-154 202l-155 -202h-185zM176 0v1450h203v-1450h-203z" />
<glyph unicode="&#xcf;" horiz-adv-x="555" d="M-47 1731q0 51 36.5 87.5t90.5 36.5t90.5 -35t36.5 -89q0 -51 -36.5 -87t-90.5 -36t-90.5 37t-36.5 86zM176 0v1450h203v-1450h-203zM350 1731q0 51 36.5 87.5t90.5 36.5t90.5 -35t36.5 -89q0 -51 -36.5 -87t-90.5 -36t-90.5 37t-36.5 86z" />
<glyph unicode="&#xd0;" horiz-adv-x="1558" d="M27 686v143h141v621h528q113 0 220.5 -28.5t204 -88t168.5 -143.5t114.5 -204t42.5 -261q0 -142 -45.5 -263.5t-122 -205t-176 -142.5t-207 -86.5t-215.5 -27.5h-512v686h-141zM373 184h239q284 0 450.5 147.5t166.5 393.5q0 248 -157.5 394.5t-438.5 146.5h-260v-437 h485v-143h-485v-502z" />
<glyph unicode="&#xd1;" horiz-adv-x="1581" d="M176 0v1450h264l758 -1159h4v1159h203v-1450h-256l-766 1184h-4v-1184h-203zM432 1581q40 238 209 238q70 0 154 -41q99 -45 137 -45q70 0 98 94h111q-40 -238 -209 -238q-66 0 -158 43q-84 43 -133 43q-68 0 -96 -94h-113z" />
<glyph unicode="&#xd2;" horiz-adv-x="1738" d="M102 727q0 167 58 309.5t159 241t243 154t306 55.5t306.5 -55.5t244.5 -154t160.5 -241t58.5 -309.5q0 -221 -100 -396t-275.5 -271.5t-394.5 -96.5t-393.5 96.5t-273.5 271.5t-99 396zM322 727q0 -162 66.5 -294t192 -210t287.5 -78q123 0 227.5 45.5t174.5 124 t109.5 185t39.5 227.5q0 119 -39.5 225t-109.5 185t-174.5 125.5t-227.5 46.5q-162 0 -288 -79.5t-192 -211.5t-66 -291zM557 1860h234l204 -295h-157z" />
<glyph unicode="&#xd3;" horiz-adv-x="1738" d="M102 727q0 167 58 309.5t159 241t243 154t306 55.5t306.5 -55.5t244.5 -154t160.5 -241t58.5 -309.5q0 -221 -100 -396t-275.5 -271.5t-394.5 -96.5t-393.5 96.5t-273.5 271.5t-99 396zM322 727q0 -162 66.5 -294t192 -210t287.5 -78q123 0 227.5 45.5t174.5 124 t109.5 185t39.5 227.5q0 119 -39.5 225t-109.5 185t-174.5 125.5t-227.5 46.5q-162 0 -288 -79.5t-192 -211.5t-66 -291zM760 1565l203 295h233l-281 -295h-155z" />
<glyph unicode="&#xd4;" horiz-adv-x="1738" d="M102 727q0 167 58 309.5t159 241t243 154t306 55.5t306.5 -55.5t244.5 -154t160.5 -241t58.5 -309.5q0 -221 -100 -396t-275.5 -271.5t-394.5 -96.5t-393.5 96.5t-273.5 271.5t-99 396zM322 727q0 -162 66.5 -294t192 -210t287.5 -78q123 0 227.5 45.5t174.5 124 t109.5 185t39.5 227.5q0 119 -39.5 225t-109.5 185t-174.5 125.5t-227.5 46.5q-162 0 -288 -79.5t-192 -211.5t-66 -291zM528 1565l230 295h221l229 -295h-186l-154 202l-155 -202h-185z" />
<glyph unicode="&#xd5;" horiz-adv-x="1738" d="M102 727q0 167 58 309.5t159 241t243 154t306 55.5t306.5 -55.5t244.5 -154t160.5 -241t58.5 -309.5q0 -221 -100 -396t-275.5 -271.5t-394.5 -96.5t-393.5 96.5t-273.5 271.5t-99 396zM322 727q0 -162 66.5 -294t192 -210t287.5 -78q123 0 227.5 45.5t174.5 124 t109.5 185t39.5 227.5q0 119 -39.5 225t-109.5 185t-174.5 125.5t-227.5 46.5q-162 0 -288 -79.5t-192 -211.5t-66 -291zM514 1581q40 238 209 238q70 0 154 -41q99 -45 137 -45q70 0 98 94h111q-40 -238 -209 -238q-66 0 -158 43q-84 43 -133 43q-68 0 -96 -94h-113z" />
<glyph unicode="&#xd6;" horiz-adv-x="1738" d="M102 727q0 167 58 309.5t159 241t243 154t306 55.5t306.5 -55.5t244.5 -154t160.5 -241t58.5 -309.5q0 -221 -100 -396t-275.5 -271.5t-394.5 -96.5t-393.5 96.5t-273.5 271.5t-99 396zM322 727q0 -162 66.5 -294t192 -210t287.5 -78q123 0 227.5 45.5t174.5 124 t109.5 185t39.5 227.5q0 119 -39.5 225t-109.5 185t-174.5 125.5t-227.5 46.5q-162 0 -288 -79.5t-192 -211.5t-66 -291zM543 1731q0 51 36.5 87.5t90.5 36.5t90.5 -35t36.5 -89q0 -51 -36.5 -87t-90.5 -36t-90.5 37t-36.5 86zM940 1731q0 51 36.5 87.5t90.5 36.5t90.5 -35 t36.5 -89q0 -51 -36.5 -87t-90.5 -36t-90.5 37t-36.5 86z" />
<glyph unicode="&#xd7;" horiz-adv-x="1363" d="M213 268l352 348l-350 357l117 114l350 -350l348 350l117 -114l-348 -350l352 -355l-121 -118l-350 348l-348 -348z" />
<glyph unicode="&#xd8;" horiz-adv-x="1738" d="M102 727q0 167 58 309.5t159 241t243 154t306 55.5q275 0 471 -146l166 179l88 -80l-161 -176q206 -209 206 -537q0 -221 -100 -395t-275.5 -270.5t-394.5 -98.5q-279 -3 -487 162l-166 -178l-88 80l166 180q-93 99 -142 232t-49 288zM315 727q0 -224 117 -371l780 842 q-132 113 -344 113q-167 0 -294.5 -79t-193 -211t-65.5 -294zM514 266q141 -125 354 -125q166 0 294 78.5t195.5 211.5t67.5 296q0 230 -127 387z" />
<glyph unicode="&#xd9;" horiz-adv-x="1458" d="M166 537v913h203v-901q0 -62 11 -118.5t38 -109.5t67.5 -91.5t103 -61.5t140.5 -23q97 0 169.5 34.5t113 93.5t59.5 128t19 148v901h202v-913q0 -90 -21 -173t-66.5 -156.5t-110.5 -127.5t-159 -85.5t-206 -31.5t-206 31.5t-159 85.5t-110.5 127.5t-66.5 156.5t-21 173z M381 1860h233l205 -295h-157z" />
<glyph unicode="&#xda;" horiz-adv-x="1458" d="M166 537v913h203v-901q0 -62 11 -118.5t38 -109.5t67.5 -91.5t103 -61.5t140.5 -23q97 0 169.5 34.5t113 93.5t59.5 128t19 148v901h202v-913q0 -90 -21 -173t-66.5 -156.5t-110.5 -127.5t-159 -85.5t-206 -31.5t-206 31.5t-159 85.5t-110.5 127.5t-66.5 156.5t-21 173z M604 1565l203 295h233l-280 -295h-156z" />
<glyph unicode="&#xdb;" horiz-adv-x="1458" d="M166 537v913h203v-901q0 -62 11 -118.5t38 -109.5t67.5 -91.5t103 -61.5t140.5 -23q97 0 169.5 34.5t113 93.5t59.5 128t19 148v901h202v-913q0 -90 -21 -173t-66.5 -156.5t-110.5 -127.5t-159 -85.5t-206 -31.5t-206 31.5t-159 85.5t-110.5 127.5t-66.5 156.5t-21 173z M385 1565l229 295h222l229 -295h-186l-154 202l-156 -202h-184z" />
<glyph unicode="&#xdc;" horiz-adv-x="1458" d="M166 537v913h203v-901q0 -62 11 -118.5t38 -109.5t67.5 -91.5t103 -61.5t140.5 -23q97 0 169.5 34.5t113 93.5t59.5 128t19 148v901h202v-913q0 -90 -21 -173t-66.5 -156.5t-110.5 -127.5t-159 -85.5t-206 -31.5t-206 31.5t-159 85.5t-110.5 127.5t-66.5 156.5t-21 173z M403 1731q0 51 36.5 87.5t90.5 36.5t90.5 -35t36.5 -89q0 -51 -36.5 -87t-90.5 -36t-90.5 37t-36.5 86zM801 1731q0 51 36.5 87.5t90.5 36.5t90.5 -35t36.5 -89q0 -51 -36.5 -87t-90.5 -36t-90.5 37t-36.5 86z" />
<glyph unicode="&#xdd;" horiz-adv-x="1277" d="M-6 1450h250l401 -655l404 655h235l-543 -823v-627h-204v627zM551 1565l203 295h233l-280 -295h-156z" />
<glyph unicode="&#xde;" d="M176 0v1450h203v-299h239q242 0 380.5 -102t138.5 -301q0 -108 -39.5 -188t-112 -128t-166.5 -71t-211 -23h-229v-338h-203zM379 512h209q338 0 338 233q0 121 -90.5 176.5t-243.5 55.5h-213v-465z" />
<glyph unicode="&#xdf;" horiz-adv-x="1253" d="M164 0v1075q0 78 14.5 147.5t49 134.5t86.5 112t132.5 75.5t182.5 28.5q179 0 297 -106.5t118 -274.5q0 -115 -60 -197t-167 -118v-5q156 -25 249 -137t93 -280q0 -215 -135 -347.5t-362 -132.5q-59 0 -146 17v162q58 -15 121 -15q149 0 236.5 86.5t87.5 237.5 q0 155 -98 236t-257 81h-22v168h22q112 0 179 59t67 167q0 101 -63 165t-168 64q-63 0 -111.5 -21.5t-77 -54.5t-46 -79t-24 -89.5t-6.5 -91.5v-1067h-192z" />
<glyph unicode="&#xe0;" horiz-adv-x="1110" d="M94 274q0 61 21 110t55 83t87 59t108.5 39.5t127.5 23t135.5 11t141.5 2.5v27q0 106 -64 159.5t-176 53.5q-79 0 -152 -31t-124 -82l-102 123q73 68 176.5 106.5t220.5 38.5q200 0 302.5 -106t102.5 -275v-423q0 -123 15 -193h-174q-17 80 -17 139h-6 q-114 -164 -326 -164q-49 0 -96 9.5t-94 32t-82.5 55.5t-57.5 85.5t-22 116.5zM246 1450h231l205 -295h-158zM291 279q0 -79 57.5 -115.5t140.5 -36.5q132 0 206.5 79.5t74.5 205.5v51h-47q-66 0 -119 -3t-114 -14.5t-102.5 -30.5t-69 -54t-27.5 -82z" />
<glyph unicode="&#xe1;" horiz-adv-x="1110" d="M94 274q0 61 21 110t55 83t87 59t108.5 39.5t127.5 23t135.5 11t141.5 2.5v27q0 106 -64 159.5t-176 53.5q-79 0 -152 -31t-124 -82l-102 123q73 68 176.5 106.5t220.5 38.5q200 0 302.5 -106t102.5 -275v-423q0 -123 15 -193h-174q-17 80 -17 139h-6 q-114 -164 -326 -164q-49 0 -96 9.5t-94 32t-82.5 55.5t-57.5 85.5t-22 116.5zM291 279q0 -79 57.5 -115.5t140.5 -36.5q132 0 206.5 79.5t74.5 205.5v51h-47q-66 0 -119 -3t-114 -14.5t-102.5 -30.5t-69 -54t-27.5 -82zM465 1155l205 295h231l-278 -295h-158z" />
<glyph unicode="&#xe2;" horiz-adv-x="1110" d="M94 274q0 61 21 110t55 83t87 59t108.5 39.5t127.5 23t135.5 11t141.5 2.5v27q0 106 -64 159.5t-176 53.5q-79 0 -152 -31t-124 -82l-102 123q73 68 176.5 106.5t220.5 38.5q200 0 302.5 -106t102.5 -275v-423q0 -123 15 -193h-174q-17 80 -17 139h-6 q-114 -164 -326 -164q-49 0 -96 9.5t-94 32t-82.5 55.5t-57.5 85.5t-22 116.5zM209 1155l229 295h221l230 -295h-187l-153 203l-156 -203h-184zM291 279q0 -79 57.5 -115.5t140.5 -36.5q132 0 206.5 79.5t74.5 205.5v51h-47q-66 0 -119 -3t-114 -14.5t-102.5 -30.5t-69 -54 t-27.5 -82z" />
<glyph unicode="&#xe3;" horiz-adv-x="1110" d="M94 274q0 61 21 110t55 83t87 59t108.5 39.5t127.5 23t135.5 11t141.5 2.5v27q0 106 -64 159.5t-176 53.5q-79 0 -152 -31t-124 -82l-102 123q73 68 176.5 106.5t220.5 38.5q200 0 302.5 -106t102.5 -275v-423q0 -123 15 -193h-174q-17 80 -17 139h-6 q-114 -164 -326 -164q-49 0 -96 9.5t-94 32t-82.5 55.5t-57.5 85.5t-22 116.5zM195 1171q7 39 16 71t25.5 64t38 54t54.5 35.5t74 13.5q70 0 154 -41q99 -45 137 -45q71 0 99 94h110q-40 -237 -209 -237q-65 0 -157 43q-84 43 -134 43q-68 0 -96 -95h-112zM291 279 q0 -79 57.5 -115.5t140.5 -36.5q132 0 206.5 79.5t74.5 205.5v51h-47q-66 0 -119 -3t-114 -14.5t-102.5 -30.5t-69 -54t-27.5 -82z" />
<glyph unicode="&#xe4;" horiz-adv-x="1110" d="M94 274q0 61 21 110t55 83t87 59t108.5 39.5t127.5 23t135.5 11t141.5 2.5v27q0 106 -64 159.5t-176 53.5q-79 0 -152 -31t-124 -82l-102 123q73 68 176.5 106.5t220.5 38.5q200 0 302.5 -106t102.5 -275v-423q0 -123 15 -193h-174q-17 80 -17 139h-6 q-114 -164 -326 -164q-49 0 -96 9.5t-94 32t-82.5 55.5t-57.5 85.5t-22 116.5zM225 1321q0 51 36.5 88t90.5 37t90.5 -35.5t36.5 -89.5q0 -51 -36.5 -87t-90.5 -36t-90.5 37t-36.5 86zM291 279q0 -79 57.5 -115.5t140.5 -36.5q132 0 206.5 79.5t74.5 205.5v51h-47 q-66 0 -119 -3t-114 -14.5t-102.5 -30.5t-69 -54t-27.5 -82zM623 1321q0 51 36.5 88t90.5 37t90.5 -35.5t36.5 -89.5q0 -51 -36.5 -87t-90.5 -36t-90.5 37t-36.5 86z" />
<glyph unicode="&#xe5;" horiz-adv-x="1110" d="M94 274q0 61 21 110t55 83t87 59t108.5 39.5t127.5 23t135.5 11t141.5 2.5v27q0 106 -64 159.5t-176 53.5q-79 0 -152 -31t-124 -82l-102 123q73 68 176.5 106.5t220.5 38.5q200 0 302.5 -106t102.5 -275v-423q0 -123 15 -193h-174q-17 80 -17 139h-6 q-114 -164 -326 -164q-49 0 -96 9.5t-94 32t-82.5 55.5t-57.5 85.5t-22 116.5zM291 279q0 -79 57.5 -115.5t140.5 -36.5q132 0 206.5 79.5t74.5 205.5v51h-47q-66 0 -119 -3t-114 -14.5t-102.5 -30.5t-69 -54t-27.5 -82zM344 1335q0 87 59 145t146 58t147 -57.5t60 -143.5 q0 -87 -60 -144.5t-147 -57.5q-86 0 -145.5 57.5t-59.5 142.5zM430 1337q0 -49 35.5 -82.5t83.5 -33.5q50 0 85.5 33t35.5 83q0 49 -35.5 82t-85.5 33q-48 0 -83.5 -33t-35.5 -82z" />
<glyph unicode="&#xe6;" horiz-adv-x="1796" d="M94 248q0 61 17 108.5t46 81t77.5 58t100.5 39t126 22.5t144.5 11t164.5 3v23q0 248 -240 248q-79 0 -152 -31t-124 -82l-102 123q73 68 176.5 106.5t220.5 38.5q78 0 140.5 -17t101 -45.5t61.5 -56.5t37 -61q129 180 354 180q209 0 331 -135t122 -368q0 -43 -2 -66h-746 q4 -124 93 -209.5t212 -85.5q91 0 160.5 40.5t114.5 107.5l129 -109q-145 -199 -404 -199q-130 0 -234 52.5t-161 148.5q-108 -199 -412 -199q-49 0 -96 8t-94.5 27.5t-82.5 50t-57 78.5t-22 109zM291 272q0 -78 57 -112.5t144 -34.5q133 0 203.5 66.5t70.5 185.5v51h-49 q-80 0 -137.5 -3t-115.5 -12.5t-93.5 -26.5t-57.5 -45.5t-22 -68.5zM946 571h557q0 120 -69.5 197.5t-192.5 77.5q-118 0 -204.5 -80t-90.5 -195z" />
<glyph unicode="&#xe7;" horiz-adv-x="1011" d="M102 485q0 227 147 369.5t372 142.5q107 0 206.5 -41.5t157.5 -117.5l-139 -113q-31 48 -93 79.5t-130 31.5q-145 0 -231.5 -102.5t-86.5 -248.5t86.5 -248t233.5 -102q73 0 133.5 28.5t99.5 78.5l129 -117q-127 -143 -338 -152l-76 -114q12 4 56 4q79 0 135.5 -38.5 t56.5 -121.5q0 -51 -24 -88.5t-63.5 -57.5t-82.5 -29t-90 -9q-125 0 -211 47l41 86q78 -35 158 -35q45 0 85 20t40 66q0 41 -32 59.5t-79 18.5q-37 0 -84 -14l-41 40l113 170q-200 25 -324.5 161.5t-124.5 346.5z" />
<glyph unicode="&#xe8;" horiz-adv-x="1173" d="M102 483q0 226 142.5 370t359.5 144q216 0 341.5 -135t125.5 -368q0 -43 -2 -66h-770q4 -124 95.5 -209.5t219.5 -85.5q93 0 166 41t117 107l135 -109q-151 -199 -418 -199q-223 0 -367.5 141.5t-144.5 368.5zM274 1450h232l205 -295h-158zM299 571h578 q-5 122 -74.5 198.5t-198.5 76.5q-122 0 -209.5 -79.5t-95.5 -195.5z" />
<glyph unicode="&#xe9;" horiz-adv-x="1173" d="M102 483q0 226 142.5 370t359.5 144q216 0 341.5 -135t125.5 -368q0 -43 -2 -66h-770q4 -124 95.5 -209.5t219.5 -85.5q93 0 166 41t117 107l135 -109q-151 -199 -418 -199q-223 0 -367.5 141.5t-144.5 368.5zM299 571h578q-5 122 -74.5 198.5t-198.5 76.5 q-122 0 -209.5 -79.5t-95.5 -195.5zM502 1155l205 295h231l-279 -295h-157z" />
<glyph unicode="&#xea;" horiz-adv-x="1173" d="M102 483q0 226 142.5 370t359.5 144q216 0 341.5 -135t125.5 -368q0 -43 -2 -66h-770q4 -124 95.5 -209.5t219.5 -85.5q93 0 166 41t117 107l135 -109q-151 -199 -418 -199q-223 0 -367.5 141.5t-144.5 368.5zM276 1155l230 295h221l229 -295h-186l-154 203l-155 -203 h-185zM299 571h578q-5 122 -74.5 198.5t-198.5 76.5q-122 0 -209.5 -79.5t-95.5 -195.5z" />
<glyph unicode="&#xeb;" horiz-adv-x="1173" d="M102 483q0 226 142.5 370t359.5 144q216 0 341.5 -135t125.5 -368q0 -43 -2 -66h-770q4 -124 95.5 -209.5t219.5 -85.5q93 0 166 41t117 107l135 -109q-151 -199 -418 -199q-223 0 -367.5 141.5t-144.5 368.5zM289 1321q0 51 36.5 88t90.5 37t90.5 -35.5t36.5 -89.5 q0 -51 -36.5 -87t-90.5 -36t-90.5 37t-36.5 86zM299 571h578q-5 122 -74.5 198.5t-198.5 76.5q-122 0 -209.5 -79.5t-95.5 -195.5zM686 1321q0 51 36.5 88t90.5 37t90.5 -35.5t36.5 -89.5q0 -51 -36.5 -87t-90.5 -36t-90.5 37t-36.5 86z" />
<glyph unicode="&#xec;" horiz-adv-x="530" d="M-74 1450h232l204 -295h-157zM168 0v971h192v-971h-192z" />
<glyph unicode="&#xed;" horiz-adv-x="530" d="M168 0v971h192v-971h-192zM168 1155l205 295h231l-278 -295h-158z" />
<glyph unicode="&#xee;" horiz-adv-x="530" d="M-74 1155l230 295h221l229 -295h-186l-154 203l-155 -203h-185zM168 0v971h192v-971h-192z" />
<glyph unicode="&#xef;" horiz-adv-x="530" d="M-59 1321q0 51 36.5 88t90.5 37t90.5 -35.5t36.5 -89.5q0 -51 -36.5 -87t-90.5 -36t-90.5 37t-36.5 86zM168 0v971h192v-971h-192zM338 1321q0 51 36.5 88t90.5 37t90.5 -35.5t36.5 -89.5q0 -51 -36.5 -87t-90.5 -36t-90.5 37t-36.5 86z" />
<glyph unicode="&#xf0;" horiz-adv-x="1249" d="M94 485q0 224 147 368t367 144q155 0 266 -100l5 4q-119 227 -289 369l-225 -109l-99 96l226 109q-55 51 -183 143l158 97q92 -70 190 -160l222 108l106 -94l-225 -110q172 -177 275.5 -383.5t103.5 -429.5q0 -89 -19.5 -170.5t-61 -153.5t-101.5 -125t-147.5 -84 t-193.5 -31q-228 0 -375 143.5t-147 368.5zM291 485q0 -145 87.5 -246.5t237.5 -101.5q149 0 236.5 101.5t87.5 246.5t-87.5 247t-236.5 102q-150 0 -237.5 -102t-87.5 -247z" />
<glyph unicode="&#xf1;" horiz-adv-x="1191" d="M158 971h182q8 -65 8 -160h6q38 80 125.5 133t190.5 53q91 0 161.5 -31t113.5 -85.5t65 -125t22 -153.5v-602h-192v539q0 63 -10 113t-33.5 93.5t-68.5 67t-110 23.5q-116 0 -188 -87.5t-72 -232.5v-516h-192v762q0 125 -8 209zM248 1171q40 238 209 238q69 0 153 -41 q99 -45 138 -45q70 0 98 94h110q-40 -237 -208 -237q-66 0 -158 43q-84 43 -133 43q-69 0 -97 -95h-112z" />
<glyph unicode="&#xf2;" horiz-adv-x="1249" d="M102 487q0 223 149.5 366.5t373.5 143.5q147 0 266.5 -64.5t188.5 -181.5t69 -264q0 -224 -150 -369t-374 -145t-373.5 145t-149.5 369zM301 487q0 -147 87.5 -249.5t236.5 -102.5t236 102.5t87 249.5t-87 249t-236 102t-236.5 -102t-87.5 -249zM301 1450h231l205 -295 h-157z" />
<glyph unicode="&#xf3;" horiz-adv-x="1249" d="M102 487q0 223 149.5 366.5t373.5 143.5q147 0 266.5 -64.5t188.5 -181.5t69 -264q0 -224 -150 -369t-374 -145t-373.5 145t-149.5 369zM301 487q0 -147 87.5 -249.5t236.5 -102.5t236 102.5t87 249.5t-87 249t-236 102t-236.5 -102t-87.5 -249zM508 1155l205 295h231 l-278 -295h-158z" />
<glyph unicode="&#xf4;" horiz-adv-x="1249" d="M102 487q0 223 149.5 366.5t373.5 143.5q147 0 266.5 -64.5t188.5 -181.5t69 -264q0 -224 -150 -369t-374 -145t-373.5 145t-149.5 369zM287 1155l229 295h221l230 -295h-187l-153 203l-156 -203h-184zM301 487q0 -147 87.5 -249.5t236.5 -102.5t236 102.5t87 249.5 t-87 249t-236 102t-236.5 -102t-87.5 -249z" />
<glyph unicode="&#xf5;" horiz-adv-x="1249" d="M102 487q0 223 149.5 366.5t373.5 143.5q147 0 266.5 -64.5t188.5 -181.5t69 -264q0 -224 -150 -369t-374 -145t-373.5 145t-149.5 369zM272 1171q40 238 209 238q70 0 154 -41q99 -45 137 -45q70 0 98 94h111q-40 -237 -209 -237q-66 0 -158 43q-84 43 -133 43 q-68 0 -96 -95h-113zM301 487q0 -147 87.5 -249.5t236.5 -102.5t236 102.5t87 249.5t-87 249t-236 102t-236.5 -102t-87.5 -249z" />
<glyph unicode="&#xf6;" horiz-adv-x="1249" d="M102 487q0 223 149.5 366.5t373.5 143.5q147 0 266.5 -64.5t188.5 -181.5t69 -264q0 -224 -150 -369t-374 -145t-373.5 145t-149.5 369zM301 487q0 -147 87.5 -249.5t236.5 -102.5t236 102.5t87 249.5t-87 249t-236 102t-236.5 -102t-87.5 -249zM301 1321q0 51 36.5 88 t90.5 37t90.5 -35.5t36.5 -89.5q0 -51 -36.5 -87t-90.5 -36t-90.5 37t-36.5 86zM698 1321q0 51 36.5 88t90.5 37t90.5 -35.5t36.5 -89.5q0 -51 -36.5 -87t-90.5 -36t-90.5 37t-36.5 86z" />
<glyph unicode="&#xf7;" horiz-adv-x="1363" d="M143 537v168h1078v-168h-1078zM549 270q0 55 38.5 94t94.5 39t94.5 -39t38.5 -94t-38.5 -94t-94.5 -39t-94.5 39t-38.5 94zM549 961q0 55 38.5 94t94.5 39t94.5 -39t38.5 -94t-38.5 -94.5t-94.5 -39.5t-94.5 39.5t-38.5 94.5z" />
<glyph unicode="&#xf8;" horiz-adv-x="1249" d="M86 10l135 140q-119 138 -119 335q0 148 68.5 265.5t188 182t266.5 64.5q192 0 323 -104l139 143l76 -71l-137 -144q123 -142 123 -336q0 -148 -69 -265.5t-188.5 -182t-266.5 -64.5q-186 0 -326 105l-139 -141zM295 485q0 -131 57 -206l479 493q-75 72 -206 72 q-102 0 -179 -51.5t-114 -132t-37 -175.5zM416 201q84 -72 207 -72q156 0 244.5 104.5t88.5 253.5q0 128 -59 205z" />
<glyph unicode="&#xf9;" horiz-adv-x="1191" d="M158 369v602h192v-537q0 -64 9.5 -114t33 -94t68.5 -67.5t110 -23.5q117 0 188.5 87t71.5 233v516h193v-762q0 -125 8 -209h-182q-8 65 -8 160h-4q-38 -80 -126.5 -133.5t-191.5 -53.5q-92 0 -162.5 31t-113.5 85.5t-64.5 125t-21.5 154.5zM268 1450h232l205 -295h-158z " />
<glyph unicode="&#xfa;" horiz-adv-x="1191" d="M158 369v602h192v-537q0 -64 9.5 -114t33 -94t68.5 -67.5t110 -23.5q117 0 188.5 87t71.5 233v516h193v-762q0 -125 8 -209h-182q-8 65 -8 160h-4q-38 -80 -126.5 -133.5t-191.5 -53.5q-92 0 -162.5 31t-113.5 85.5t-64.5 125t-21.5 154.5zM489 1155l205 295h232 l-279 -295h-158z" />
<glyph unicode="&#xfb;" horiz-adv-x="1191" d="M158 369v602h192v-537q0 -64 9.5 -114t33 -94t68.5 -67.5t110 -23.5q117 0 188.5 87t71.5 233v516h193v-762q0 -125 8 -209h-182q-8 65 -8 160h-4q-38 -80 -126.5 -133.5t-191.5 -53.5q-92 0 -162.5 31t-113.5 85.5t-64.5 125t-21.5 154.5zM256 1155l229 295h222 l229 -295h-186l-154 203l-156 -203h-184z" />
<glyph unicode="&#xfc;" horiz-adv-x="1191" d="M158 369v602h192v-537q0 -64 9.5 -114t33 -94t68.5 -67.5t110 -23.5q117 0 188.5 87t71.5 233v516h193v-762q0 -125 8 -209h-182q-8 65 -8 160h-4q-38 -80 -126.5 -133.5t-191.5 -53.5q-92 0 -162.5 31t-113.5 85.5t-64.5 125t-21.5 154.5zM268 1321q0 51 36.5 88 t90.5 37t90.5 -35.5t36.5 -89.5q0 -51 -36.5 -87t-90.5 -36t-90.5 37t-36.5 86zM666 1321q0 51 36.5 88t90.5 37t90.5 -35.5t36.5 -89.5q0 -51 -36.5 -87t-90.5 -36t-90.5 37t-36.5 86z" />
<glyph unicode="&#xfd;" horiz-adv-x="1032" d="M18 971h215l302 -762h4l268 762h205l-471 -1200q-51 -132 -126.5 -197.5t-209.5 -65.5q-63 0 -127 15l18 170q56 -17 97 -17q71 0 109.5 38.5t70.5 123.5l61 162zM428 1155l205 295h231l-278 -295h-158z" />
<glyph unicode="&#xfe;" horiz-adv-x="1302" d="M168 -492v2040h190v-729h7q46 81 137 129.5t209 48.5q214 0 349.5 -146t135.5 -364q0 -144 -59 -260t-171.5 -185t-258.5 -69q-105 0 -197 45.5t-145 126.5h-7v-637h-190zM346 485q0 -144 92 -247t236 -103q102 0 177 51t110.5 129.5t35.5 171.5q0 94 -35.5 172 t-110.5 128.5t-177 50.5q-144 0 -236 -104.5t-92 -248.5z" />
<glyph unicode="&#xff;" horiz-adv-x="1032" d="M18 971h215l302 -762h4l268 762h205l-471 -1200q-51 -132 -126.5 -197.5t-209.5 -65.5q-63 0 -127 15l18 170q56 -17 97 -17q71 0 109.5 38.5t70.5 123.5l61 162zM207 1321q0 51 36.5 88t90.5 37t90.5 -35.5t36.5 -89.5q0 -51 -36.5 -87t-90.5 -36t-90.5 37t-36.5 86z M604 1321q0 51 36.5 88t90.5 37t90.5 -35.5t36.5 -89.5q0 -51 -36.5 -87t-90.5 -36t-90.5 37t-36.5 86z" />
<glyph unicode="&#x152;" horiz-adv-x="2054" d="M102 725q0 149 46 272t122.5 205.5t178.5 139.5t211.5 82.5t224.5 25.5h1044v-178h-678v-434h635v-174h-635v-484h709v-180h-1075q-114 0 -224 27t-211.5 86t-178.5 142t-123 204.5t-46 265.5zM319 725q0 -168 78.5 -293t215 -188.5t313.5 -63.5h123v1092h-123 q-272 0 -439.5 -143t-167.5 -404z" />
<glyph unicode="&#x153;" horiz-adv-x="1996" d="M102 487q0 223 146 366.5t370 143.5q133 0 241.5 -56.5t172.5 -154.5q65 97 168 154t230 57q215 0 340.5 -135t125.5 -368q0 -43 -2 -66h-772q8 -126 98.5 -210.5t219.5 -84.5q94 0 165.5 40.5t116.5 107.5l133 -109q-153 -199 -417 -199q-133 0 -239.5 55.5 t-168.5 153.5q-64 -98 -171.5 -153.5t-240.5 -55.5q-224 0 -370 144.5t-146 369.5zM299 487q0 -95 37 -174t112.5 -128.5t176.5 -49.5q149 0 236 102.5t87 249.5t-87 249t-236 102q-101 0 -176.5 -49.5t-112.5 -128t-37 -173.5zM1124 571h580q-5 122 -75 198.5t-199 76.5 q-123 0 -210.5 -79.5t-95.5 -195.5z" />
<glyph unicode="&#x178;" horiz-adv-x="1277" d="M-6 1450h250l401 -655l404 655h235l-543 -823v-627h-204v627zM319 1731q0 51 36.5 87.5t90.5 36.5t90.5 -35t36.5 -89q0 -51 -36.5 -87t-90.5 -36t-90.5 37t-36.5 86zM717 1731q0 51 36.5 87.5t90.5 36.5t90.5 -35t36.5 -89q0 -51 -36.5 -87t-90.5 -36t-90.5 37t-36.5 86 z" />
<glyph unicode="&#x2c6;" horiz-adv-x="512" d="M-84 1155l229 295h222l229 -295h-186l-154 203l-156 -203h-184z" />
<glyph unicode="&#x2dc;" horiz-adv-x="512" d="M-98 1171q40 238 209 238q69 0 153 -41q99 -45 137 -45q71 0 99 94h110q-40 -237 -209 -237q-65 0 -157 43q-84 43 -133 43q-69 0 -97 -95h-112z" />
<glyph unicode="&#x2000;" horiz-adv-x="974" />
<glyph unicode="&#x2001;" horiz-adv-x="1948" />
<glyph unicode="&#x2002;" horiz-adv-x="974" />
<glyph unicode="&#x2003;" horiz-adv-x="1948" />
<glyph unicode="&#x2004;" horiz-adv-x="649" />
<glyph unicode="&#x2005;" horiz-adv-x="487" />
<glyph unicode="&#x2006;" horiz-adv-x="324" />
<glyph unicode="&#x2007;" horiz-adv-x="324" />
<glyph unicode="&#x2008;" horiz-adv-x="243" />
<glyph unicode="&#x2009;" horiz-adv-x="389" />
<glyph unicode="&#x200a;" horiz-adv-x="108" />
<glyph unicode="&#x2010;" horiz-adv-x="655" d="M90 418v164h475v-164h-475z" />
<glyph unicode="&#x2011;" horiz-adv-x="655" d="M90 418v164h475v-164h-475z" />
<glyph unicode="&#x2012;" horiz-adv-x="655" d="M90 418v164h475v-164h-475z" />
<glyph unicode="&#x2013;" horiz-adv-x="819" d="M61 424v154h697v-154h-697z" />
<glyph unicode="&#x2014;" horiz-adv-x="1228" d="M61 424v154h1106v-154h-1106z" />
<glyph unicode="&#x2018;" horiz-adv-x="503" d="M86 938l170 512h162l-139 -512h-193z" />
<glyph unicode="&#x2019;" horiz-adv-x="503" d="M86 938l141 512h191l-170 -512h-162z" />
<glyph unicode="&#x201a;" horiz-adv-x="503" d="M86 -272l141 512h191l-170 -512h-162z" />
<glyph unicode="&#x201c;" horiz-adv-x="872" d="M86 938l170 512h162l-139 -512h-193zM455 938l170 512h161l-139 -512h-192z" />
<glyph unicode="&#x201d;" horiz-adv-x="872" d="M86 938l141 512h191l-170 -512h-162zM455 938l141 512h190l-170 -512h-161z" />
<glyph unicode="&#x201e;" horiz-adv-x="872" d="M86 -272l141 512h191l-170 -512h-162zM455 -272l141 512h190l-170 -512h-161z" />
<glyph unicode="&#x2022;" horiz-adv-x="1024" d="M150 725q0 151 105.5 256.5t256.5 105.5t256.5 -105.5t105.5 -256.5t-105.5 -257t-256.5 -106t-256.5 106t-105.5 257z" />
<glyph unicode="&#x2026;" horiz-adv-x="2048" d="M178 143q0 66 48 113t116 47q67 0 115.5 -45.5t48.5 -110.5q0 -66 -48 -112.5t-116 -46.5q-67 0 -115.5 45t-48.5 110zM860 143q0 66 48 113t116 47q67 0 115.5 -45.5t48.5 -110.5q0 -66 -48 -112.5t-116 -46.5q-67 0 -115.5 45t-48.5 110zM1542 143q0 66 48 113t116 47 q67 0 115.5 -45.5t48.5 -110.5q0 -66 -48 -112.5t-116 -46.5q-67 0 -115.5 45t-48.5 110z" />
<glyph unicode="&#x202f;" horiz-adv-x="389" />
<glyph unicode="&#x2039;" horiz-adv-x="610" d="M82 500l299 444l127 -86l-236 -358l236 -359l-127 -88z" />
<glyph unicode="&#x203a;" horiz-adv-x="610" d="M102 858l127 86l299 -446l-299 -445l-125 88l236 357z" />
<glyph unicode="&#x205f;" horiz-adv-x="487" />
<glyph unicode="&#x20ac;" d="M29 469l49 145h96q-4 62 -4 103q0 86 6 117h-143l51 145h115q57 237 225.5 372.5t402.5 135.5q190 0 316 -68l-64 -164q-105 60 -262 60q-151 0 -265 -90.5t-155 -245.5h602l-47 -145h-583q-9 -52 -9 -117q0 -67 7 -103h524l-47 -145h-455q28 -147 146.5 -239.5 t279.5 -92.5q159 0 275 74l71 -156q-142 -92 -358 -92q-128 0 -235.5 41t-182 112.5t-123.5 161t-69 191.5h-164z" />
<glyph unicode="&#x2122;" horiz-adv-x="2048" d="M115 1303v147h690v-147h-260v-697h-166v697h-264zM975 606v844h242l231 -598l231 598h240v-844h-168v629h-4l-244 -629h-112l-246 629h-4v-629h-166z" />
<glyph unicode="&#x25fc;" horiz-adv-x="972" d="M0 0v973h973v-973h-973z" />
<glyph unicode="&#xfb01;" horiz-adv-x="1175" d="M12 813v158h193v203q0 88 20 158.5t62 125.5t113 85t167 30q72 0 121 -14l-22 -166q-54 14 -97 14q-53 0 -88.5 -18.5t-53 -53.5t-24 -72.5t-6.5 -88.5v-203h226v-158h-226v-813h-192v813h-193zM782 1321q0 54 36.5 89.5t90.5 35.5t91.5 -35.5t37.5 -89.5q0 -53 -37 -88 t-92 -35q-54 0 -90.5 36t-36.5 87zM813 0v971h193v-971h-193z" />
<glyph unicode="&#xfb02;" horiz-adv-x="1175" d="M12 813v158h193v203q0 88 20 158.5t62 125.5t113 85t167 30q72 0 121 -14l-22 -166q-54 14 -97 14q-53 0 -88.5 -18.5t-53 -53.5t-24 -72.5t-6.5 -88.5v-203h226v-158h-226v-813h-192v813h-193zM813 0v1548h193v-1548h-193z" />
</font>
</defs>
</svg>
