<?xml version="1.0" standalone="no"?>
<!DOCTYPE svg PUBLIC "-//W3C//DTD SVG 1.1//EN" "http://www.w3.org/Graphics/SVG/1.1/DTD/svg11.dtd" >
<svg xmlns="http://www.w3.org/2000/svg" xmlns:xlink="http://www.w3.org/1999/xlink" version="1.1">
<metadata></metadata>
<defs>
<font id="bigotesbold" horiz-adv-x="1323" >
<font-face units-per-em="2048" ascent="1638" descent="-410" />
<missing-glyph horiz-adv-x="512" />
<glyph horiz-adv-x="1024" />
<glyph horiz-adv-x="1024" />
<glyph horiz-adv-x="682" />
<glyph unicode="&#xd;" horiz-adv-x="0" />
<glyph unicode=" "  horiz-adv-x="512" />
<glyph unicode="&#x09;" horiz-adv-x="512" />
<glyph unicode="&#xa0;" horiz-adv-x="512" />
<glyph unicode="!" horiz-adv-x="731" d="M166 172q0 80 58 137.5t141 57.5t141.5 -56.5t58.5 -136.5q0 -82 -58.5 -138t-141.5 -56q-81 0 -140 55.5t-59 136.5zM193 485v965h344v-965h-344z" />
<glyph unicode="&#x22;" horiz-adv-x="1019" d="M176 895v555h268v-555h-268zM575 895v555h267v-555h-267z" />
<glyph unicode="#" horiz-adv-x="1234" d="M94 410v213h203l31 204h-174v213h200l60 410h227l-59 -410h159l60 410h225l-57 -410h172v-213h-203l-29 -204h174v-213h-200l-62 -410h-225l59 410h-161l-60 -410h-225l59 410h-174zM524 623h160l29 204h-162z" />
<glyph unicode="$" d="M72 168l215 225q51 -60 137 -100.5t154 -40.5v358q-81 23 -138.5 44t-120 56.5t-100.5 78t-63 106t-25 143.5q0 97 41 179t107.5 134.5t146 82.5t162.5 34v142h149v-140q280 -11 459 -155q-14 -16 -87 -98.5t-112 -124.5q-50 50 -121 79t-139 31v-328q57 -18 93 -30.5 t90.5 -35.5t89 -45t75 -57t63.5 -73.5t38.5 -91t15.5 -113.5q0 -108 -40 -194.5t-107 -140t-150.5 -82.5t-175.5 -31v-150h-151v150q-140 5 -273.5 52t-232.5 136zM444 1061q0 -63 36.5 -98.5t107.5 -53.5v297q-61 -7 -102.5 -44t-41.5 -101zM729 250q70 5 110 47t40 113 q0 67 -38.5 103.5t-111.5 59.5v-323z" />
<glyph unicode="%" horiz-adv-x="1865" d="M59 1087q0 163 114 275.5t276 112.5t275.5 -112.5t113.5 -275.5q0 -160 -114 -273.5t-275 -113.5t-275.5 113.5t-114.5 273.5zM289 1087q0 -66 47 -111.5t113 -45.5t112.5 45.5t46.5 111.5t-46.5 113t-112.5 47t-113 -47t-47 -113zM424 20l846 1496l190 -93l-854 -1493z M1042 362q0 160 114.5 274t275.5 114t275 -114t114 -274t-114 -273.5t-275 -113.5t-275.5 113.5t-114.5 273.5zM1272 362q0 -66 47 -111.5t113 -45.5q65 0 112 46t47 111q0 67 -47 113.5t-112 46.5q-66 0 -113 -47t-47 -113z" />
<glyph unicode="&#x26;" horiz-adv-x="1599" d="M92 403q0 266 303 402q-149 146 -149 315q0 76 26.5 138.5t71 104.5t103.5 71t122 42t129 13q68 0 131 -13.5t120 -43t99.5 -72t67.5 -104.5t25 -136q0 -129 -77.5 -219t-213.5 -160l182 -186l146 223h372l-313 -420l360 -358h-423l-138 141q-160 -170 -424 -170 q-81 0 -155.5 16.5t-141.5 51t-116 84.5t-78 122t-29 158zM428 418q0 -82 60 -132t137 -50q135 0 213 110l-256 266q-71 -29 -112.5 -74t-41.5 -120zM563 1110q0 -102 109 -188q168 71 168 188q0 57 -38 95t-100 38q-60 0 -99.5 -38t-39.5 -95z" />
<glyph unicode="'" horiz-adv-x="620" d="M176 895v555h266v-555h-266z" />
<glyph unicode="(" horiz-adv-x="700" d="M59 590q0 252 77.5 490.5t223.5 439.5l230 -113q-266 -368 -266 -817t266 -817l-230 -113q-146 201 -223.5 439.5t-77.5 490.5z" />
<glyph unicode=")" horiz-adv-x="700" d="M111 -227q266 368 266 817t-266 817l229 113q146 -201 223.5 -439.5t77.5 -490.5t-77.5 -490.5t-223.5 -439.5z" />
<glyph unicode="*" horiz-adv-x="1001" d="M57 1069l72 205l260 -90v266h225v-266l260 82l70 -205l-262 -82l166 -219l-184 -129l-166 223l-162 -215l-180 129l166 213z" />
<glyph unicode="+" horiz-adv-x="1363" d="M115 492v258h434v428h266v-428h436v-258h-434v-429h-266v429h-436z" />
<glyph unicode="," horiz-adv-x="614" d="M41 -254l154 582h321l-199 -582h-276z" />
<glyph unicode="-" horiz-adv-x="667" d="M74 403v267h520v-267h-520z" />
<glyph unicode="." horiz-adv-x="614" d="M100 178q0 82 61.5 142.5t147.5 60.5t145.5 -57.5t59.5 -143.5q0 -85 -59.5 -142.5t-145.5 -57.5q-87 0 -148 57t-61 141z" />
<glyph unicode="/" horiz-adv-x="849" d="M-14 -31l632 1592l232 -80l-633 -1587z" />
<glyph unicode="0" d="M94 729q0 126 19.5 236.5t63 208t108.5 166.5t162 109t217 40t216 -40t160.5 -109t107.5 -166.5t62 -208t19 -236.5q0 -127 -19 -238t-62 -209.5t-107.5 -168.5t-160.5 -111t-216 -41t-217 41t-162 111t-108.5 168.5t-63 210t-19.5 237.5zM446 729q0 -62 5 -121 t19.5 -125t38 -114.5t63.5 -80.5t92 -32q64 0 108.5 46t66 122.5t30 150t8.5 154.5q0 61 -4.5 118.5t-19 123.5t-36.5 114.5t-61.5 80.5t-91.5 32t-92 -32t-63.5 -80.5t-38 -114t-19.5 -124t-5 -118.5z" />
<glyph unicode="1" d="M131 1100l477 350h316v-1450h-344v1065l-271 -209z" />
<glyph unicode="2" d="M109 1022q16 143 94 250t197 162t262 55q103 0 195.5 -27.5t166.5 -80.5t118 -140t44 -197q0 -75 -19 -139t-59 -120t-77.5 -94.5t-98.5 -92.5l-336 -299h592v-299h-1049v287l566 512q118 105 118 223q0 78 -49.5 126t-130.5 48q-85 0 -139.5 -59.5t-65.5 -159.5z" />
<glyph unicode="3" d="M66 346l319 84q22 -77 87 -128.5t159 -51.5q85 0 148 45.5t63 138.5q0 53 -25.5 91.5t-69 59.5t-93.5 30.5t-107 9.5h-92v252h100q254 0 254 172q0 75 -53 117t-129 42q-74 0 -128 -44t-71 -117l-319 73q51 176 200.5 272.5t339.5 96.5q98 0 187.5 -25.5t162.5 -74.5 t116.5 -129t43.5 -181q0 -118 -67.5 -201.5t-176.5 -113.5v-6q124 -29 201.5 -122t77.5 -214q0 -92 -31.5 -169.5t-84.5 -130.5t-123.5 -90t-148.5 -54t-159 -17q-101 0 -192 22.5t-168.5 68t-135 121t-85.5 173.5z" />
<glyph unicode="4" d="M51 283v288l590 879h412v-889h200v-278h-198v-283h-322v283h-682zM385 561h350v537h-6z" />
<glyph unicode="5" d="M82 330l313 96q24 -77 87 -125.5t147 -48.5q93 0 155 55.5t62 155.5q0 62 -26 107t-70.5 68.5t-94 34.5t-106.5 11q-80 0 -179 -17t-175 -46l34 829h889v-295h-583l-13 -229q60 14 146 14q148 0 265 -50.5t188 -156.5t71 -254q0 -127 -47 -228.5t-126 -163.5t-178 -94 t-208 -32q-199 0 -350.5 99.5t-200.5 269.5z" />
<glyph unicode="6" d="M88 479q0 120 40.5 223.5t121.5 225.5l350 522h416l-357 -496l-6 -10q46 17 103 17q127 0 235 -58t174 -168t66 -248q0 -121 -45.5 -221t-123.5 -166t-181.5 -102.5t-221.5 -36.5q-158 0 -287 62t-206.5 181.5t-77.5 274.5zM432 477q0 -96 62.5 -162.5t164.5 -66.5 q103 0 165.5 63.5t62.5 167.5q0 100 -62 164t-163 64q-103 0 -166.5 -63.5t-63.5 -166.5z" />
<glyph unicode="7" d="M129 1155v295h1053v-274l-555 -1176h-400l588 1155h-686z" />
<glyph unicode="8" d="M117 412q0 125 74.5 218.5t185.5 127.5v4q-100 37 -160.5 117t-60.5 196q0 130 71 226t184 142t251 46q101 0 191.5 -26.5t160.5 -76t111.5 -128.5t41.5 -177q0 -118 -60 -201t-161 -116v-6q113 -33 186.5 -126t73.5 -218q0 -111 -44.5 -199t-120.5 -142.5t-172.5 -83 t-206.5 -28.5t-206.5 28t-173 82.5t-121 142t-44.5 198.5zM459 426q0 -87 56 -140t147 -53t145.5 52.5t54.5 140.5q0 85 -56.5 141t-143.5 56q-90 0 -146.5 -55t-56.5 -142zM489 1057q0 -71 48 -121.5t125 -50.5q74 0 124 51t50 121q0 71 -50.5 118.5t-123.5 47.5 q-77 0 -125 -46.5t-48 -119.5z" />
<glyph unicode="9" d="M90 963q0 121 45.5 221t123.5 166t181.5 102.5t221.5 36.5q159 0 288 -62t206 -181.5t77 -274.5q0 -120 -40.5 -223.5t-121.5 -225.5l-350 -522h-416l361 500l4 6q-53 -17 -103 -17q-127 0 -235.5 58t-175 168t-66.5 248zM434 973q0 -100 62 -164t163 -64 q103 0 166.5 63.5t63.5 166.5q0 97 -62 164t-163 67q-104 0 -167 -64t-63 -169z" />
<glyph unicode=":" horiz-adv-x="679" d="M139 180q0 81 60.5 139t142.5 58q80 0 139.5 -57t59.5 -138t-59 -137.5t-140 -56.5q-83 0 -143 55.5t-60 136.5zM139 836q0 81 60.5 138.5t142.5 57.5q80 0 139.5 -56.5t59.5 -135.5q0 -81 -59.5 -139t-139.5 -58q-83 0 -143 56t-60 137z" />
<glyph unicode=";" horiz-adv-x="679" d="M61 -254l154 582h328l-199 -582h-283zM141 838q0 82 59 139t142 57q81 0 140 -56.5t59 -137.5t-58.5 -138t-140.5 -57q-81 0 -141 56t-60 137z" />
<glyph unicode="&#x3c;" horiz-adv-x="1363" d="M162 514v211l1040 438v-278l-627 -269l627 -260v-280z" />
<glyph unicode="=" horiz-adv-x="1363" d="M139 307v252h1086v-252h-1086zM139 686v252h1086v-252h-1086z" />
<glyph unicode="&#x3e;" horiz-adv-x="1363" d="M162 76v280l626 260l-626 269v278l1040 -438v-211z" />
<glyph unicode="?" horiz-adv-x="1118" d="M82 1044q24 215 165.5 330t348.5 115q95 0 179.5 -24.5t153.5 -72.5t109.5 -128.5t40.5 -184.5q0 -65 -14.5 -116t-49 -96.5t-69.5 -78t-96 -81.5q-67 -53 -89 -90t-22 -101v-53h-319v78q0 98 37 161t125 146l67 63q42 40 63 71.5t21 74.5q0 66 -40 104.5t-109 38.5 q-81 0 -126 -55t-50 -135zM381 172q0 80 59 137.5t142 57.5q82 0 140 -56.5t58 -136.5q0 -82 -57 -138t-141 -56q-81 0 -141 56t-60 136z" />
<glyph unicode="@" horiz-adv-x="1638" d="M59 723q0 160 62.5 302t168.5 243t252 160t306 59q117 0 224.5 -26.5t201 -81.5t163 -133t109 -187t39.5 -238q0 -229 -118 -361t-302 -132q-82 0 -134 35.5t-60 95.5h-8q-34 -54 -96.5 -92.5t-147.5 -38.5q-136 0 -215.5 95.5t-79.5 250.5q0 116 47.5 220.5t139.5 172.5 t206 68q75 0 128 -32t67 -79h2l14 70h221l-63 -322q-3 -17 -9 -47.5t-9 -48t-6 -39t-3 -35.5q0 -74 60 -74q66 0 111.5 74.5t45.5 210.5q0 232 -145 359.5t-385 127.5q-248 0 -404.5 -163.5t-156.5 -413.5q0 -258 163 -412.5t424 -154.5q279 0 471 176l130 -144 q-228 -225 -623 -225q-172 0 -319.5 56.5t-251 156.5t-162 241.5t-58.5 305.5zM668 674q0 -60 26 -102t86 -42q57 0 97.5 41t57.5 95t17 110q0 160 -114 160q-73 0 -121.5 -82t-48.5 -180z" />
<glyph unicode="A" horiz-adv-x="1492" d="M-29 0l609 1450h340l602 -1450h-389l-113 285h-561l-107 -285h-381zM559 565h365l-181 498z" />
<glyph unicode="B" horiz-adv-x="1361" d="M150 0v1450h577q72 0 138 -10.5t132.5 -37t115 -67.5t78.5 -107t30 -151q0 -117 -64 -196.5t-174 -116.5v-4q128 -21 212.5 -111.5t84.5 -226.5q0 -92 -31 -165t-83 -120.5t-124 -79t-150 -44.5t-165 -13h-577zM487 283h197q46 0 86 7.5t78 25t60 53.5t22 86 q0 86 -64 122.5t-184 36.5h-195v-331zM487 872h189q99 0 153 40.5t54 117.5q0 141 -224 141h-172v-299z" />
<glyph unicode="C" horiz-adv-x="1425" d="M82 727q0 228 104.5 403t282.5 267t399 92q159 0 306 -56t237 -157l-237 -238q-48 65 -126.5 99t-166.5 34q-183 0 -300.5 -126t-117.5 -318q0 -196 115.5 -320t295.5 -124q101 0 180 39.5t128 107.5l243 -229q-211 -240 -563 -240q-166 0 -310 56t-247.5 155.5t-163 243 t-59.5 311.5z" />
<glyph unicode="D" horiz-adv-x="1585" d="M150 0v1450h524q130 0 245 -21.5t224 -74.5t187.5 -133.5t125.5 -206.5t47 -285q0 -148 -46.5 -271t-124.5 -206.5t-183.5 -141t-220.5 -84t-238 -26.5h-540zM492 303h165q79 0 147.5 13t131 44.5t107 79t70.5 121.5t26 168q0 95 -26.5 169t-70.5 121t-106 77t-128 42.5 t-142 12.5h-174v-848z" />
<glyph unicode="E" horiz-adv-x="1243" d="M150 0v1450h974v-297h-637v-272h603v-281h-603v-301h674v-299h-1011z" />
<glyph unicode="F" horiz-adv-x="1179" d="M150 0v1450h954v-299h-608v-299h561v-289h-561v-563h-346z" />
<glyph unicode="G" horiz-adv-x="1574" d="M82 727q0 228 104.5 403t282.5 267t399 92q169 0 317 -52t242 -141l-221 -252q-53 62 -137.5 99t-187.5 37q-185 0 -305.5 -128.5t-120.5 -324.5q0 -206 116 -331.5t326 -125.5q128 0 219 39v264h-276v283h598v-768q-238 -125 -559 -125q-231 0 -412 95t-283 269.5 t-102 399.5z" />
<glyph unicode="H" horiz-adv-x="1564" d="M150 0v1450h350v-549h565v549h350v-1450h-350v606h-565v-606h-350z" />
<glyph unicode="I" horiz-adv-x="651" d="M150 0v1450h352v-1450h-352z" />
<glyph unicode="J" horiz-adv-x="1083" d="M-6 301l309 105q14 -58 52.5 -92.5t93.5 -34.5q81 0 111 54t30 161v956h352v-954q0 -75 -11.5 -144t-44 -142.5t-83.5 -126.5t-138 -87.5t-200 -34.5q-180 0 -304.5 93.5t-166.5 246.5z" />
<glyph unicode="K" horiz-adv-x="1456" d="M150 0v1450h344v-590h6l518 590h438l-625 -668l662 -782h-457l-538 668h-4v-668h-344z" />
<glyph unicode="L" horiz-adv-x="1077" d="M150 0v1450h352v-1145h561v-305h-913z" />
<glyph unicode="M" horiz-adv-x="1955" d="M150 0v1450h497l330 -930h8l315 930h506v-1450h-342l9 1026h-7l-376 -1026h-246l-367 1026h-6l8 -1026h-329z" />
<glyph unicode="N" horiz-adv-x="1617" d="M150 0v1450h399l581 -946h7l-9 946h340v-1450h-397l-584 948h-6l8 -948h-339z" />
<glyph unicode="O" horiz-adv-x="1742" d="M82 731q0 228 102.5 401.5t281 265t404.5 91.5q227 0 406 -91.5t282 -265t103 -401.5q0 -227 -102.5 -403t-282.5 -271.5t-406 -95.5q-225 0 -404 95.5t-281.5 271.5t-102.5 403zM457 731q0 -197 115.5 -323.5t297.5 -126.5q183 0 299.5 126.5t116.5 323.5 q0 192 -116.5 317.5t-299.5 125.5t-298 -125.5t-115 -317.5z" />
<glyph unicode="P" horiz-adv-x="1310" d="M150 0v1450h532q98 0 181 -14.5t155.5 -47.5t122.5 -83.5t79 -127t29 -173.5q0 -122 -46.5 -212.5t-128.5 -142.5t-181.5 -77t-218.5 -25h-174v-547h-350zM500 825h147q71 0 124.5 14.5t90.5 55.5t37 106q0 50 -20 84t-57 51t-77 24t-92 7h-153v-342z" />
<glyph unicode="Q" horiz-adv-x="1755" d="M74 743q0 217 102 388t281 264.5t403 93.5q223 0 401 -93t278.5 -262t100.5 -384q0 -155 -62.5 -276.5t-152.5 -194.5v-7l306 7v-279h-883q-173 0 -315.5 50t-244.5 143t-158 234t-56 316zM451 739q0 -196 113.5 -318t293.5 -122t296 122.5t116 317.5q0 191 -114.5 311.5 t-295.5 120.5q-178 0 -293.5 -121t-115.5 -311z" />
<glyph unicode="R" horiz-adv-x="1357" d="M150 0v1450h552q88 0 165.5 -13t150 -45t124.5 -81t83.5 -125.5t31.5 -173.5q0 -146 -79 -247t-222 -144l379 -621h-409l-314 575h-118v-575h-344zM492 829h165q48 0 89 7.5t80.5 25.5t62 55t22.5 89q0 161 -233 161h-186v-338z" />
<glyph unicode="S" horiz-adv-x="1210" d="M31 172l229 234q55 -67 141.5 -110.5t171.5 -43.5q88 0 144.5 38t56.5 120q0 32 -14.5 58t-35.5 44t-64.5 37.5t-80.5 32.5t-106 34q-63 20 -111 41t-99 55.5t-84.5 76.5t-55 104.5t-21.5 138.5q0 116 49 206t131 143t179 79.5t203 26.5q127 0 254 -46t221 -132 l-224 -236q-43 56 -116 90.5t-142 34.5q-51 0 -93.5 -11.5t-75.5 -45.5t-33 -88q0 -24 6 -42.5t22 -34.5t31 -27t46 -23.5t53 -20.5t65 -22t68 -22t67.5 -24.5t69 -30t63.5 -35.5t60 -44t48.5 -52.5t40 -63.5t24 -75.5t9.5 -89.5q0 -121 -46 -215.5t-124.5 -152t-176 -86.5 t-208.5 -29q-157 0 -301.5 55t-240.5 154z" />
<glyph unicode="T" horiz-adv-x="1189" d="M10 1151v299h1170v-299h-410v-1151h-350v1151h-410z" />
<glyph unicode="U" horiz-adv-x="1511" d="M135 547v903h348v-875q0 -61 15.5 -113t47 -94.5t85.5 -67t125 -24.5q72 0 126 24.5t85 67t46 94.5t15 113v875h350v-903q0 -262 -170.5 -424t-453.5 -162q-285 0 -452 161t-167 425z" />
<glyph unicode="V" horiz-adv-x="1396" d="M-31 1450h393l336 -1028h9l333 1028h387l-559 -1450h-350z" />
<glyph unicode="W" horiz-adv-x="2099" d="M0 1450h377l229 -965h6l258 965h365l260 -965h6l234 965h364l-413 -1450h-347l-286 981h-6l-287 -981h-348z" />
<glyph unicode="X" horiz-adv-x="1439" d="M-16 0l508 766l-467 684h421l271 -451l266 451h408l-459 -684l524 -766h-432l-317 512l-306 -512h-417z" />
<glyph unicode="Y" horiz-adv-x="1370" d="M-41 1450h424l309 -537l309 537h410l-557 -836v-614h-350v614z" />
<glyph unicode="Z" horiz-adv-x="1300" d="M80 0v303l690 850h-674v297h1112v-281l-706 -866h721v-303h-1143z" />
<glyph unicode="[" horiz-adv-x="700" d="M109 -319v1818h442v-209h-182v-1401h182v-208h-442z" />
<glyph unicode="\" horiz-adv-x="849" d="M2 1481l231 80l631 -1592l-231 -75z" />
<glyph unicode="]" horiz-adv-x="700" d="M150 -111h182v1401h-182v209h442v-1818h-442v208z" />
<glyph unicode="^" horiz-adv-x="1413" d="M150 702l436 748h241l435 -748h-304l-253 437l-252 -437h-303z" />
<glyph unicode="_" horiz-adv-x="1024" d="M0 -154h1024v-182h-1024v182z" />
<glyph unicode="`" horiz-adv-x="614" d="M-80 1466h340l213 -295h-254z" />
<glyph unicode="a" horiz-adv-x="1159" d="M68 295q0 344 655 344v16q0 72 -51 110t-133 38q-68 0 -134.5 -29.5t-117.5 -75.5l-170 183q89 84 207.5 128t246.5 44q253 0 361 -128t108 -411v-514h-307v109h-6q-38 -62 -116.5 -98t-172.5 -36q-66 0 -128 17t-118 52.5t-90 100t-34 150.5zM377 305q0 -54 43 -79 t102 -25q102 0 156.5 55.5t54.5 153.5v34h-43q-63 0 -112 -5t-98 -18.5t-76 -43t-27 -72.5z" />
<glyph unicode="b" horiz-adv-x="1349" d="M135 0v1548h336v-637h4q49 59 128 98.5t183 39.5q143 0 254.5 -74t169.5 -195.5t58 -265.5q0 -107 -33.5 -205t-94.5 -173.5t-154 -120t-204 -44.5q-105 0 -194.5 42.5t-138.5 119.5h-5v-133h-309zM457 512q0 -104 68 -183t177 -79q112 0 177 78.5t65 185.5 q0 105 -65 182.5t-177 77.5q-109 0 -177 -79t-68 -183z" />
<glyph unicode="c" horiz-adv-x="1030" d="M80 510q0 163 76 288t204.5 190t288.5 65q110 0 213.5 -38t165.5 -100l-194 -225q-29 37 -78.5 59.5t-100.5 22.5q-102 0 -168.5 -77.5t-66.5 -184.5q0 -109 66 -184.5t173 -75.5q53 0 103 20t80 56l186 -228q-63 -61 -163.5 -96t-213.5 -35q-162 0 -290.5 64.5 t-204.5 189t-76 289.5z" />
<glyph unicode="d" horiz-adv-x="1347" d="M80 514q0 108 34 205t95 170t152.5 116.5t199.5 43.5q104 0 183 -39.5t128 -98.5h5v637h335v-1548h-309v133h-4q-49 -77 -139 -119.5t-195 -42.5q-147 0 -259.5 77t-169 199t-56.5 267zM403 514q0 -107 65 -185.5t177 -78.5q109 0 177.5 79t68.5 183t-68.5 183t-177.5 79 q-112 0 -177 -77.5t-65 -182.5z" />
<glyph unicode="e" horiz-adv-x="1220" d="M80 506q0 163 73.5 289t198 192t279.5 66q229 0 370.5 -149t141.5 -406q0 -55 -2 -80h-740q7 -83 79 -138t165 -55q145 0 225 107l234 -148q-73 -105 -191 -161t-272 -56q-156 0 -281.5 62t-202.5 186t-77 291zM401 627h433q0 84 -52.5 139t-148.5 55q-95 0 -161 -56.5 t-71 -137.5z" />
<glyph unicode="f" horiz-adv-x="745" d="M0 768v252h186v98q0 79 12.5 146t44 128t80.5 103t126 67t176 25q94 0 161 -20l-22 -267q-47 15 -92 15q-150 0 -150 -193v-102h228v-252h-228v-768h-336v768h-186z" />
<glyph unicode="g" horiz-adv-x="1347" d="M80 514q0 143 56.5 263.5t169 196t259.5 75.5q101 0 187.5 -40.5t138.5 -119.5h4v131h317v-924q0 -291 -160 -439.5t-440 -148.5q-139 0 -280.5 42t-243.5 118l168 240q71 -64 159.5 -96.5t178.5 -32.5q144 0 216.5 75.5t72.5 208.5v62h-6q-48 -63 -128.5 -99t-181.5 -36 q-113 0 -206 41.5t-154 113.5t-94 167t-33 202zM406 516q0 -108 64.5 -184t174.5 -76q112 0 180 76t68 184t-68.5 183t-179.5 75q-110 0 -174.5 -74t-64.5 -184z" />
<glyph unicode="h" horiz-adv-x="1263" d="M135 0v1548h336v-657h4q38 67 115.5 112.5t177.5 45.5q99 0 174 -36t117 -97t62 -132.5t20 -152.5v-631h-338v553q0 215 -150 215q-85 0 -133.5 -61t-48.5 -156v-551h-336z" />
<glyph unicode="i" horiz-adv-x="606" d="M111 1346q0 75 55.5 129.5t136.5 54.5q80 0 136.5 -53.5t56.5 -130.5q0 -78 -56.5 -131.5t-136.5 -53.5q-81 0 -136.5 54.5t-55.5 130.5zM135 0v1020h336v-1020h-336z" />
<glyph unicode="j" horiz-adv-x="612" d="M-76 -475l23 280q31 -10 71 -10q69 0 96 46t27 132v1047h336v-1047q0 -81 -10.5 -146.5t-38 -126.5t-72.5 -102t-117.5 -65.5t-168.5 -24.5q-80 0 -146 17zM117 1346q0 75 55.5 129.5t136.5 54.5q80 0 136.5 -53.5t56.5 -130.5q0 -78 -56.5 -131.5t-136.5 -53.5 q-81 0 -136.5 54.5t-55.5 130.5z" />
<glyph unicode="k" horiz-adv-x="1218" d="M133 0v1548h338v-942h6l326 414h407l-393 -461l410 -559h-416l-334 489h-6v-489h-338z" />
<glyph unicode="l" horiz-adv-x="610" d="M135 0v1548h340v-1548h-340z" />
<glyph unicode="m" horiz-adv-x="1892" d="M131 0v1020h326v-141h4q41 72 119.5 121t185.5 49q219 0 307 -175q112 175 326 175q99 0 173.5 -37.5t115.5 -100t61 -133t20 -147.5v-631h-335v557q0 100 -32 157.5t-114 57.5t-126 -64t-44 -157v-551h-336v582q0 90 -36 140t-109 50q-77 0 -122.5 -62t-45.5 -157v-553 h-338z" />
<glyph unicode="n" horiz-adv-x="1261" d="M131 0v1020h326v-141h4q41 73 122 121.5t183 48.5q99 0 173.5 -36t116.5 -97t62.5 -132.5t20.5 -152.5v-631h-338v557q0 215 -152 215q-87 0 -133.5 -63t-46.5 -156v-553h-338z" />
<glyph unicode="o" horiz-adv-x="1294" d="M80 514q0 123 45 225.5t122.5 170.5t180 105.5t217.5 37.5q116 0 219 -37.5t180.5 -105.5t122.5 -170.5t45 -225.5q0 -162 -77.5 -288.5t-206 -192.5t-283.5 -66q-154 0 -282 66t-205.5 192.5t-77.5 288.5zM406 514q0 -106 64.5 -185t176.5 -79t177 79t65 185 q0 105 -66.5 182.5t-177.5 77.5q-112 0 -175.5 -77t-63.5 -183z" />
<glyph unicode="p" horiz-adv-x="1345" d="M131 -492v1512h320v-125h6q52 67 135.5 110.5t189.5 43.5q144 0 256 -74t170 -195.5t58 -265.5q0 -107 -33.5 -205t-94.5 -173.5t-154 -120t-204 -44.5q-94 0 -178 38t-131 104h-4v-605h-336zM455 512q0 -104 68 -183t177 -79q112 0 176 78.5t64 185.5q0 106 -64 183 t-176 77q-109 0 -177 -79t-68 -183z" />
<glyph unicode="q" horiz-adv-x="1345" d="M80 514q0 108 34 205t95 170t152.5 116.5t199.5 43.5t192 -43t136 -111h6v125h317v-1512h-333v605h-5q-49 -66 -132 -104t-177 -38q-112 0 -205.5 44.5t-153.5 120t-93 173t-33 205.5zM403 514q0 -107 65 -185.5t177 -78.5q109 0 177.5 79t68.5 183t-68.5 183t-177.5 79 q-112 0 -177 -77.5t-65 -182.5z" />
<glyph unicode="r" horiz-adv-x="811" d="M131 0v1020h324v-148h4q39 80 112 128.5t164 48.5q48 0 72 -9l-14 -295q-43 11 -86 11q-64 0 -113 -24t-75 -61t-39 -74.5t-13 -72.5v-524h-336z" />
<glyph unicode="s" horiz-adv-x="966" d="M23 125l188 199q46 -51 112.5 -83t137.5 -32q48 0 84.5 21.5t36.5 66.5q0 44 -44 67t-159 50q-60 14 -107 34t-93 53.5t-71.5 87t-25.5 122.5q0 87 38.5 155.5t101 107.5t135 59t149.5 20q119 0 227.5 -37t181.5 -107l-184 -190q-99 92 -213 92q-53 0 -90 -20.5 t-37 -61.5q0 -40 39 -59t148 -43q325 -73 325 -312q0 -92 -38.5 -161.5t-103 -109t-138.5 -58.5t-156 -19q-128 0 -247.5 41t-196.5 117z" />
<glyph unicode="t" horiz-adv-x="761" d="M4 768v252h162v268h330v-268h239v-252h-239v-389q0 -74 28.5 -108.5t98.5 -34.5q58 0 98 16l4 -246q-91 -31 -195 -31q-194 0 -278 94t-84 269v430h-164z" />
<glyph unicode="u" horiz-adv-x="1257" d="M121 389v631h338v-553q0 -47 6.5 -83t22.5 -68t47 -49t75 -17q84 0 132.5 63.5t48.5 155.5v551h335v-1020h-323v141h-4q-39 -72 -122 -121t-185 -49q-98 0 -172 36t-116 97t-62.5 132.5t-20.5 152.5z" />
<glyph unicode="v" horiz-adv-x="1161" d="M-2 1020h371l215 -662h6l215 662h358l-401 -1020h-363z" />
<glyph unicode="w" horiz-adv-x="1783" d="M0 1020h362l177 -645h6l182 645h338l188 -645h4l179 645h348l-354 -1020h-338l-201 635h-4l-197 -635h-338z" />
<glyph unicode="x" horiz-adv-x="1216" d="M-6 0l407 535l-368 485h391l190 -272l193 272h379l-367 -485l404 -535h-396l-219 313l-225 -313h-389z" />
<glyph unicode="y" horiz-adv-x="1161" d="M-2 1020h373l227 -655h6l203 655h356l-456 -1174q-33 -84 -69.5 -143t-89 -105t-124.5 -68t-166 -22q-104 0 -184 23l37 283q63 -19 108 -19q73 0 108 32t64 105l33 84z" />
<glyph unicode="z" horiz-adv-x="1048" d="M70 0v262l479 500h-461v258h870v-252l-493 -508h514v-260h-909z" />
<glyph unicode="{" horiz-adv-x="700" d="M12 477v225q138 0 138 144v350q0 140 75.5 221.5t204.5 81.5h168v-215h-96q-94 0 -94 -123v-342q0 -55 -20 -100t-51 -70.5t-62 -40t-58 -16.5v-4q29 -3 58.5 -15.5t61 -37.5t51.5 -72.5t20 -110.5v-334q0 -122 94 -122h96v-215h-168q-129 0 -204.5 81.5t-75.5 221.5v342 q0 151 -138 151z" />
<glyph unicode="|" horiz-adv-x="493" d="M113 1536h268v-2048h-266z" />
<glyph unicode="}" horiz-adv-x="700" d="M102 -104h97q94 0 94 122v334q0 63 20 110.5t51 72.5t60.5 37.5t58.5 15.5v4q-27 2 -58 16.5t-61.5 40t-50.5 70.5t-20 100v342q0 123 -94 123h-97v215h168q129 0 205 -82t76 -221v-350q0 -144 137 -144v-225q-137 0 -137 -151v-342q0 -139 -76 -221t-205 -82h-168v215z " />
<glyph unicode="~" horiz-adv-x="1363" d="M174 604q104 203 281 203q118 0 245 -76q137 -82 203 -82q51 0 91.5 38t86.5 108l133 -207v-4q-53 -93 -119.5 -149t-164.5 -56q-64 0 -114.5 17.5t-115.5 60.5q-66 41 -115.5 59.5t-103.5 18.5q-102 0 -172 -144z" />
<glyph unicode="&#xa1;" horiz-adv-x="731" d="M166 868q0 81 59 137t140 56q83 0 141.5 -56.5t58.5 -138.5q0 -80 -58.5 -136t-141.5 -56t-141 57t-58 137zM193 -410v965h344v-965h-344z" />
<glyph unicode="&#xa2;" d="M166 512q0 219 129.5 361.5t347.5 175.5v131h156v-131q98 -6 184 -38.5t141 -90.5l-170 -213q-64 67 -155 79v-553q94 9 162 80l165 -209q-58 -58 -144 -91.5t-183 -41.5v-133h-156v133q-216 25 -346.5 173.5t-130.5 367.5zM455 510q0 -100 49.5 -174t138.5 -98v544 q-90 -23 -139 -96.5t-49 -175.5z" />
<glyph unicode="&#xa3;" d="M147 0v289h195v327h-195v236h195v125q0 70 18 139t59.5 137t101.5 120t151.5 84t201.5 32q252 0 406 -141l-197 -226q-33 36 -83 57t-105 21q-50 0 -88.5 -15t-62 -39t-38.5 -57t-20.5 -65.5t-5.5 -67.5v-104h319v-236h-319v-327h530v-289h-1063z" />
<glyph unicode="&#xa4;" d="M59 156l177 174q-72 113 -72 266q0 158 65 260l-168 166l168 166l168 -166q129 76 267 76q142 0 266 -72l162 162l172 -166l-166 -164q69 -113 69 -262q0 -70 -19.5 -145t-53.5 -127l168 -166l-166 -172l-172 172q-109 -68 -260 -68q-63 0 -134 20t-127 52l-174 -176z M422 596q0 -108 66.5 -182t175.5 -74q112 0 177.5 73.5t65.5 182.5q0 108 -65.5 181t-177.5 73q-109 0 -175.5 -73t-66.5 -181z" />
<glyph unicode="&#xa5;" d="M25 1450h378l271 -532l264 532h367l-367 -598h254v-211h-367v-133h367v-211h-367v-297h-323v297h-365v211h365v133h-365v211h260z" />
<glyph unicode="&#xa6;" horiz-adv-x="493" d="M113 -358v741h268v-741h-268zM113 641v741h268v-741h-268z" />
<glyph unicode="&#xa7;" horiz-adv-x="1243" d="M82 -55l250 178q44 -73 121 -111.5t153 -38.5q57 0 103.5 27.5t46.5 77.5q0 27 -11.5 48t-27 36t-55 33t-72 30t-100.5 36q-2 1 -3 1q-71 25 -116 44.5t-96.5 50t-80 63.5t-48 81.5t-19.5 108.5q0 182 176 283q-108 79 -108 231q0 91 43.5 163t114 114.5t151 64 t162.5 21.5q154 0 275 -54t192 -157l-238 -180q-36 56 -95 89.5t-120 33.5q-57 0 -101 -26t-44 -75q0 -52 53.5 -86t185.5 -82q69 -26 118 -48.5t101.5 -56.5t84.5 -71t52.5 -89t20.5 -114q0 -80 -42 -148.5t-112 -107.5q103 -71 103 -225q0 -82 -30.5 -150t-80 -112 t-115.5 -74.5t-134.5 -43.5t-139.5 -13q-155 0 -297 64.5t-221 183.5zM428 657q0 -30 12 -52.5t40.5 -41t48.5 -27.5t63 -26l192 -76q30 13 47 42.5t17 62.5q0 56 -42 90t-118 65l-176 72q-84 -32 -84 -109z" />
<glyph unicode="&#xa8;" horiz-adv-x="614" d="M-86 1348q0 67 50 116t120 49q72 0 122 -48t50 -117q0 -72 -50 -120t-122 -48t-121 49t-49 119zM360 1348q0 67 49.5 116t120.5 49q69 0 119.5 -48t50.5 -117q0 -71 -50 -119.5t-120 -48.5q-72 0 -121 49t-49 119z" />
<glyph unicode="&#xa9;" horiz-adv-x="1638" d="M41 723q0 158 61.5 301.5t166 246.5t249 163.5t303.5 60.5q157 0 300.5 -60.5t247.5 -163.5t166 -246.5t62 -301.5q0 -210 -104.5 -387t-283 -279t-388.5 -102q-159 0 -303.5 60.5t-249 162.5t-166 244.5t-61.5 300.5zM164 723q0 -133 51.5 -253.5t139 -208t208.5 -139.5 t254 -52q177 0 328.5 87.5t240.5 238t89 327.5q0 133 -52 254.5t-139.5 209.5t-208.5 140.5t-254 52.5t-254.5 -52.5t-209.5 -140.5t-140.5 -209.5t-52.5 -254.5zM373 721q0 140 66.5 248.5t176 164.5t242.5 56q103 0 194 -38.5t146 -107.5l-158 -143q-29 37 -79 58.5 t-105 21.5q-108 0 -170.5 -76.5t-62.5 -181.5q0 -107 64.5 -184.5t180.5 -77.5t181 74l147 -156q-60 -62 -148 -95.5t-190 -33.5q-136 0 -244.5 54t-174.5 162.5t-66 254.5z" />
<glyph unicode="&#xaa;" horiz-adv-x="786" d="M92 1049q0 51 24 89t60 58.5t90 33t101 16t106 3.5v8q0 35 -28 53.5t-74 18.5q-83 0 -140 -57l-110 112q50 46 121.5 71.5t146.5 25.5q285 0 285 -262v-336h-191v55h-2q-46 -70 -172 -70q-87 0 -152 46t-65 135zM291 1061q0 -27 23 -41t53 -14q53 0 82.5 28.5t29.5 73.5 v25h-24q-164 0 -164 -72z" />
<glyph unicode="&#xab;" horiz-adv-x="1112" d="M51 520l330 475l199 -129l-236 -346l238 -346l-201 -129zM514 520l330 475l198 -129l-235 -346l235 -346l-198 -129z" />
<glyph unicode="&#xac;" horiz-adv-x="1363" d="M104 672v252h1137v-627h-266v375h-871z" />
<glyph unicode="&#xad;" horiz-adv-x="667" d="M74 403v267h520v-267h-520z" />
<glyph unicode="&#xae;" horiz-adv-x="1228" d="M147 1008q0 126 63 233t171 169.5t235 62.5q192 0 328.5 -136.5t136.5 -328.5q0 -126 -62.5 -232t-169.5 -167.5t-233 -61.5q-127 0 -235 61.5t-171 167.5t-63 232zM221 1008q0 -162 115.5 -278t279.5 -116q162 0 277 116t115 278q0 164 -114.5 278.5t-277.5 114.5 q-164 0 -279.5 -114.5t-115.5 -278.5zM391 748v544h234q47 0 88.5 -8.5t78.5 -27.5t58.5 -55t21.5 -85q0 -111 -98 -151l125 -217h-205l-90 192h-33v-192h-180zM571 1067h54q25 0 41 13.5t16 33.5q0 17 -16.5 27t-40.5 10h-54v-84z" />
<glyph unicode="&#xaf;" horiz-adv-x="614" d="M-37 1231v176h688v-176h-688z" />
<glyph unicode="&#xb0;" horiz-adv-x="851" d="M82 1143q0 143 100 242.5t244 99.5t244 -99.5t100 -242.5q0 -145 -99.5 -244.5t-244.5 -99.5t-244.5 99.5t-99.5 244.5zM246 1143q0 -75 52.5 -127.5t127.5 -52.5t127.5 52.5t52.5 127.5q0 74 -52.5 127t-127.5 53t-127.5 -53t-52.5 -127z" />
<glyph unicode="&#xb1;" horiz-adv-x="1363" d="M125 63v261h1137v-261h-1137zM125 678v260h436v270h266v-270h435v-260h-435v-270h-266v270h-436z" />
<glyph unicode="&#xb2;" horiz-adv-x="860" d="M92 1169q17 140 114 222t232 82q87 0 159 -28.5t120.5 -92.5t48.5 -154q0 -46 -12 -85.5t-37.5 -74.5t-47 -57.5t-59.5 -56.5l-178 -158h334v-203h-653v189l348 317q59 56 59 115q0 37 -25 60.5t-67 23.5q-47 0 -76.5 -34.5t-34.5 -90.5z" />
<glyph unicode="&#xb3;" horiz-adv-x="860" d="M80 797l215 57q15 -48 47.5 -78.5t83.5 -30.5q48 0 81.5 22.5t33.5 72.5q0 96 -160 96h-68v172h74q133 0 133 94q0 35 -26 56.5t-68 21.5q-37 0 -65 -27t-39 -71l-216 51q31 114 125.5 178t210.5 64q62 0 117.5 -15t100 -44t70.5 -78t26 -111q0 -68 -31 -118t-86 -77 q65 -23 101 -77.5t36 -127.5q0 -71 -29.5 -126.5t-78.5 -88t-107 -49t-121 -16.5q-130 0 -227.5 61.5t-132.5 188.5z" />
<glyph unicode="&#xb4;" horiz-adv-x="614" d="M141 1171l213 295h340l-299 -295h-254z" />
<glyph unicode="&#xb5;" horiz-adv-x="1363" d="M182 -463v1483h332v-508q0 -32 3 -62t13.5 -66.5t26.5 -63t46 -44.5t69 -18q97 0 141.5 63t44.5 164v535h332v-1020h-318v117h-2q-75 -131 -227 -131q-82 0 -129 41v-490h-332z" />
<glyph unicode="&#xb6;" horiz-adv-x="1265" d="M49 1061q0 107 38 184.5t108 121t157 63.5t197 20h588v-1714h-238v1509h-174v-1509h-238v950q-200 4 -319 106.5t-119 268.5z" />
<glyph unicode="&#xb7;" horiz-adv-x="614" d="M100 594q0 82 61.5 142.5t147.5 60.5t145.5 -57.5t59.5 -143.5t-59.5 -143.5t-145.5 -57.5q-87 0 -148 57.5t-61 141.5z" />
<glyph unicode="&#xb8;" horiz-adv-x="614" d="M35 -440l55 123q80 -39 172 -39q41 0 72 15t31 52q0 33 -29 46.5t-68 13.5q-41 0 -82 -13l-63 60l137 182h168l-96 -123q14 2 37 2q41 0 75 -7.5t66.5 -25t51 -52.5t18.5 -85q0 -56 -28 -97.5t-75 -63t-96 -31t-102 -9.5q-138 0 -244 52z" />
<glyph unicode="&#xb9;" horiz-adv-x="860" d="M94 1231l297 219h217v-893h-239v627l-152 -119z" />
<glyph unicode="&#xba;" horiz-adv-x="786" d="M76 1178q0 137 91 221t226 84q138 0 229 -84t91 -221t-91.5 -223.5t-228.5 -86.5q-135 0 -226 86.5t-91 223.5zM272 1178q0 -57 31.5 -94t89.5 -37t91.5 37.5t33.5 93.5q0 54 -33.5 91.5t-91.5 37.5q-57 0 -89 -37.5t-32 -91.5z" />
<glyph unicode="&#xbb;" horiz-adv-x="1112" d="M70 866l200 129l330 -477l-330 -473l-198 129l235 344zM532 174l236 344l-236 348l199 129l332 -477l-332 -473z" />
<glyph unicode="&#xbc;" horiz-adv-x="1925" d="M94 1231l297 219h217v-893h-239v627l-152 -119zM463 18l786 1495l187 -81l-795 -1493zM1061 170v190l358 533h269v-531h118v-192h-118v-170h-218v170h-409zM1288 362h182v275h-2z" />
<glyph unicode="&#xbd;" horiz-adv-x="1925" d="M94 1231l297 219h217v-893h-239v627l-152 -119zM463 18l786 1495l187 -81l-795 -1493zM1157 608q17 139 114 221t232 82q64 0 121.5 -17t104.5 -49.5t74.5 -86.5t27.5 -123q0 -85 -41 -147.5t-115 -127.5l-178 -155h334v-205h-653v188l348 320q59 52 59 113 q0 37 -24.5 60.5t-65.5 23.5q-47 0 -77.5 -34t-35.5 -91z" />
<glyph unicode="&#xbe;" horiz-adv-x="1925" d="M80 797l215 57q15 -48 47.5 -78.5t83.5 -30.5q48 0 81.5 22.5t33.5 72.5q0 96 -160 96h-68v172h74q133 0 133 94q0 35 -26 56.5t-68 21.5q-37 0 -65 -27t-39 -71l-216 51q31 114 125.5 178t210.5 64q62 0 117.5 -15t100 -44t70.5 -78t26 -111q0 -68 -31 -118t-86 -77 q65 -23 101 -77.5t36 -127.5q0 -71 -29.5 -126.5t-78.5 -88t-107 -49t-121 -16.5q-130 0 -227.5 61.5t-132.5 188.5zM463 18l786 1495l187 -81l-795 -1493zM1061 170v190l358 533h269v-531h118v-192h-118v-170h-218v170h-409zM1288 362h182v275h-2z" />
<glyph unicode="&#xbf;" horiz-adv-x="1118" d="M39 -39q0 66 15 118.5t49 98t70 78.5t97 80q66 49 88.5 87.5t22.5 100.5v54h319v-76q0 -103 -36 -167t-125 -142l-70 -62q-42 -39 -63 -70.5t-21 -74.5q0 -66 41.5 -106t110.5 -40q81 0 126.5 56.5t47.5 136.5l327 -37q-24 -213 -167 -327.5t-349 -114.5q-93 0 -177 24 t-154 72t-111 128t-41 183zM338 866q0 82 59 138.5t142 56.5q81 0 140.5 -56t59.5 -137q0 -80 -58.5 -137t-141.5 -57q-80 0 -140.5 56.5t-60.5 135.5z" />
<glyph unicode="&#xc0;" horiz-adv-x="1492" d="M-29 0l609 1450h340l602 -1450h-389l-113 285h-561l-107 -285h-381zM346 1860h340l213 -295h-254zM559 565h365l-181 498z" />
<glyph unicode="&#xc1;" horiz-adv-x="1492" d="M-29 0l609 1450h340l602 -1450h-389l-113 285h-561l-107 -285h-381zM559 565h365l-181 498zM602 1565l213 295h340l-299 -295h-254z" />
<glyph unicode="&#xc2;" horiz-adv-x="1492" d="M-29 0l609 1450h340l602 -1450h-389l-113 285h-561l-107 -285h-381zM348 1565l254 295h303l250 -295h-266l-139 166l-140 -166h-262zM559 565h365l-181 498z" />
<glyph unicode="&#xc3;" horiz-adv-x="1492" d="M-29 0l609 1450h340l602 -1450h-389l-113 285h-561l-107 -285h-381zM369 1575q13 116 70.5 191t160.5 75q74 0 164 -41q87 -41 133 -41q36 0 55 21.5t31 62.5h145q-13 -117 -70.5 -193.5t-160.5 -76.5q-71 0 -166 43q-73 41 -129 41q-59 0 -86 -82h-147zM559 565h365 l-181 498z" />
<glyph unicode="&#xc4;" horiz-adv-x="1492" d="M-29 0l609 1450h340l602 -1450h-389l-113 285h-561l-107 -285h-381zM356 1741q0 67 50 116.5t120 49.5q72 0 122 -48.5t50 -117.5q0 -72 -50 -120t-122 -48t-121 49.5t-49 118.5zM559 565h365l-181 498zM803 1741q0 67 49.5 116.5t120.5 49.5q69 0 119.5 -48.5 t50.5 -117.5q0 -71 -50 -119.5t-120 -48.5q-71 0 -120.5 49.5t-49.5 118.5z" />
<glyph unicode="&#xc5;" horiz-adv-x="1492" d="M-29 0l609 1450h340l602 -1450h-389l-113 285h-561l-107 -285h-381zM528 1751q0 96 64.5 158.5t159.5 62.5q93 0 158 -63t65 -156q0 -94 -65 -156.5t-158 -62.5t-158.5 62t-65.5 155zM559 565h365l-181 498zM631 1751q0 -49 35 -83t86 -34t85.5 34t34.5 85t-34.5 85 t-85.5 34q-53 0 -87 -34.5t-34 -86.5z" />
<glyph unicode="&#xc6;" horiz-adv-x="2115" d="M-8 0l848 1450h1157v-297h-611v-272h576v-281h-576v-301h648v-299h-981v313h-473l-181 -313h-407zM719 596h334v557h-21z" />
<glyph unicode="&#xc7;" horiz-adv-x="1425" d="M82 727q0 228 104.5 403t282.5 267t399 92q159 0 306 -56t237 -157l-237 -238q-48 65 -126.5 99t-166.5 34q-183 0 -300.5 -126t-117.5 -318q0 -196 115.5 -320t295.5 -124q101 0 180 39.5t128 107.5l243 -229q-194 -223 -520 -238l-65 -86q14 2 37 2q41 0 75 -7.5 t66 -25t50.5 -52.5t18.5 -85q0 -56 -28 -97.5t-75 -63t-96 -31t-102 -9.5q-137 0 -243 52l55 123q80 -39 172 -39q41 0 71.5 15t30.5 52q0 60 -96 60q-41 0 -82 -13l-63 60l112 151q-144 18 -266 81t-209 160t-136.5 230.5t-49.5 286.5z" />
<glyph unicode="&#xc8;" horiz-adv-x="1243" d="M150 0v1450h974v-297h-637v-272h603v-281h-603v-301h674v-299h-1011zM279 1860h339l213 -295h-253z" />
<glyph unicode="&#xc9;" horiz-adv-x="1243" d="M150 0v1450h974v-297h-637v-272h603v-281h-603v-301h674v-299h-1011zM477 1565l213 295h340l-299 -295h-254z" />
<glyph unicode="&#xca;" horiz-adv-x="1243" d="M150 0v1450h974v-297h-637v-272h603v-281h-603v-301h674v-299h-1011zM242 1565l254 295h303l250 -295h-267l-139 166l-139 -166h-262z" />
<glyph unicode="&#xcb;" horiz-adv-x="1243" d="M150 0v1450h974v-297h-637v-272h603v-281h-603v-301h674v-299h-1011zM252 1741q0 67 50 116.5t120 49.5q72 0 122 -48.5t50 -117.5q0 -72 -50 -120t-122 -48t-121 49.5t-49 118.5zM698 1741q0 67 49.5 116.5t120.5 49.5q69 0 119.5 -48.5t50.5 -117.5q0 -71 -50 -119.5 t-120 -48.5q-72 0 -121 49.5t-49 118.5z" />
<glyph unicode="&#xcc;" horiz-adv-x="651" d="M-51 1860h340l213 -295h-254zM150 0v1450h352v-1450h-352z" />
<glyph unicode="&#xcd;" horiz-adv-x="651" d="M150 0v1450h352v-1450h-352zM150 1565l212 295h340l-299 -295h-253z" />
<glyph unicode="&#xce;" horiz-adv-x="651" d="M-80 1565l254 295h303l250 -295h-266l-139 166l-140 -166h-262zM150 0v1450h352v-1450h-352z" />
<glyph unicode="&#xcf;" horiz-adv-x="651" d="M-68 1741q0 67 50 116.5t120 49.5q72 0 122 -48.5t50 -117.5q0 -72 -50 -120t-122 -48t-121 49.5t-49 118.5zM150 0v1450h352v-1450h-352zM379 1741q0 67 49.5 116.5t120.5 49.5q69 0 119.5 -48.5t50.5 -117.5q0 -71 -50 -119.5t-120 -48.5q-71 0 -120.5 49.5 t-49.5 118.5z" />
<glyph unicode="&#xd0;" horiz-adv-x="1585" d="M27 633v219h125v598h559q127 0 240.5 -25t214.5 -80.5t174.5 -138t116 -205t42.5 -272.5q0 -146 -45.5 -268t-122 -206t-179 -142.5t-214.5 -85.5t-229 -27h-557v633h-125zM494 307h151q110 0 198.5 24t156 73.5t104.5 132t37 192.5q0 208 -125 312t-338 104h-184v-293 h370v-219h-370v-326z" />
<glyph unicode="&#xd1;" horiz-adv-x="1617" d="M150 0v1450h399l581 -946h7l-9 946h340v-1450h-397l-584 948h-6l8 -948h-339zM436 1575q13 116 71 191t161 75q73 0 163 -41q87 -41 134 -41q36 0 55 21.5t31 62.5h145q-13 -117 -70.5 -193.5t-160.5 -76.5q-71 0 -166 43q-73 41 -129 41q-59 0 -86 -82h-148z" />
<glyph unicode="&#xd2;" horiz-adv-x="1742" d="M82 731q0 228 102.5 401.5t281 265t404.5 91.5q227 0 406 -91.5t282 -265t103 -401.5q0 -227 -102.5 -403t-282.5 -271.5t-406 -95.5q-225 0 -404 95.5t-281.5 271.5t-102.5 403zM457 731q0 -197 115.5 -323.5t297.5 -126.5q183 0 299.5 126.5t116.5 323.5 q0 192 -116.5 317.5t-299.5 125.5t-298 -125.5t-115 -317.5zM526 1860h340l213 -295h-254z" />
<glyph unicode="&#xd3;" horiz-adv-x="1742" d="M82 731q0 228 102.5 401.5t281 265t404.5 91.5q227 0 406 -91.5t282 -265t103 -401.5q0 -227 -102.5 -403t-282.5 -271.5t-406 -95.5q-225 0 -404 95.5t-281.5 271.5t-102.5 403zM457 731q0 -197 115.5 -323.5t297.5 -126.5q183 0 299.5 126.5t116.5 323.5 q0 192 -116.5 317.5t-299.5 125.5t-298 -125.5t-115 -317.5zM686 1565l213 295h340l-299 -295h-254z" />
<glyph unicode="&#xd4;" horiz-adv-x="1742" d="M82 731q0 228 102.5 401.5t281 265t404.5 91.5q227 0 406 -91.5t282 -265t103 -401.5q0 -227 -102.5 -403t-282.5 -271.5t-406 -95.5q-225 0 -404 95.5t-281.5 271.5t-102.5 403zM457 731q0 -197 115.5 -323.5t297.5 -126.5q183 0 299.5 126.5t116.5 323.5 q0 192 -116.5 317.5t-299.5 125.5t-298 -125.5t-115 -317.5zM469 1565l254 295h303l250 -295h-266l-140 166l-139 -166h-262z" />
<glyph unicode="&#xd5;" horiz-adv-x="1742" d="M82 731q0 228 102.5 401.5t281 265t404.5 91.5q227 0 406 -91.5t282 -265t103 -401.5q0 -227 -102.5 -403t-282.5 -271.5t-406 -95.5q-225 0 -404 95.5t-281.5 271.5t-102.5 403zM457 731q0 -197 115.5 -323.5t297.5 -126.5q183 0 299.5 126.5t116.5 323.5 q0 192 -116.5 317.5t-299.5 125.5t-298 -125.5t-115 -317.5zM494 1575q13 116 70.5 191t160.5 75q74 0 164 -41q87 -41 133 -41q36 0 55 21.5t31 62.5h145q-13 -117 -70.5 -193.5t-160.5 -76.5q-71 0 -166 43q-73 41 -129 41q-59 0 -86 -82h-147z" />
<glyph unicode="&#xd6;" horiz-adv-x="1742" d="M82 731q0 228 102.5 401.5t281 265t404.5 91.5q227 0 406 -91.5t282 -265t103 -401.5q0 -227 -102.5 -403t-282.5 -271.5t-406 -95.5q-225 0 -404 95.5t-281.5 271.5t-102.5 403zM457 731q0 -197 115.5 -323.5t297.5 -126.5q183 0 299.5 126.5t116.5 323.5 q0 192 -116.5 317.5t-299.5 125.5t-298 -125.5t-115 -317.5zM479 1741q0 67 50 116.5t120 49.5q72 0 122 -48.5t50 -117.5q0 -72 -50 -120t-122 -48q-71 0 -120.5 49.5t-49.5 118.5zM926 1741q0 67 49.5 116.5t120.5 49.5q69 0 119.5 -48.5t50.5 -117.5q0 -71 -50 -119.5 t-120 -48.5q-72 0 -121 49.5t-49 118.5z" />
<glyph unicode="&#xd7;" horiz-adv-x="1363" d="M129 973l193 186l362 -354l356 352l187 -178l-357 -354l367 -359l-193 -190l-362 354l-360 -354l-191 182l363 358z" />
<glyph unicode="&#xd8;" horiz-adv-x="1742" d="M80 27l182 198q-180 192 -180 504q0 228 102.5 401.5t281 265t404.5 91.5q260 0 449 -119q29 33 89 99.5t89 99.5l137 -121l-176 -191q203 -206 203 -526q0 -168 -60.5 -311.5t-166 -243t-252 -155.5t-314.5 -56h-10q-274 0 -459 141l-182 -194zM438 727q0 -152 64 -246 l594 645q-85 60 -226 60q-197 0 -314.5 -131.5t-117.5 -327.5zM625 344q94 -76 243 -76q193 0 312.5 131t119.5 330q0 165 -77 266z" />
<glyph unicode="&#xd9;" horiz-adv-x="1511" d="M135 547v903h348v-875q0 -61 15.5 -113t47 -94.5t85.5 -67t125 -24.5q72 0 126 24.5t85 67t46 94.5t15 113v875h350v-903q0 -262 -170.5 -424t-453.5 -162q-285 0 -452 161t-167 425zM410 1860h340l213 -295h-254z" />
<glyph unicode="&#xda;" horiz-adv-x="1511" d="M135 547v903h348v-875q0 -61 15.5 -113t47 -94.5t85.5 -67t125 -24.5q72 0 126 24.5t85 67t46 94.5t15 113v875h350v-903q0 -262 -170.5 -424t-453.5 -162q-285 0 -452 161t-167 425zM559 1565l213 295h340l-299 -295h-254z" />
<glyph unicode="&#xdb;" horiz-adv-x="1511" d="M135 547v903h348v-875q0 -61 15.5 -113t47 -94.5t85.5 -67t125 -24.5q72 0 126 24.5t85 67t46 94.5t15 113v875h350v-903q0 -262 -170.5 -424t-453.5 -162q-285 0 -452 161t-167 425zM354 1565l254 295h303l250 -295h-266l-139 166l-140 -166h-262z" />
<glyph unicode="&#xdc;" horiz-adv-x="1511" d="M135 547v903h348v-875q0 -61 15.5 -113t47 -94.5t85.5 -67t125 -24.5q72 0 126 24.5t85 67t46 94.5t15 113v875h350v-903q0 -262 -170.5 -424t-453.5 -162q-285 0 -452 161t-167 425zM365 1741q0 67 50 116.5t120 49.5q72 0 122 -48.5t50 -117.5q0 -72 -50 -120t-122 -48 q-71 0 -120.5 49.5t-49.5 118.5zM811 1741q0 67 49.5 116.5t120.5 49.5q69 0 119.5 -48.5t50.5 -117.5q0 -71 -50 -119.5t-120 -48.5q-71 0 -120.5 49.5t-49.5 118.5z" />
<glyph unicode="&#xdd;" horiz-adv-x="1370" d="M-41 1450h424l309 -537l309 537h410l-557 -836v-614h-350v614zM559 1565l213 295h340l-299 -295h-254z" />
<glyph unicode="&#xde;" horiz-adv-x="1310" d="M150 0v1450h350v-248h182q98 0 181 -14.5t155.5 -47.5t122.5 -83.5t79 -127t29 -173.5q0 -122 -46.5 -212.5t-128.5 -142.5t-181.5 -77t-218.5 -25h-174v-299h-350zM500 578h147q71 0 124.5 14.5t90.5 55.5t37 106q0 51 -20 85.5t-57 51.5t-77 24t-92 7h-153v-344z" />
<glyph unicode="&#xdf;" horiz-adv-x="1366" d="M131 0v1026q0 119 34 217t101 172.5t175.5 116t250.5 41.5q210 0 353 -112.5t143 -297.5q0 -112 -59.5 -194.5t-153.5 -112.5v-2q143 -30 228 -135.5t85 -263.5q0 -224 -143 -353t-381 -129q-91 0 -197 25v289q79 -27 150 -27q106 0 168.5 50.5t62.5 160.5 q0 117 -76.5 175.5t-199.5 58.5h-43v264h45q19 0 39 3t45.5 13.5t45 27.5t33 48.5t13.5 73.5q0 70 -45 117.5t-127 47.5q-47 0 -84.5 -16.5t-61 -43t-38.5 -63t-21 -74t-6 -79.5v-1024h-336z" />
<glyph unicode="&#xe0;" horiz-adv-x="1159" d="M68 295q0 344 655 344v16q0 72 -51 110t-133 38q-68 0 -134.5 -29.5t-117.5 -75.5l-170 183q89 84 207.5 128t246.5 44q253 0 361 -128t108 -411v-514h-307v109h-6q-38 -62 -116.5 -98t-172.5 -36q-66 0 -128 17t-118 52.5t-90 100t-34 150.5zM229 1466h340l213 -295 h-254zM377 305q0 -54 43 -79t102 -25q102 0 156.5 55.5t54.5 153.5v34h-43q-63 0 -112 -5t-98 -18.5t-76 -43t-27 -72.5z" />
<glyph unicode="&#xe1;" horiz-adv-x="1159" d="M68 295q0 344 655 344v16q0 72 -51 110t-133 38q-68 0 -134.5 -29.5t-117.5 -75.5l-170 183q89 84 207.5 128t246.5 44q253 0 361 -128t108 -411v-514h-307v109h-6q-38 -62 -116.5 -98t-172.5 -36q-66 0 -128 17t-118 52.5t-90 100t-34 150.5zM377 305q0 -54 43 -79 t102 -25q102 0 156.5 55.5t54.5 153.5v34h-43q-63 0 -112 -5t-98 -18.5t-76 -43t-27 -72.5zM385 1171l213 295h340l-299 -295h-254z" />
<glyph unicode="&#xe2;" horiz-adv-x="1159" d="M68 295q0 344 655 344v16q0 72 -51 110t-133 38q-68 0 -134.5 -29.5t-117.5 -75.5l-170 183q89 84 207.5 128t246.5 44q253 0 361 -128t108 -411v-514h-307v109h-6q-38 -62 -116.5 -98t-172.5 -36q-66 0 -128 17t-118 52.5t-90 100t-34 150.5zM180 1171l254 295h303 l250 -295h-266l-139 166l-140 -166h-262zM377 305q0 -54 43 -79t102 -25q102 0 156.5 55.5t54.5 153.5v34h-43q-63 0 -112 -5t-98 -18.5t-76 -43t-27 -72.5z" />
<glyph unicode="&#xe3;" horiz-adv-x="1159" d="M68 295q0 344 655 344v16q0 72 -51 110t-133 38q-68 0 -134.5 -29.5t-117.5 -75.5l-170 183q89 84 207.5 128t246.5 44q253 0 361 -128t108 -411v-514h-307v109h-6q-38 -62 -116.5 -98t-172.5 -36q-66 0 -128 17t-118 52.5t-90 100t-34 150.5zM209 1182q13 116 70.5 191 t160.5 75q74 0 164 -41q87 -41 133 -41q36 0 55 21.5t31 62.5h146q-13 -117 -71 -193.5t-161 -76.5q-71 0 -166 43q-73 41 -129 41q-59 0 -86 -82h-147zM377 305q0 -54 43 -79t102 -25q102 0 156.5 55.5t54.5 153.5v34h-43q-63 0 -112 -5t-98 -18.5t-76 -43t-27 -72.5z" />
<glyph unicode="&#xe4;" horiz-adv-x="1159" d="M68 295q0 344 655 344v16q0 72 -51 110t-133 38q-68 0 -134.5 -29.5t-117.5 -75.5l-170 183q89 84 207.5 128t246.5 44q253 0 361 -128t108 -411v-514h-307v109h-6q-38 -62 -116.5 -98t-172.5 -36q-66 0 -128 17t-118 52.5t-90 100t-34 150.5zM190 1348q0 67 50 116 t120 49q72 0 122 -48t50 -117q0 -72 -50 -120t-122 -48t-121 49t-49 119zM377 305q0 -54 43 -79t102 -25q102 0 156.5 55.5t54.5 153.5v34h-43q-63 0 -112 -5t-98 -18.5t-76 -43t-27 -72.5zM637 1348q0 67 49.5 116t120.5 49q69 0 119.5 -48t50.5 -117q0 -71 -50 -119.5 t-120 -48.5q-71 0 -120.5 49t-49.5 119z" />
<glyph unicode="&#xe5;" horiz-adv-x="1159" d="M68 295q0 344 655 344v16q0 72 -51 110t-133 38q-68 0 -134.5 -29.5t-117.5 -75.5l-170 183q89 84 207.5 128t246.5 44q253 0 361 -128t108 -411v-514h-307v109h-6q-38 -62 -116.5 -98t-172.5 -36q-66 0 -128 17t-118 52.5t-90 100t-34 150.5zM365 1358q0 96 64 158.5 t159 62.5q93 0 158 -63t65 -156q0 -94 -65 -156.5t-158 -62.5t-158 62t-65 155zM377 305q0 -54 43 -79t102 -25q102 0 156.5 55.5t54.5 153.5v34h-43q-63 0 -112 -5t-98 -18.5t-76 -43t-27 -72.5zM467 1358q0 -49 35 -83t86 -34t86 34t35 85t-35 85t-86 34q-53 0 -87 -34.5 t-34 -86.5z" />
<glyph unicode="&#xe6;" horiz-adv-x="1841" d="M68 295q0 69 24.5 123t72 89.5t105 59.5t136 36t152.5 17t165 5v14q0 164 -182 164q-68 0 -135.5 -29.5t-118.5 -75.5l-168 183q86 84 205 128t247 44q119 0 201.5 -42t128.5 -108q58 69 147.5 109.5t202.5 40.5q229 0 370.5 -149t141.5 -406q0 -30 -4 -80h-737 q10 -85 79 -139t163 -54q152 0 225 107l231 -148q-150 -217 -463 -217q-122 0 -222.5 48.5t-160.5 136.5q-107 -177 -413 -177q-69 0 -135.5 18t-125.5 54t-95.5 100.5t-36.5 147.5zM377 305q0 -54 43 -79t102 -25q101 0 156 50.5t55 139.5v33h-43q-160 0 -236.5 -25 t-76.5 -94zM1020 627h432q0 84 -52.5 139t-148.5 55q-95 0 -160.5 -56.5t-70.5 -137.5z" />
<glyph unicode="&#xe7;" horiz-adv-x="1030" d="M80 510q0 163 76 288t204.5 190t288.5 65q110 0 213.5 -38t165.5 -100l-194 -225q-29 37 -78.5 59.5t-100.5 22.5q-102 0 -168.5 -77.5t-66.5 -184.5q0 -109 66 -184.5t173 -75.5q53 0 103 20t80 56l186 -228q-55 -54 -140 -87.5t-183 -41.5l-72 -92q14 2 37 2 q41 0 75 -7.5t66.5 -25t51 -52.5t18.5 -85q0 -56 -28 -97.5t-75 -63t-96 -31t-102 -9.5q-138 0 -244 52l55 123q80 -39 172 -39q41 0 72 15t31 52q0 33 -29 46.5t-68 13.5q-41 0 -82 -13l-63 60l119 157q-206 30 -334.5 173.5t-128.5 361.5z" />
<glyph unicode="&#xe8;" horiz-adv-x="1220" d="M80 506q0 163 73.5 289t198 192t279.5 66q229 0 370.5 -149t141.5 -406q0 -55 -2 -80h-740q7 -83 79 -138t165 -55q145 0 225 107l234 -148q-73 -105 -191 -161t-272 -56q-156 0 -281.5 62t-202.5 186t-77 291zM270 1466h340l213 -295h-254zM401 627h433q0 84 -52.5 139 t-148.5 55q-95 0 -161 -56.5t-71 -137.5z" />
<glyph unicode="&#xe9;" horiz-adv-x="1220" d="M80 506q0 163 73.5 289t198 192t279.5 66q229 0 370.5 -149t141.5 -406q0 -55 -2 -80h-740q7 -83 79 -138t165 -55q145 0 225 107l234 -148q-73 -105 -191 -161t-272 -56q-156 0 -281.5 62t-202.5 186t-77 291zM401 627h433q0 84 -52.5 139t-148.5 55q-95 0 -161 -56.5 t-71 -137.5zM424 1171l213 295h340l-299 -295h-254z" />
<glyph unicode="&#xea;" horiz-adv-x="1220" d="M80 506q0 163 73.5 289t198 192t279.5 66q229 0 370.5 -149t141.5 -406q0 -55 -2 -80h-740q7 -83 79 -138t165 -55q145 0 225 107l234 -148q-73 -105 -191 -161t-272 -56q-156 0 -281.5 62t-202.5 186t-77 291zM240 1171l254 295h303l250 -295h-267l-139 166l-139 -166 h-262zM401 627h433q0 84 -52.5 139t-148.5 55q-95 0 -161 -56.5t-71 -137.5z" />
<glyph unicode="&#xeb;" horiz-adv-x="1220" d="M80 506q0 163 73.5 289t198 192t279.5 66q229 0 370.5 -149t141.5 -406q0 -55 -2 -80h-740q7 -83 79 -138t165 -55q145 0 225 107l234 -148q-73 -105 -191 -161t-272 -56q-156 0 -281.5 62t-202.5 186t-77 291zM248 1348q0 67 50 116t120 49q72 0 122 -48t50 -117 q0 -72 -50 -120t-122 -48t-121 49t-49 119zM401 627h433q0 84 -52.5 139t-148.5 55q-95 0 -161 -56.5t-71 -137.5zM694 1348q0 67 49.5 116t120.5 49q69 0 119.5 -48t50.5 -117q0 -71 -50 -119.5t-120 -48.5q-72 0 -121 49t-49 119z" />
<glyph unicode="&#xec;" horiz-adv-x="606" d="M-86 1466h340l213 -295h-254zM135 0v1020h336v-1020h-336z" />
<glyph unicode="&#xed;" horiz-adv-x="606" d="M135 0v1020h336v-1020h-336zM137 1171l213 295h340l-299 -295h-254z" />
<glyph unicode="&#xee;" horiz-adv-x="606" d="M-94 1171l254 295h303l250 -295h-267l-139 166l-139 -166h-262zM135 0v1020h336v-1020h-336z" />
<glyph unicode="&#xef;" horiz-adv-x="606" d="M-86 1348q0 67 50 116t120 49q72 0 122 -48t50 -117q0 -72 -50 -120t-122 -48t-121 49t-49 119zM135 0v1020h336v-1020h-336zM360 1348q0 67 49.5 116t120.5 49q69 0 119.5 -48t50.5 -117q0 -71 -50 -119.5t-120 -48.5q-72 0 -121 49t-49 119z" />
<glyph unicode="&#xf0;" horiz-adv-x="1294" d="M80 512q0 159 72.5 281.5t195 186.5t273.5 64q103 0 167 -51l5 2q-105 154 -201 234l-221 -99l-164 144l223 96q-49 50 -154 121l261 145q34 -25 67 -52.5t67 -57.5t42 -37l231 102l178 -145l-248 -107q340 -368 340 -761q0 -281 -155.5 -446t-413.5 -165 q-117 0 -220 38.5t-179.5 107.5t-121 172.5t-44.5 226.5zM403 512q0 -105 66.5 -183.5t177.5 -78.5t177.5 78.5t66.5 183.5q0 104 -66.5 182t-179.5 78q-112 0 -177 -78t-65 -182z" />
<glyph unicode="&#xf1;" horiz-adv-x="1261" d="M131 0v1020h326v-141h4q41 73 122 121.5t183 48.5q99 0 173.5 -36t116.5 -97t62.5 -132.5t20.5 -152.5v-631h-338v557q0 215 -152 215q-87 0 -133.5 -63t-46.5 -156v-553h-338zM258 1182q13 116 70.5 191t160.5 75q74 0 164 -41q87 -41 133 -41q36 0 55 21.5t31 62.5h146 q-13 -117 -71 -193.5t-161 -76.5q-70 0 -165 43q-73 41 -129 41q-59 0 -86 -82h-148z" />
<glyph unicode="&#xf2;" horiz-adv-x="1294" d="M80 514q0 123 45 225.5t122.5 170.5t180 105.5t217.5 37.5q116 0 219 -37.5t180.5 -105.5t122.5 -170.5t45 -225.5q0 -162 -77.5 -288.5t-206 -192.5t-283.5 -66q-154 0 -282 66t-205.5 192.5t-77.5 288.5zM260 1466h340l213 -295h-254zM406 514q0 -106 64.5 -185 t176.5 -79t177 79t65 185q0 105 -66.5 182.5t-177.5 77.5q-112 0 -175.5 -77t-63.5 -183z" />
<glyph unicode="&#xf3;" horiz-adv-x="1294" d="M80 514q0 123 45 225.5t122.5 170.5t180 105.5t217.5 37.5q116 0 219 -37.5t180.5 -105.5t122.5 -170.5t45 -225.5q0 -162 -77.5 -288.5t-206 -192.5t-283.5 -66q-154 0 -282 66t-205.5 192.5t-77.5 288.5zM406 514q0 -106 64.5 -185t176.5 -79t177 79t65 185 q0 105 -66.5 182.5t-177.5 77.5q-112 0 -175.5 -77t-63.5 -183zM471 1171l213 295h340l-299 -295h-254z" />
<glyph unicode="&#xf4;" horiz-adv-x="1294" d="M80 514q0 123 45 225.5t122.5 170.5t180 105.5t217.5 37.5q116 0 219 -37.5t180.5 -105.5t122.5 -170.5t45 -225.5q0 -162 -77.5 -288.5t-206 -192.5t-283.5 -66q-154 0 -282 66t-205.5 192.5t-77.5 288.5zM254 1180l248 286h295l241 -286h-258l-135 161l-135 -161h-256z M406 514q0 -106 64.5 -185t176.5 -79t177 79t65 185q0 105 -66.5 182.5t-177.5 77.5q-112 0 -175.5 -77t-63.5 -183z" />
<glyph unicode="&#xf5;" horiz-adv-x="1294" d="M80 514q0 123 45 225.5t122.5 170.5t180 105.5t217.5 37.5q116 0 219 -37.5t180.5 -105.5t122.5 -170.5t45 -225.5q0 -162 -77.5 -288.5t-206 -192.5t-283.5 -66q-154 0 -282 66t-205.5 192.5t-77.5 288.5zM266 1182q13 116 71 191t161 75q74 0 164 -41q87 -41 133 -41 q36 0 55 21.5t31 62.5h145q-13 -117 -70.5 -193.5t-160.5 -76.5q-71 0 -166 43q-73 41 -129 41q-59 0 -86 -82h-148zM406 514q0 -106 64.5 -185t176.5 -79t177 79t65 185q0 105 -66.5 182.5t-177.5 77.5q-112 0 -175.5 -77t-63.5 -183z" />
<glyph unicode="&#xf6;" horiz-adv-x="1294" d="M80 514q0 123 45 225.5t122.5 170.5t180 105.5t217.5 37.5q116 0 219 -37.5t180.5 -105.5t122.5 -170.5t45 -225.5q0 -162 -77.5 -288.5t-206 -192.5t-283.5 -66q-154 0 -282 66t-205.5 192.5t-77.5 288.5zM252 1348q0 67 50 116t120 49q72 0 122 -48t50 -117 q0 -72 -50 -120t-122 -48t-121 49t-49 119zM406 514q0 -106 64.5 -185t176.5 -79t177 79t65 185q0 105 -66.5 182.5t-177.5 77.5q-112 0 -175.5 -77t-63.5 -183zM698 1348q0 67 49.5 116t120.5 49q69 0 119.5 -48t50.5 -117q0 -71 -50 -119.5t-120 -48.5q-72 0 -121 49 t-49 119z" />
<glyph unicode="&#xf7;" horiz-adv-x="1363" d="M162 492v260h1038v-260h-1038zM504 240q0 70 53 121t125 51t124 -51t52 -121t-52 -122t-124 -52t-125 52.5t-53 121.5zM504 1001q0 70 53 121.5t125 51.5t124 -51t52 -122q0 -73 -51.5 -123.5t-124.5 -50.5t-125.5 50.5t-52.5 123.5z" />
<glyph unicode="&#xf8;" horiz-adv-x="1294" d="M49 31l148 145q-117 133 -117 336q0 160 76 285t204.5 191.5t284.5 66.5q194 0 328 -101l147 148l123 -119l-143 -141q112 -130 112 -330q0 -160 -77 -285.5t-206 -192.5t-284 -67q-187 0 -321 96l-154 -151zM393 520q0 -74 29 -117l340 345q-51 38 -121 38 q-113 0 -180.5 -78.5t-67.5 -187.5zM524 283q47 -41 125 -41q114 0 179 78t65 188q0 72 -27 119z" />
<glyph unicode="&#xf9;" horiz-adv-x="1257" d="M121 389v631h338v-553q0 -47 6.5 -83t22.5 -68t47 -49t75 -17q84 0 132.5 63.5t48.5 155.5v551h335v-1020h-323v141h-4q-39 -72 -122 -121t-185 -49q-98 0 -172 36t-116 97t-62.5 132.5t-20.5 152.5zM283 1466h340l213 -295h-254z" />
<glyph unicode="&#xfa;" horiz-adv-x="1257" d="M121 389v631h338v-553q0 -47 6.5 -83t22.5 -68t47 -49t75 -17q84 0 132.5 63.5t48.5 155.5v551h335v-1020h-323v141h-4q-39 -72 -122 -121t-185 -49q-98 0 -172 36t-116 97t-62.5 132.5t-20.5 152.5zM449 1171l213 295h339l-299 -295h-253z" />
<glyph unicode="&#xfb;" horiz-adv-x="1257" d="M121 389v631h338v-553q0 -47 6.5 -83t22.5 -68t47 -49t75 -17q84 0 132.5 63.5t48.5 155.5v551h335v-1020h-323v141h-4q-39 -72 -122 -121t-185 -49q-98 0 -172 36t-116 97t-62.5 132.5t-20.5 152.5zM227 1171l254 295h303l250 -295h-266l-139 166l-140 -166h-262z" />
<glyph unicode="&#xfc;" horiz-adv-x="1257" d="M121 389v631h338v-553q0 -47 6.5 -83t22.5 -68t47 -49t75 -17q84 0 132.5 63.5t48.5 155.5v551h335v-1020h-323v141h-4q-39 -72 -122 -121t-185 -49q-98 0 -172 36t-116 97t-62.5 132.5t-20.5 152.5zM236 1348q0 67 50 116t120 49q72 0 122 -48t50 -117q0 -72 -50 -120 t-122 -48t-121 49t-49 119zM682 1348q0 67 49.5 116t120.5 49q69 0 119.5 -48t50.5 -117q0 -71 -50 -119.5t-120 -48.5q-72 0 -121 49t-49 119z" />
<glyph unicode="&#xfd;" horiz-adv-x="1161" d="M-2 1020h373l227 -655h6l203 655h356l-456 -1174q-33 -84 -69.5 -143t-89 -105t-124.5 -68t-166 -22q-104 0 -184 23l37 283q63 -19 108 -19q73 0 108 32t64 105l33 84zM446 1171l213 295h340l-299 -295h-254z" />
<glyph unicode="&#xfe;" horiz-adv-x="1349" d="M135 -492v2040h334v-637h6q116 138 311 138q143 0 254.5 -74t169.5 -195.5t58 -265.5q0 -145 -56 -267t-168.5 -199t-261.5 -77q-95 0 -180 39.5t-129 104.5h-4v-607h-334zM457 512q0 -104 68 -183t177 -79q112 0 177 78.5t65 185.5q0 105 -65 182.5t-177 77.5 q-109 0 -177 -79t-68 -183z" />
<glyph unicode="&#xff;" horiz-adv-x="1161" d="M-2 1020h373l227 -655h6l203 655h356l-456 -1174q-33 -84 -69.5 -143t-89 -105t-124.5 -68t-166 -22q-104 0 -184 23l37 283q63 -19 108 -19q73 0 108 32t64 105l33 84zM207 1348q0 67 50 116t120 49q72 0 122 -48t50 -117q0 -72 -50 -120t-122 -48q-71 0 -120.5 49 t-49.5 119zM653 1348q0 67 49.5 116t120.5 49q69 0 119.5 -48t50.5 -117q0 -71 -50 -119.5t-120 -48.5q-71 0 -120.5 49t-49.5 119z" />
<glyph unicode="&#x152;" horiz-adv-x="2086" d="M82 727q0 155 46.5 279t124.5 205.5t185.5 136.5t223 78.5t243.5 23.5h1065v-297h-610v-272h575v-281h-575v-301h645v-299h-1100q-127 0 -243.5 24.5t-223 81t-185 139t-125 206.5t-46.5 276zM455 721q0 -90 26.5 -162.5t70.5 -120t105 -79.5t127.5 -46t139.5 -14h102 v854h-94q-78 0 -144.5 -12.5t-129 -43.5t-106.5 -78.5t-70.5 -123.5t-26.5 -174z" />
<glyph unicode="&#x153;" horiz-adv-x="1992" d="M80 514q0 162 76 286t203 188.5t282 64.5q121 0 222.5 -49t160.5 -130q68 80 166.5 129.5t216.5 49.5q226 0 367 -149.5t141 -405.5q0 -55 -2 -80h-739q12 -85 81 -139t162 -54q145 0 225 107l232 -148q-150 -217 -461 -217q-126 0 -229 46.5t-162 123.5 q-62 -80 -159.5 -125t-221.5 -45q-116 0 -218 38.5t-178.5 108.5t-120.5 173.5t-44 226.5zM406 514q0 -108 63.5 -186t175.5 -78t177 78.5t65 185.5q0 104 -65 182t-177 78t-175.5 -77.5t-63.5 -182.5zM1174 627h432q0 84 -52.5 139t-148.5 55q-95 0 -160.5 -56.5 t-70.5 -137.5z" />
<glyph unicode="&#x178;" horiz-adv-x="1370" d="M-41 1450h424l309 -537l309 537h410l-557 -836v-614h-350v614zM299 1741q0 67 50 116.5t120 49.5q72 0 122 -48.5t50 -117.5q0 -72 -50 -120t-122 -48q-71 0 -120.5 49.5t-49.5 118.5zM745 1741q0 67 49.5 116.5t120.5 49.5q69 0 119.5 -48.5t50.5 -117.5 q0 -71 -50 -119.5t-120 -48.5q-71 0 -120.5 49.5t-49.5 118.5z" />
<glyph unicode="&#x2c6;" horiz-adv-x="614" d="M-96 1171l254 295h303l250 -295h-267l-139 166l-139 -166h-262z" />
<glyph unicode="&#x2dc;" horiz-adv-x="614" d="M-74 1182q13 116 71 191t161 75q74 0 164 -41q87 -41 133 -41q36 0 55 21.5t31 62.5h145q-13 -117 -70.5 -193.5t-160.5 -76.5q-71 0 -166 43q-73 41 -129 41q-59 0 -86 -82h-148z" />
<glyph unicode="&#x2000;" horiz-adv-x="986" />
<glyph unicode="&#x2001;" horiz-adv-x="1972" />
<glyph unicode="&#x2002;" horiz-adv-x="986" />
<glyph unicode="&#x2003;" horiz-adv-x="1972" />
<glyph unicode="&#x2004;" horiz-adv-x="657" />
<glyph unicode="&#x2005;" horiz-adv-x="493" />
<glyph unicode="&#x2006;" horiz-adv-x="328" />
<glyph unicode="&#x2007;" horiz-adv-x="328" />
<glyph unicode="&#x2008;" horiz-adv-x="246" />
<glyph unicode="&#x2009;" horiz-adv-x="394" />
<glyph unicode="&#x200a;" horiz-adv-x="109" />
<glyph unicode="&#x2010;" horiz-adv-x="667" d="M74 403v267h520v-267h-520z" />
<glyph unicode="&#x2011;" horiz-adv-x="667" d="M74 403v267h520v-267h-520z" />
<glyph unicode="&#x2012;" horiz-adv-x="667" d="M74 403v267h520v-267h-520z" />
<glyph unicode="&#x2013;" horiz-adv-x="819" d="M61 430v211h697v-211h-697z" />
<glyph unicode="&#x2014;" horiz-adv-x="1228" d="M61 428v213h1106v-213h-1106z" />
<glyph unicode="&#x2018;" horiz-adv-x="614" d="M86 895l186 555h258l-147 -555h-297z" />
<glyph unicode="&#x2019;" horiz-adv-x="614" d="M84 895l147 555h297l-186 -555h-258z" />
<glyph unicode="&#x201a;" horiz-adv-x="614" d="M82 -258l147 555h297l-186 -555h-258z" />
<glyph unicode="&#x201c;" horiz-adv-x="1038" d="M86 895l186 555h258l-151 -555h-293zM514 895l182 555h258l-145 -555h-295z" />
<glyph unicode="&#x201d;" horiz-adv-x="1038" d="M84 895l147 555h293l-182 -555h-258zM508 895l151 555h293l-184 -555h-260z" />
<glyph unicode="&#x201e;" horiz-adv-x="1038" d="M82 -258l147 555h293l-182 -555h-258zM506 -258l151 555h293l-184 -555h-260z" />
<glyph unicode="&#x2022;" horiz-adv-x="1024" d="M150 725q0 151 105.5 256.5t256.5 105.5t256.5 -105.5t105.5 -256.5t-105.5 -257t-256.5 -106t-256.5 106t-105.5 257z" />
<glyph unicode="&#x2026;" horiz-adv-x="2048" d="M135 178q0 82 61.5 142.5t145.5 60.5q86 0 145.5 -57.5t59.5 -143.5t-59 -143t-146 -57q-84 0 -145.5 57t-61.5 141zM815 178q0 82 61.5 142.5t147.5 60.5t145.5 -57.5t59.5 -143.5q0 -85 -59.5 -142.5t-145.5 -57.5q-84 0 -146.5 57.5t-62.5 140.5zM1497 178 q0 82 61.5 142.5t147.5 60.5t145.5 -57.5t59.5 -143.5q0 -85 -59.5 -142.5t-145.5 -57.5q-84 0 -146.5 57.5t-62.5 140.5z" />
<glyph unicode="&#x202f;" horiz-adv-x="394" />
<glyph unicode="&#x2039;" horiz-adv-x="651" d="M51 520l330 475l199 -129l-236 -346l238 -346l-201 -129z" />
<glyph unicode="&#x203a;" horiz-adv-x="651" d="M70 866l200 129l330 -477l-330 -473l-198 129l235 344z" />
<glyph unicode="&#x205f;" horiz-adv-x="493" />
<glyph unicode="&#x20ac;" d="M43 442l70 211h92q-2 25 -2 72q0 37 6 74h-160l74 213h117q64 223 247.5 350t434.5 127q92 0 183 -16.5t150 -45.5l-100 -258q-91 48 -244 48q-110 0 -203 -54.5t-128 -150.5h542l-71 -213h-529q-4 -17 -4 -76q0 -47 2 -70h494l-70 -211h-381q30 -89 122.5 -146.5 t215.5 -57.5q155 0 260 63l76 -260q-136 -80 -360 -80q-257 0 -423 133t-223 348h-188z" />
<glyph unicode="&#x2122;" horiz-adv-x="2048" d="M82 1255v195h709v-195h-242v-649h-225v649h-242zM944 606v844h307l195 -532l188 532h308v-844h-218v531h-4l-198 -531h-162l-197 531h-4v-531h-215z" />
<glyph unicode="&#x25fc;" horiz-adv-x="1024" d="M0 0v1024h1024v-1024h-1024z" />
<glyph unicode="&#xfb01;" horiz-adv-x="1361" d="M0 768v252h186v98q0 79 12.5 146t44 128t80.5 103t126 67t176 25q94 0 161 -20l-22 -267q-47 15 -92 15q-150 0 -150 -193v-102h228v-252h-228v-768h-336v768h-186zM866 1346q0 75 56 129.5t137 54.5q79 0 135.5 -53.5t56.5 -130.5t-56.5 -131t-135.5 -54 q-81 0 -137 54.5t-56 130.5zM889 0v1020h338v-1020h-338z" />
<glyph unicode="&#xfb02;" horiz-adv-x="1363" d="M0 768v252h186v98q0 79 12.5 146t44 128t80.5 103t126 67t176 25q94 0 161 -20l-22 -267q-47 15 -92 15q-150 0 -150 -193v-102h228v-252h-228v-768h-336v768h-186zM889 0v1548h340v-1548h-340z" />
</font>
</defs>
</svg>
