<?xml version="1.0" standalone="no"?>
<!DOCTYPE svg PUBLIC "-//W3C//DTD SVG 1.1//EN" "http://www.w3.org/Graphics/SVG/1.1/DTD/svg11.dtd" >
<svg xmlns="http://www.w3.org/2000/svg">
<metadata></metadata>
<defs>
<font id="bigotesheavy" horiz-adv-x="737" >
<font-face units-per-em="2048" ascent="1638" descent="-410" />
<missing-glyph horiz-adv-x="512" />
<glyph horiz-adv-x="1024" />
<glyph horiz-adv-x="1024" />
<glyph horiz-adv-x="682" />
<glyph unicode="&#xd;" horiz-adv-x="0" />
<glyph unicode=" "  horiz-adv-x="512" />
<glyph unicode="&#x09;" horiz-adv-x="512" />
<glyph unicode="&#xa0;" horiz-adv-x="512" />
<glyph unicode="!" horiz-adv-x="917" d="M205 215q0 103 74 175.5t180 72.5t180 -72.5t74 -175.5q0 -104 -74 -176t-180 -72t-180 72t-74 176zM213 532v918h492v-918h-492z" />
<glyph unicode="&#x22;" horiz-adv-x="1138" d="M166 872v578h354v-578h-354zM621 872v578h352v-578h-352z" />
<glyph unicode="#" horiz-adv-x="1269" d="M92 383v274h195l20 136h-157v274h194l53 383h299l-55 -383h84l55 383h297l-55 -383h156v-274h-195l-18 -136h157v-274h-194l-56 -383h-297l54 383h-82l-55 -383h-297l53 383h-156zM584 657h84l20 136h-86z" />
<glyph unicode="$" horiz-adv-x="1433" d="M82 186l297 316q52 -57 139.5 -97t171.5 -40q47 0 78 15.5t31 49.5q0 37 -44 59t-212 78q-64 21 -115 43.5t-101.5 58t-84 78t-54 102.5t-20.5 132q0 105 36.5 191t99.5 143t140.5 92.5t167.5 50.5v152h209v-148q137 -8 271 -61t237 -144l-303 -301q-47 57 -118 89 t-132 32q-119 0 -119 -63q0 -28 26.5 -43t101.5 -40q11 -3 16 -5q61 -19 94 -30.5t92.5 -36t94.5 -46t79.5 -57t69 -73.5t42 -91t17.5 -113q0 -111 -40.5 -202t-109.5 -151t-156 -95.5t-185 -44.5v-156h-209v154q-140 10 -275 64.5t-233 137.5z" />
<glyph unicode="%" horiz-adv-x="1914" d="M55 1077q0 166 118.5 282t285.5 116q166 0 283.5 -115.5t117.5 -282.5q0 -164 -117.5 -279.5t-283.5 -115.5t-285 115.5t-119 279.5zM336 1077q0 -49 36.5 -84t86.5 -35q48 0 84.5 35t36.5 84q0 50 -36.5 86.5t-84.5 36.5q-50 0 -86.5 -36t-36.5 -87zM426 33l860 1480 l199 -112l-858 -1477zM1053 371q0 166 118 281.5t285 115.5t284.5 -115.5t117.5 -281.5q0 -164 -118 -280t-284 -116t-284.5 116t-118.5 280zM1333 371q0 -49 36.5 -84t86.5 -35q48 0 84.5 35t36.5 84q0 50 -36.5 86.5t-84.5 36.5q-50 0 -86.5 -36t-36.5 -87z" />
<glyph unicode="&#x26;" horiz-adv-x="1720" d="M82 420q0 133 79 234t206 153q-142 128 -142 297q0 82 31.5 149t83 110.5t120.5 73t140 42t145 12.5t144 -13t135.5 -43.5t114.5 -75t78.5 -111.5t29.5 -150q0 -65 -21.5 -121t-62 -100.5t-87.5 -78.5t-109 -67l100 -94l113 162h510l-349 -424l394 -375h-570l-100 104 q-154 -133 -410 -133q-86 0 -166 15t-155 50t-130 85.5t-88.5 127.5t-33.5 171zM543 446q0 -55 42 -83.5t95 -28.5q83 0 123 43l-180 182q-80 -29 -80 -113zM655 1083q0 -65 76 -122q50 20 79.5 51t29.5 71q0 43 -23.5 69t-66.5 26q-45 0 -70 -28t-25 -67z" />
<glyph unicode="'" horiz-adv-x="684" d="M166 872v578h352v-578h-352z" />
<glyph unicode="(" d="M37 590q0 256 77 506t228 456l313 -114q-272 -377 -272 -848t272 -848l-313 -115q-150 206 -227.5 456t-77.5 507z" />
<glyph unicode=")" d="M82 -258q272 377 272 848t-272 848l313 114q151 -206 228 -456t77 -506q0 -257 -77.5 -507t-227.5 -456z" />
<glyph unicode="*" horiz-adv-x="1079" d="M57 1034l99 266l233 -77v227h305v-229l238 71l90 -266l-234 -70l148 -190l-248 -170l-151 195l-146 -185l-246 170l152 182z" />
<glyph unicode="+" horiz-adv-x="1363" d="M100 467v307h418v406h324v-406h422v-307h-418v-406h-324v406h-422z" />
<glyph unicode="," d="M29 -246l168 641h446l-233 -641h-381z" />
<glyph unicode="-" horiz-adv-x="688" d="M61 408v352h566v-352h-566z" />
<glyph unicode="." d="M98 231q0 109 81.5 188t193.5 79q106 0 186 -79.5t80 -187.5q0 -111 -79 -187.5t-187 -76.5q-114 0 -194.5 76.5t-80.5 187.5z" />
<glyph unicode="/" horiz-adv-x="931" d="M-6 -23l620 1594l324 -98l-623 -1594z" />
<glyph unicode="0" horiz-adv-x="1433" d="M66 733q0 73 8 143.5t28.5 147.5t52 143t83 127t117.5 103.5t158.5 68t203.5 25.5t204 -25.5t159 -68t117.5 -103t83 -126.5t52 -143t28 -147.5t7.5 -144.5t-7.5 -144.5t-28 -149t-52 -146.5t-83 -130.5t-117.5 -106.5t-159 -70.5t-204 -26.5t-203.5 26t-158.5 70.5 t-117.5 106.5t-83 130t-52 146.5t-28.5 149.5t-8 145zM569 733q0 -66 6.5 -123t22 -111t46 -85t73.5 -31q147 0 147 350q0 338 -147 338q-43 0 -73.5 -30t-46 -81.5t-22 -106.5t-6.5 -120z" />
<glyph unicode="1" horiz-adv-x="1433" d="M117 1122l514 328h450v-1450h-491v934l-244 -168z" />
<glyph unicode="2" horiz-adv-x="1433" d="M76 946q14 137 73.5 243.5t149.5 171t197.5 97.5t226.5 33q89 0 171.5 -16.5t158 -53t131.5 -90.5t89.5 -134.5t33.5 -178.5q0 -86 -22 -156.5t-66.5 -126.5t-87 -93.5t-107.5 -82.5l-213 -151h500v-408h-1176v379l574 459q79 65 79 127q0 44 -26.5 73t-79.5 29 q-60 0 -98 -47t-43 -127z" />
<glyph unicode="3" horiz-adv-x="1433" d="M68 406l454 106q13 -58 63.5 -100.5t121.5 -42.5q49 0 88 24t39 74q0 62 -52 84t-159 22h-140v336h156q84 0 128 23.5t44 81.5q0 44 -33.5 64t-81.5 20q-54 0 -95.5 -33t-51.5 -92l-453 96q28 92 79.5 165t113.5 120.5t138.5 79t152.5 44.5t157 13q80 0 159 -15 t155 -48.5t133.5 -82t93 -121.5t35.5 -161q0 -117 -61 -192t-160 -103v-8q111 -36 179 -126t68 -196q0 -99 -35 -180t-93.5 -135.5t-137 -92t-164 -54.5t-176.5 -17q-114 0 -218.5 26.5t-195.5 79.5t-157 140.5t-94 200.5z" />
<glyph unicode="4" horiz-adv-x="1433" d="M63 256v397l549 797h590v-813h197v-381h-195v-256h-442v256h-699zM518 637h250v367h-8z" />
<glyph unicode="5" horiz-adv-x="1433" d="M84 406l451 114q12 -62 61 -104.5t115 -42.5q60 0 97.5 26t37.5 84q0 35 -22.5 60t-61.5 38.5t-82 19t-92 5.5q-145 0 -379 -43l51 887h985v-406h-573l-8 -104q65 10 108 10q116 0 215 -27.5t177 -82t122.5 -145t44.5 -208.5q0 -116 -36.5 -209t-95.5 -151.5 t-139.5 -97.5t-162.5 -54.5t-170 -15.5q-111 0 -217 30.5t-194 86t-150 141t-82 189.5z" />
<glyph unicode="6" horiz-adv-x="1433" d="M82 508q0 228 180 477l332 465h592l-334 -432l-18 -23h22q96 0 184 -32.5t158 -92t112 -152.5t42 -206q0 -133 -51.5 -240.5t-139.5 -174.5t-201.5 -102.5t-242.5 -35.5t-242 34.5t-201.5 100.5t-140 172.5t-51.5 241.5zM567 510q0 -64 42.5 -107t107.5 -43 q68 0 110.5 43t42.5 107q0 62 -42.5 103.5t-110.5 41.5q-65 0 -107.5 -41.5t-42.5 -103.5z" />
<glyph unicode="7" horiz-adv-x="1433" d="M166 1044v406h1155v-346l-518 -1104h-565l550 1044h-622z" />
<glyph unicode="8" horiz-adv-x="1433" d="M115 416q0 116 64.5 203.5t176.5 132.5v6q-96 37 -156.5 117t-60.5 188q0 88 32.5 160.5t87 121.5t129.5 82.5t157 48.5t172 15q88 0 170 -15t157 -48.5t130 -82.5t87.5 -121.5t32.5 -160.5q0 -111 -58.5 -190.5t-158.5 -112.5v-6q108 -40 175 -128.5t67 -207.5 q0 -118 -51.5 -209t-138.5 -144t-191 -79.5t-221 -26.5q-93 0 -178.5 15.5t-163.5 50.5t-135 87t-91 130t-34 174zM590 446q0 -50 33.5 -84t93.5 -34t93.5 34t33.5 84t-33.5 85.5t-93.5 35.5t-93.5 -35.5t-33.5 -85.5zM598 1022q0 -44 33 -77.5t86 -33.5t86 33.5t33 77.5 q0 41 -33 73.5t-86 32.5t-86 -32.5t-33 -73.5z" />
<glyph unicode="9" horiz-adv-x="1433" d="M82 938q0 133 51.5 240.5t139.5 174.5t201.5 102.5t242.5 35.5t242 -34.5t201.5 -100.5t140 -172.5t51.5 -241.5q0 -226 -181 -477l-331 -465h-592l342 442l10 13h-22q-96 0 -184 32.5t-158 92t-112 152.5t-42 206zM563 944q0 -62 43 -103.5t111 -41.5q65 0 107 41.5 t42 103.5q0 64 -42 107t-107 43q-68 0 -111 -43t-43 -107z" />
<glyph unicode=":" horiz-adv-x="778" d="M135 236q0 104 76 176.5t182 72.5q101 0 175.5 -73t74.5 -176t-74.5 -175.5t-175.5 -72.5q-106 0 -182 72t-76 176zM135 838q0 104 76 176.5t182 72.5q101 0 175.5 -73t74.5 -176t-74.5 -175.5t-175.5 -72.5q-106 0 -182 72t-76 176z" />
<glyph unicode=";" horiz-adv-x="778" d="M27 -246l168 641h446l-233 -641h-381zM135 838q0 104 76 176.5t182 72.5q101 0 175.5 -73t74.5 -176t-74.5 -175.5t-175.5 -72.5q-106 0 -182 72t-76 176z" />
<glyph unicode="&#x3c;" horiz-adv-x="1363" d="M160 481v275l1044 415v-331q-94 -40 -280.5 -114t-280.5 -114l561 -211v-335z" />
<glyph unicode="=" horiz-adv-x="1363" d="M115 283v295h1134v-295h-1134zM115 672v295h1134v-295h-1134z" />
<glyph unicode="&#x3e;" horiz-adv-x="1363" d="M160 66v335l561 211q-94 40 -280.5 114t-280.5 114v331l1044 -415v-275z" />
<glyph unicode="?" horiz-adv-x="1202" d="M55 1004q12 127 64 223.5t132.5 152.5t175.5 83.5t202 27.5q79 0 154.5 -13t149 -45t128 -80t88 -123t33.5 -169q0 -92 -34.5 -164t-89 -121t-145.5 -104q-73 -45 -73 -103v-53h-437v76q0 59 14 106t44.5 85.5t61.5 66.5t81 63l35 25q68 49 68 90q0 40 -24 59t-62 19 q-63 0 -94 -45.5t-31 -114.5zM369 215q0 103 74 175.5t180 72.5t180 -72.5t74 -175.5q0 -104 -74 -176t-180 -72t-180 72t-74 176z" />
<glyph unicode="@" horiz-adv-x="1638" d="M51 723q0 212 108.5 388.5t291 276t397.5 99.5q121 0 232.5 -28t206.5 -84.5t165 -136.5t110 -191t40 -240q0 -218 -117 -348.5t-324 -130.5q-170 0 -217 121h-4q-27 -49 -87 -85t-144 -36q-138 0 -222 103.5t-84 262.5q0 118 45 221.5t133.5 169.5t202.5 66 q74 0 123.5 -32.5t63.5 -74.5h4l10 50h279l-39 -222q-5 -30 -13.5 -76t-12.5 -68.5t-7.5 -47t-3.5 -39.5q0 -61 49 -61q45 0 82 53t37 178q0 223 -137 341t-369 118q-237 0 -387 -154t-150 -391q0 -244 158.5 -390.5t411.5 -146.5q117 0 229 37t191 103l153 -174 q-232 -191 -602 -191q-171 0 -319.5 56.5t-255 156t-167.5 241t-61 306.5zM707 702q0 -122 84 -122q55 0 88.5 62t33.5 136q0 61 -18.5 95t-65.5 34q-49 0 -85.5 -63t-36.5 -142z" />
<glyph unicode="A" horiz-adv-x="1589" d="M-33 0l572 1450h518l565 -1450h-530l-76 213h-461l-72 -213h-516zM672 586h235l-116 358z" />
<glyph unicode="B" horiz-adv-x="1419" d="M135 0v1450h596q565 0 565 -385q0 -113 -56.5 -190t-156.5 -115v-6q112 -27 192.5 -115t80.5 -215q0 -92 -31.5 -165.5t-84.5 -121t-126 -79t-152.5 -45t-168.5 -13.5h-658zM590 383h145q59 0 94 26t35 74q0 35 -26.5 58.5t-58 31t-64.5 7.5h-125v-197zM590 893h131 q53 0 85 24t32 72q0 40 -34 61t-93 21h-121v-178z" />
<glyph unicode="C" horiz-adv-x="1425" d="M70 725q0 171 61.5 315.5t168 242.5t251 153t307.5 55q166 0 316 -54t251 -147l-299 -360q-83 108 -239 108q-126 0 -209.5 -85.5t-83.5 -227.5q0 -137 85.5 -223t207.5 -86q152 0 239 116l299 -358q-215 -215 -567 -215q-163 0 -307.5 56t-251 155t-168 243t-61.5 312z " />
<glyph unicode="D" horiz-adv-x="1613" d="M135 0v1450h541q101 0 192 -10.5t179.5 -35t162 -62t136.5 -94.5t106 -130t67.5 -171t24.5 -214q0 -149 -44.5 -271.5t-122 -207t-183 -142.5t-225.5 -85t-252 -27h-582zM604 418h90q177 0 267 76.5t90 242.5q0 140 -91.5 219.5t-246.5 79.5h-109v-618z" />
<glyph unicode="E" horiz-adv-x="1234" d="M135 0v1450h998v-406h-539v-124h506v-379h-506v-135h573v-406h-1032z" />
<glyph unicode="F" horiz-adv-x="1189" d="M135 0v1450h979v-408h-502v-153h443v-397h-441v-492h-479z" />
<glyph unicode="G" horiz-adv-x="1560" d="M70 725q0 171 61.5 315.5t167.5 242.5t250 153t307 55q170 0 322 -55t249 -152l-284 -342q-96 117 -258 117q-124 0 -218 -93.5t-94 -240.5q0 -159 82.5 -250.5t249.5 -91.5q79 0 115 20v111h-234v383h666v-793q-103 -63 -261.5 -102t-318.5 -39q-228 0 -409.5 92 t-287 266.5t-105.5 403.5z" />
<glyph unicode="H" horiz-adv-x="1642" d="M135 0v1450h486v-492h397v492h489v-1450h-487v551h-397v-551h-488z" />
<glyph unicode="I" horiz-adv-x="761" d="M135 0v1450h492v-1450h-492z" />
<glyph unicode="J" horiz-adv-x="1173" d="M-31 328l418 159q8 -36 31 -60t57 -24q44 0 62 29.5t18 83.5v934h489v-913q0 -86 -13 -161.5t-49 -154.5t-94 -135t-155.5 -91.5t-224.5 -35.5q-192 0 -344.5 105.5t-194.5 263.5z" />
<glyph unicode="K" horiz-adv-x="1562" d="M135 0v1450h473v-535h4l387 535h574l-545 -664l571 -786h-598l-387 578h-4v-578h-475z" />
<glyph unicode="L" horiz-adv-x="1124" d="M135 0v1450h492v-1032h481v-418h-973z" />
<glyph unicode="M" horiz-adv-x="2064" d="M135 0v1450h637l262 -780h10l228 780h657v-1450h-473l14 815l-12 2l-270 -817h-344l-266 819h-11l23 -819h-455z" />
<glyph unicode="N" horiz-adv-x="1619" d="M135 0v1450h486l413 -735h8l-20 735h463v-1450h-498l-401 692h-8l20 -692h-463z" />
<glyph unicode="O" horiz-adv-x="1751" d="M70 733q0 228 105.5 401.5t287.5 265t411 91.5t412 -91.5t289 -265t106 -401.5q0 -172 -62 -317.5t-169.5 -245t-256 -155.5t-319.5 -56t-319 56t-255 155.5t-168.5 245t-61.5 317.5zM588 733q0 -142 80.5 -232.5t205.5 -90.5q124 0 205.5 90.5t81.5 232.5q0 139 -81 225 t-206 86q-126 0 -206 -85.5t-80 -225.5z" />
<glyph unicode="P" horiz-adv-x="1400" d="M135 0v1450h623q93 0 175.5 -14.5t160.5 -49.5t134 -89t90 -139.5t34 -194.5q0 -105 -33 -189.5t-88.5 -141t-132.5 -94.5t-161.5 -54.5t-178.5 -16.5h-137v-467h-486zM621 838h102q62 0 104.5 29.5t42.5 90.5q0 113 -147 113h-102v-233z" />
<glyph unicode="Q" horiz-adv-x="1769" d="M70 741q0 218 105 390t288 266t411 94q227 0 408 -93t283 -260t102 -378q0 -118 -45.5 -226t-105.5 -157v-8l229 14v-383h-897q-231 0 -405 84t-273.5 252.5t-99.5 404.5zM588 733q0 -142 80.5 -232.5t205.5 -90.5q124 0 205.5 90.5t81.5 232.5q0 139 -81 225t-206 86 q-126 0 -206 -85.5t-80 -225.5z" />
<glyph unicode="R" horiz-adv-x="1462" d="M135 0v1450h625q91 0 171.5 -13t158 -46.5t133 -85.5t89.5 -135.5t34 -190.5q0 -134 -65.5 -235t-188.5 -156l368 -588h-561l-278 518h-15v-518h-471zM602 838h96q29 0 55 4.5t54 16t44.5 37t16.5 62.5t-14 61.5t-38.5 34.5t-46.5 13.5t-50 3.5h-117v-233z" />
<glyph unicode="S" horiz-adv-x="1263" d="M0 178l297 324q55 -59 140 -100.5t171 -41.5q47 0 78 16.5t31 51.5q0 37 -48 62.5t-208 78.5q-64 20 -115 43.5t-101.5 59.5t-84 80t-54 105.5t-20.5 135.5q0 104 36 189.5t95.5 142t139.5 94.5t164 55t173 17q146 0 294.5 -56.5t258.5 -158.5l-303 -309 q-47 58 -118 91.5t-132 33.5q-119 0 -119 -66q0 -30 28.5 -45.5t115.5 -44.5q58 -19 93.5 -31t93 -36.5t94 -47t80 -59t68.5 -75.5t42.5 -93.5t17.5 -116.5q0 -126 -52 -227.5t-138 -163.5t-190.5 -94.5t-217.5 -32.5q-172 0 -335 59.5t-275 159.5z" />
<glyph unicode="T" horiz-adv-x="1228" d="M14 1038v412h1200v-412h-356v-1038h-487v1038h-357z" />
<glyph unicode="U" horiz-adv-x="1587" d="M115 569v881h487v-827q0 -105 50.5 -163.5t142.5 -58.5t142 58.5t50 163.5v827h486v-881q0 -130 -44.5 -240.5t-129 -193t-216.5 -129.5t-297 -47q-166 0 -295.5 46.5t-210.5 129.5t-123 193t-42 241z" />
<glyph unicode="V" horiz-adv-x="1513" d="M-33 1450h551l240 -897h8l229 897h551l-524 -1450h-541z" />
<glyph unicode="W" horiz-adv-x="2205" d="M0 1450h516l156 -815h8l168 815h510l182 -815h8l158 815h500l-404 -1450h-491l-205 819h-8l-211 -819h-492z" />
<glyph unicode="X" horiz-adv-x="1638" d="M-25 0l519 756l-492 694h588l229 -381l219 381h574l-484 -688l535 -762h-596l-262 424l-252 -424h-578z" />
<glyph unicode="Y" horiz-adv-x="1511" d="M-49 1450h588l229 -426l219 426h574l-576 -856v-594h-487v594z" />
<glyph unicode="Z" horiz-adv-x="1376" d="M90 0v408l543 639h-520v403h1157v-352l-578 -682h594v-416h-1196z" />
<glyph unicode="[" d="M86 -319v1818h516v-280h-178v-1258h178v-280h-516z" />
<glyph unicode="\" horiz-adv-x="931" d="M-6 1473l323 98l621 -1594l-322 -98z" />
<glyph unicode="]" d="M135 -39h178v1258h-178v280h516v-1818h-516v280z" />
<glyph unicode="^" horiz-adv-x="1462" d="M158 702l415 748h316l411 -748h-364q-34 65 -103.5 192t-103.5 191q-36 -65 -103.5 -192t-103.5 -191h-364z" />
<glyph unicode="_" horiz-adv-x="1024" d="M0 -154h1024v-225h-1024v225z" />
<glyph unicode="`" d="M-74 1491h434l228 -295h-346z" />
<glyph unicode="a" horiz-adv-x="1210" d="M53 317q0 63 20 115t54 89t83.5 65.5t103 45.5t118 28.5t124 15.5t124.5 4v4q0 48 -32.5 72t-90.5 24q-116 0 -227 -92l-236 234q98 93 233 144.5t279 51.5q120 0 211 -28.5t148.5 -77.5t94 -120.5t50.5 -150t14 -174.5v-567h-428v86h-4q-39 -58 -112 -86.5t-152 -28.5 q-67 0 -130.5 19t-120 58t-90.5 108.5t-34 160.5zM453 340q0 -39 34.5 -61.5t73.5 -22.5q67 0 108.5 43t41.5 111v36h-27q-112 0 -171.5 -24t-59.5 -82z" />
<glyph unicode="b" horiz-adv-x="1421" d="M109 0v1548h471v-557h4q46 54 123 84.5t157 30.5q116 0 212 -49t155.5 -129.5t92 -180t32.5 -204.5q0 -86 -20 -168.5t-61 -156t-98.5 -128.5t-138 -87t-174.5 -32q-101 0 -190.5 38.5t-136.5 103.5h-5v-113h-423zM557 543q0 -77 50.5 -130t133.5 -53q84 0 130.5 51 t46.5 132q0 76 -47 127t-130 51q-82 0 -133 -52t-51 -126z" />
<glyph unicode="c" horiz-adv-x="1077" d="M66 539q0 172 83.5 305t227 203.5t323.5 70.5q106 0 218 -34.5t174 -82.5l-236 -339q-24 28 -63 43.5t-78 15.5q-74 0 -129.5 -48.5t-55.5 -133.5t55.5 -132t129.5 -47q88 0 143 58l238 -332q-70 -56 -178.5 -91.5t-223.5 -35.5q-277 0 -452.5 159.5t-175.5 420.5z" />
<glyph unicode="d" horiz-adv-x="1421" d="M66 543q0 105 32 204.5t92 180t155.5 129.5t211.5 49q81 0 158 -30.5t123 -84.5h4v557h471v-1548h-424v113h-4q-47 -65 -137 -103.5t-191 -38.5q-116 0 -211.5 49t-155.5 130.5t-92 182.5t-32 210zM504 543q0 -81 46 -132t130 -51q83 0 133.5 53t50.5 130q0 74 -51 126 t-133 52q-83 0 -129.5 -51t-46.5 -127z" />
<glyph unicode="e" horiz-adv-x="1290" d="M66 539q0 173 80.5 306t216.5 203t303 70q166 0 296 -76.5t200.5 -210.5t70.5 -303q0 -50 -4 -100h-725q4 -54 60 -88.5t124 -34.5q116 0 176 76l336 -170q-73 -118 -209.5 -185t-314.5 -67q-119 0 -227.5 37.5t-194.5 108t-137 183t-51 251.5zM500 682h325 q0 58 -42 94.5t-113 36.5q-72 0 -117.5 -40.5t-52.5 -90.5z" />
<glyph unicode="f" horiz-adv-x="868" d="M0 739v338h184v25q0 85 14.5 157t50 138t92 112t145 73.5t202.5 27.5q138 0 215 -31l-31 -354q-45 18 -92 18q-125 0 -125 -151v-15h228v-338h-228v-739h-471v739h-184z" />
<glyph unicode="g" horiz-adv-x="1427" d="M66 -334l206 314q150 -115 328 -115q108 0 181 54t73 149v47h-6q-41 -48 -119.5 -81.5t-171.5 -33.5q-121 0 -217 44t-154.5 119.5t-89 172t-30.5 207.5q0 105 32 204.5t92 180t155.5 129.5t211.5 49q91 0 172 -34t133 -103h6v108h445v-966q0 -115 -26 -208t-74 -158 t-109.5 -112t-139 -73.5t-156.5 -39t-167 -12.5q-157 0 -309.5 41t-265.5 117zM504 543q0 -81 46 -132t130 -51q83 0 133.5 53t50.5 130q0 74 -51 126t-133 52q-83 0 -129.5 -51t-46.5 -127z" />
<glyph unicode="h" horiz-adv-x="1363" d="M109 0v1548h473v-590h4q45 65 121.5 106.5t173.5 41.5q88 0 156.5 -27t110.5 -70.5t69.5 -104t38 -121.5t10.5 -128v-655h-475v573q0 80 -25 114t-78 34q-45 0 -75.5 -38t-30.5 -112v-571h-473z" />
<glyph unicode="i" horiz-adv-x="694" d="M102 1389q0 99 73 170t175 71q97 0 169.5 -71.5t72.5 -169.5q0 -101 -72 -170.5t-170 -69.5q-104 0 -176 69t-72 171zM111 0v1077h473v-1077h-473z" />
<glyph unicode="j" horiz-adv-x="708" d="M-84 -467l25 385q39 -10 75 -10q56 0 82.5 30.5t26.5 100.5v1038h473v-1052q0 -517 -485 -517q-111 0 -197 25zM117 1389q0 98 72.5 169.5t172.5 71.5q99 0 171.5 -71.5t72.5 -169.5q0 -101 -72 -170.5t-172 -69.5q-101 0 -173 69t-72 171z" />
<glyph unicode="k" horiz-adv-x="1372" d="M109 0v1548h473v-882h6l256 411h549l-349 -485l347 -592h-551l-252 469h-6v-469h-473z" />
<glyph unicode="l" horiz-adv-x="700" d="M109 0v1548h483v-1548h-483z" />
<glyph unicode="m" horiz-adv-x="1998" d="M109 0v1077h460v-119h4q46 61 125.5 104.5t180.5 43.5q220 0 307 -156q128 156 327 156q88 0 157.5 -30t111.5 -76.5t70 -108.5t38.5 -120t10.5 -116v-655h-474v573q0 84 -21 116t-67 32q-43 0 -70.5 -39.5t-27.5 -110.5v-571h-473v565q0 82 -20.5 119t-67.5 37 q-41 0 -69.5 -36t-28.5 -114v-571h-473z" />
<glyph unicode="n" horiz-adv-x="1363" d="M109 0v1077h460v-119h4q44 64 126 106t182 42q88 0 156.5 -27t110.5 -70.5t69.5 -104t38 -121.5t10.5 -128v-655h-475v573q0 80 -25 114t-78 34q-48 0 -77 -38.5t-29 -109.5v-573h-473z" />
<glyph unicode="o" horiz-adv-x="1359" d="M66 543q0 134 50 244.5t135 182t195 110t232 38.5q124 0 235 -38.5t196 -110t135 -182t50 -244.5q0 -135 -50 -247t-135 -185t-196 -112.5t-235 -39.5q-122 0 -232.5 39.5t-195 112.5t-134.5 185t-50 247zM504 543q0 -76 49.5 -129.5t126.5 -53.5t126.5 53.5t49.5 129.5 q0 73 -50.5 125.5t-127.5 52.5q-76 0 -125 -52t-49 -126z" />
<glyph unicode="p" horiz-adv-x="1421" d="M109 -492v1569h444v-108h4q58 65 141.5 101t165.5 36q116 0 212 -49t155.5 -129.5t92 -180t32.5 -204.5q0 -109 -32.5 -210t-92.5 -182.5t-155 -130.5t-210 -49q-81 0 -158 30t-126 83h-4v-576h-469zM557 543q0 -77 50.5 -130t133.5 -53q84 0 130.5 51t46.5 132 q0 76 -47 127t-130 51q-82 0 -133 -52t-51 -126z" />
<glyph unicode="q" horiz-adv-x="1421" d="M66 543q0 105 32 204.5t92 180t155.5 129.5t211.5 49q82 0 165.5 -36t141.5 -101h4v108h445v-1569h-469v576h-4q-49 -53 -126.5 -83t-158.5 -30q-115 0 -210 49t-155 130.5t-92 182.5t-32 210zM504 543q0 -81 46 -132t130 -51q83 0 133.5 53t50.5 130q0 74 -51 126 t-133 52q-83 0 -129.5 -51t-46.5 -127z" />
<glyph unicode="r" horiz-adv-x="911" d="M109 0v1077h454v-123h4q37 69 106 110.5t158 41.5q53 0 91 -10l-37 -402q-50 13 -101 13q-91 0 -146.5 -52.5t-55.5 -132.5v-522h-473z" />
<glyph unicode="s" horiz-adv-x="1050" d="M8 113l232 268q50 -45 116 -72.5t127 -27.5q68 0 68 43q0 25 -34 39.5t-136 39.5q-56 14 -105 37t-96 61t-74.5 97t-27.5 133q0 80 30.5 147t79 110.5t112 73.5t126.5 43t125 13q124 0 247.5 -36.5t221.5 -102.5l-221 -264q-109 69 -209 69q-80 0 -80 -45q0 -20 25.5 -31 t117.5 -30q68 -13 125.5 -38t106.5 -64.5t77.5 -99.5t28.5 -134q0 -83 -30.5 -150.5t-79 -109.5t-112.5 -71t-127.5 -40.5t-127.5 -11.5q-140 0 -274 40.5t-232 113.5z" />
<glyph unicode="t" horiz-adv-x="862" d="M0 739v338h150v242h458v-242h234v-338h-234v-286q0 -74 31.5 -104t95.5 -30q47 0 86 13v-324q-79 -37 -243 -37q-217 0 -321.5 93.5t-104.5 289.5v385h-152z" />
<glyph unicode="u" horiz-adv-x="1357" d="M92 422v655h475v-569q0 -80 25 -114t78 -34q48 0 77 38.5t29 109.5v569h473v-1077h-461v119h-4q-44 -64 -126 -106t-181 -42q-88 0 -156 26.5t-110.5 70t-70 103.5t-38 121t-10.5 130z" />
<glyph unicode="v" horiz-adv-x="1306" d="M-16 1077h524l154 -581h8l147 581h506l-416 -1077h-514z" />
<glyph unicode="w" horiz-adv-x="1992" d="M-10 1077h506l135 -557h8l139 557h455l149 -557h7l131 557h483l-373 -1077h-471l-166 553h-4l-162 -553h-469z" />
<glyph unicode="x" horiz-adv-x="1382" d="M-16 0l415 553l-387 524h537l156 -225l153 225h520l-387 -524l408 -553h-541l-166 244l-176 -244h-532z" />
<glyph unicode="y" horiz-adv-x="1306" d="M-16 1077h524l160 -567h8l141 567h506l-442 -1143q-41 -106 -88.5 -180.5t-114 -132t-156.5 -85.5t-207 -28q-70 0 -148 10t-120 23l59 389q60 -24 134 -24q73 0 112 29t60 83l8 23z" />
<glyph unicode="z" horiz-adv-x="1140" d="M68 0v330l403 397h-393v350h981v-307l-436 -420h448v-350h-1003z" />
<glyph unicode="{" d="M0 444v291q67 0 100 30.5t33 113.5v270q0 72 17.5 133.5t53 111t95.5 77.5t139 28h197v-280h-70q-55 0 -78.5 -35.5t-23.5 -87.5v-277q0 -106 -56 -163.5t-118 -63.5v-4q28 -4 55.5 -18t55.5 -39t45.5 -69.5t17.5 -101.5v-276q0 -52 23.5 -87.5t78.5 -35.5h70v-280h-197 q-79 0 -139 28t-95.5 77.5t-53 111t-17.5 133.5v270q0 83 -33 113t-100 30z" />
<glyph unicode="|" horiz-adv-x="550" d="M100 -512v2048h353v-2048h-353z" />
<glyph unicode="}" d="M102 -39h70q55 0 78.5 35.5t23.5 87.5v276q0 57 17.5 101.5t45.5 69.5t56 39t56 18v4q-62 6 -118.5 63.5t-56.5 163.5v277q0 52 -23.5 87.5t-78.5 35.5h-70v280h197q79 0 139 -28t95.5 -77.5t53 -111t17.5 -133.5v-270q0 -83 33 -113.5t100 -30.5v-291q-67 0 -100 -30 t-33 -113v-270q0 -72 -17.5 -133.5t-53 -111t-95.5 -77.5t-139 -28h-197v280z" />
<glyph unicode="~" horiz-adv-x="1363" d="M121 647q69 114 167 165.5t193 51.5q73 0 127 -17.5t119 -60.5q55 -36 91 -52t50 -17.5t52 -1.5q48 0 93.5 37t78.5 100l151 -277q-68 -112 -152.5 -164.5t-172.5 -52.5q-65 0 -122.5 18t-125.5 60q-53 32 -90 48t-55 19t-46 3q-51 0 -112.5 -34t-94.5 -101z" />
<glyph unicode="&#xa1;" horiz-adv-x="917" d="M205 870q0 104 74 176t180 72t180 -72t74 -176q0 -103 -74 -175t-180 -72t-180 72t-74 175zM213 -365v918h492v-918h-492z" />
<glyph unicode="&#xa2;" horiz-adv-x="1433" d="M201 539q0 225 136.5 375.5t360.5 187.5v131h224v-125q89 -7 171 -37t134 -70l-236 -339q-24 28 -63 43.5t-78 15.5q-74 0 -129 -48.5t-55 -133.5t55 -132t129 -47q88 0 143 58l238 -332q-55 -44 -137 -75.5t-172 -41.5v-116h-224v120q-224 33 -360.5 185t-136.5 381z " />
<glyph unicode="&#xa3;" horiz-adv-x="1433" d="M164 0v395h188v178h-188v332h188v58q0 77 22.5 152t70 143.5t114.5 120t163.5 82t209.5 30.5q156 0 276.5 -45.5t198.5 -120.5l-274 -311q-24 29 -65 46t-83 17q-164 0 -164 -153v-19h297v-332h-297v-178h514v-395h-1171z" />
<glyph unicode="&#xa4;" horiz-adv-x="1433" d="M94 172l170 170q-63 111 -63 266q0 144 61 254l-168 168l195 193l172 -170q121 59 260 59q145 0 256 -57l168 168l194 -193l-161 -162q65 -114 65 -260q0 -155 -69 -270l165 -166l-192 -195l-174 175q-113 -58 -252 -58q-129 0 -256 62l-178 -179zM547 608 q0 -79 49.5 -132.5t124.5 -53.5q74 0 123 53.5t49 132.5q0 71 -50 125.5t-122 54.5q-73 0 -123.5 -54.5t-50.5 -125.5z" />
<glyph unicode="&#xa5;" horiz-adv-x="1433" d="M10 1450h518l201 -444l201 444h506l-322 -512h205v-287h-377v-96h377v-287h-377v-268h-442v268h-371v287h371v96h-371v287h205z" />
<glyph unicode="&#xa6;" horiz-adv-x="550" d="M100 410h353v-832h-353v832zM100 639v831h353v-831h-353z" />
<glyph unicode="&#xa7;" horiz-adv-x="1331" d="M20 -43l322 266q56 -83 138.5 -121.5t158.5 -38.5q31 0 54.5 12t23.5 31q0 32 -38.5 52t-168.5 57q-114 33 -188 64.5t-132 76t-84 103.5t-26 139q0 171 145 262q-84 81 -84 225q0 85 35 155.5t90.5 115.5t127.5 76t142.5 44t139.5 13q198 0 340.5 -68.5t214.5 -197.5 l-340 -226q-30 52 -83 83.5t-103 31.5q-37 0 -63 -12.5t-26 -34.5q0 -25 36.5 -42.5t164.5 -55.5q216 -66 318 -154.5t102 -243.5q0 -164 -133 -245q45 -31 68.5 -88t23.5 -121q0 -96 -36.5 -172.5t-94.5 -123.5t-136.5 -78.5t-155 -43.5t-157.5 -12q-176 0 -343 73 t-253 199zM479 649q0 -25 20.5 -44.5t42 -29t72.5 -27.5q17 -6 25 -9l166 -58q26 14 26 54q0 35 -38 60t-113 52l-168 60q-14 -8 -23.5 -24.5t-9.5 -33.5z" />
<glyph unicode="&#xa8;" d="M-90 1389q0 82 61 142t146 60q82 0 142 -60t60 -142q0 -84 -59.5 -142.5t-142.5 -58.5q-87 0 -147 57.5t-60 143.5zM420 1389q0 82 61 142t146 60q82 0 142 -60t60 -142q0 -84 -59.5 -142.5t-142.5 -58.5q-87 0 -147 57.5t-60 143.5z" />
<glyph unicode="&#xa9;" horiz-adv-x="1638" d="M41 723q0 158 61.5 301.5t166 246.5t249 163.5t303.5 60.5q157 0 300.5 -60.5t247.5 -163.5t166 -246.5t62 -301.5q0 -210 -104.5 -387t-283 -279t-388.5 -102q-159 0 -303.5 60.5t-249 162.5t-166 244.5t-61.5 300.5zM164 723q0 -133 51 -253.5t137.5 -208t207 -139.5 t253.5 -52q177 0 329.5 87.5t242.5 238t90 327.5q0 133 -52 254.5t-139.5 209.5t-208.5 140.5t-254 52.5t-254.5 -52.5t-209.5 -140.5t-140.5 -209.5t-52.5 -254.5zM354 723q0 -151 69.5 -264t183.5 -169.5t255 -56.5q106 0 198.5 36t158.5 102l-189 180q-56 -68 -164 -68 q-100 0 -156.5 72.5t-56.5 169.5t54.5 168.5t146.5 71.5q109 0 166 -74l201 164q-59 73 -155.5 114t-203.5 41q-139 0 -254 -58t-184.5 -170.5t-69.5 -258.5z" />
<glyph unicode="&#xaa;" horiz-adv-x="798" d="M80 1055q0 46 23 81t59 56t86.5 34t100 18t104.5 5v2q0 52 -72 52q-70 0 -135 -50l-142 125q126 107 304 107q89 0 151 -22.5t95 -65t47 -93t14 -116.5v-305h-254v47h-2q-41 -62 -156 -62q-39 0 -76.5 10t-71.5 31t-54.5 58.5t-20.5 87.5zM322 1065q0 -21 19 -31t42 -10 q38 0 62 21.5t24 56.5v18h-16q-65 0 -98 -12t-33 -43z" />
<glyph unicode="&#xab;" horiz-adv-x="1187" d="M35 561l360 508l264 -170l-235 -338l235 -338l-264 -170zM506 561l358 508l266 -170l-235 -338l235 -338l-266 -170z" />
<glyph unicode="&#xac;" horiz-adv-x="1363" d="M76 643v295h1163v-645h-324v350h-839z" />
<glyph unicode="&#xad;" horiz-adv-x="688" d="M61 408v352h566v-352h-566z" />
<glyph unicode="&#xae;" horiz-adv-x="1228" d="M147 1008q0 126 63 233t171 169.5t235 62.5q192 0 328.5 -136.5t136.5 -328.5q0 -126 -62.5 -232t-169.5 -167.5t-233 -61.5q-127 0 -235 61.5t-171 167.5t-63 232zM221 1008q0 -162 115.5 -278t279.5 -116q162 0 277 116t115 278q0 164 -114.5 278.5t-277.5 114.5 q-164 0 -279.5 -114.5t-115.5 -278.5zM391 748v544h234q47 0 88.5 -8.5t78.5 -27.5t58.5 -55t21.5 -85q0 -111 -98 -151l125 -217h-205l-90 192h-33v-192h-180zM571 1067h54q25 0 41 13.5t16 33.5q0 17 -16.5 27t-40.5 10h-54v-84z" />
<glyph unicode="&#xaf;" d="M0 1251v197h737v-197h-737z" />
<glyph unicode="&#xb0;" horiz-adv-x="901" d="M84 1135q0 158 104.5 262t262.5 104t262 -104t104 -262t-104 -262.5t-262 -104.5t-262.5 104.5t-104.5 262.5zM252 1135q0 -85 57 -142t142 -57t141.5 57t56.5 142t-56.5 141.5t-141.5 56.5t-142 -56.5t-57 -141.5z" />
<glyph unicode="&#xb1;" horiz-adv-x="1363" d="M63 61v312h1237v-312h-1237zM63 682v311h451v248h336v-248h450v-311h-450v-248h-336v248h-451z" />
<glyph unicode="&#xb2;" horiz-adv-x="921" d="M72 1130q11 114 72.5 194t147 115.5t187.5 35.5q55 0 106.5 -10t100 -33t84 -56.5t57 -84.5t21.5 -113q0 -69 -27.5 -126.5t-61.5 -90t-89 -72.5l-135 -94h315v-258h-741v239l372 301q39 31 39 68q0 27 -16 44t-49 17q-37 0 -61.5 -28.5t-28.5 -79.5z" />
<glyph unicode="&#xb3;" horiz-adv-x="921" d="M76 795l278 67q8 -38 37 -65t68 -27q86 0 86 61q0 39 -32 53.5t-97 14.5h-86v211h96q55 0 79.5 14.5t24.5 49.5q0 25 -18 40t-53 15q-31 0 -57.5 -22.5t-32.5 -59.5l-275 63q20 72 62 125t97.5 82.5t114 43.5t121.5 14q62 0 121 -14.5t111 -44t83.5 -80.5t31.5 -117 q0 -148 -121 -203q66 -23 101.5 -78t35.5 -125q0 -77 -32 -136t-86 -93.5t-117.5 -52t-133.5 -17.5q-147 0 -259.5 70.5t-147.5 210.5z" />
<glyph unicode="&#xb4;" d="M150 1196l227 295h434l-315 -295h-346z" />
<glyph unicode="&#xb5;" horiz-adv-x="1552" d="M164 -459v1536h479v-538q0 -32 7 -67t22 -71t42.5 -59t63.5 -23q148 0 148 205v553h479v-1077h-463v76q-66 -80 -174 -80q-78 0 -125 33v-488h-479z" />
<glyph unicode="&#xb6;" horiz-adv-x="1323" d="M27 1055q0 95 30 166.5t78.5 114.5t119.5 69t143.5 35.5t160.5 9.5h643v-1722h-317v1431h-107v-1431h-315v948q-206 11 -321 109t-115 270z" />
<glyph unicode="&#xb7;" d="M98 592q0 109 81.5 187.5t193.5 78.5q106 0 186 -79t80 -187q0 -111 -79 -187.5t-187 -76.5q-114 0 -194.5 76.5t-80.5 187.5z" />
<glyph unicode="&#xb8;" d="M53 -444l70 159q65 -32 174 -32q82 0 82 43q0 36 -76 36q-47 0 -84 -12l-90 70l154 180h239l-102 -109q9 3 33 3q30 0 57.5 -4.5t55.5 -17t49 -31.5t34 -50.5t13 -71.5q0 -60 -32.5 -104t-86 -66t-107 -31.5t-110.5 -9.5q-66 0 -143 13.5t-130 34.5z" />
<glyph unicode="&#xb9;" horiz-adv-x="921" d="M106 1245l324 205h285v-913h-309v589l-154 -106z" />
<glyph unicode="&#xba;" horiz-adv-x="798" d="M72 1180q0 142 95.5 224.5t231.5 82.5q139 0 235.5 -82.5t96.5 -224.5q0 -145 -97 -230.5t-235 -85.5q-136 0 -231.5 85.5t-95.5 230.5zM307 1180q0 -42 26.5 -70.5t67.5 -28.5t68 28.5t27 70.5q0 38 -28 66t-69 28q-40 0 -66 -28t-26 -66z" />
<glyph unicode="&#xbb;" horiz-adv-x="1187" d="M57 223l236 338l-236 338l267 170l358 -508l-358 -508zM528 223l236 338l-236 338l267 170l358 -508l-358 -508z" />
<glyph unicode="&#xbc;" horiz-adv-x="2048" d="M106 1245l324 205h285v-913h-309v589l-154 -106zM588 27l708 1486l203 -92l-708 -1476zM1139 162v250l346 501h373v-512h122v-239h-122v-162h-279v162h-440zM1425 401h158v232h-4z" />
<glyph unicode="&#xbd;" horiz-adv-x="2048" d="M106 1245l324 205h285v-913h-309v589l-154 -106zM588 27l708 1486l203 -92l-708 -1476zM1221 594q8 86 45.5 153.5t94 108t124.5 61.5t143 21q55 0 106.5 -10t100 -33t84 -56.5t57 -84.5t21.5 -113q0 -69 -27.5 -126.5t-61.5 -90t-89 -72.5l-136 -94h316v-258h-742v240 l373 301q39 31 39 67q0 27 -16 44.5t-49 17.5q-37 0 -62 -29t-29 -80z" />
<glyph unicode="&#xbe;" horiz-adv-x="2048" d="M76 795l278 67q8 -38 37 -65t68 -27q86 0 86 61q0 39 -32 53.5t-97 14.5h-86v211h96q55 0 79.5 14.5t24.5 49.5q0 25 -18 40t-53 15q-31 0 -57.5 -22.5t-32.5 -59.5l-275 63q20 72 62 125t97.5 82.5t114 43.5t121.5 14q62 0 121 -14.5t111 -44t83.5 -80.5t31.5 -117 q0 -148 -121 -203q66 -23 101.5 -78t35.5 -125q0 -77 -32 -136t-86 -93.5t-117.5 -52t-133.5 -17.5q-147 0 -259.5 70.5t-147.5 210.5zM588 27l708 1486l203 -92l-708 -1476zM1139 162v250l346 501h373v-512h122v-239h-122v-162h-279v162h-440zM1425 401h158v232h-4z" />
<glyph unicode="&#xbf;" horiz-adv-x="1202" d="M10 25q0 133 66.5 221t202.5 168q73 45 73 102v53h436v-75q0 -59 -14 -106t-44 -86t-61.5 -67t-80.5 -63l-35 -25q-68 -49 -68 -90q0 -77 86 -77q63 0 94 45t31 114l441 -57q-10 -103 -46 -186t-90.5 -138.5t-126 -93t-149 -54t-162.5 -16.5q-81 0 -156.5 13.5 t-148.5 45.5t-127.5 80t-87.5 123t-33 169zM315 870q0 104 74 176t180 72t180 -72t74 -176q0 -103 -74 -175t-180 -72t-180 72t-74 175z" />
<glyph unicode="&#xc0;" horiz-adv-x="1589" d="M-33 0l572 1450h518l565 -1450h-530l-76 213h-461l-72 -213h-516zM362 1860h435l227 -295h-346zM672 586h235l-116 358z" />
<glyph unicode="&#xc1;" horiz-adv-x="1589" d="M-33 0l572 1450h518l565 -1450h-530l-76 213h-461l-72 -213h-516zM569 1565l228 295h434l-316 -295h-346zM672 586h235l-116 358z" />
<glyph unicode="&#xc2;" horiz-adv-x="1589" d="M-33 0l572 1450h518l565 -1450h-530l-76 213h-461l-72 -213h-516zM348 1565l281 295h346l274 -295h-315l-137 139l-138 -139h-311zM672 586h235l-116 358z" />
<glyph unicode="&#xc3;" horiz-adv-x="1589" d="M-33 0l572 1450h518l565 -1450h-530l-76 213h-461l-72 -213h-516zM416 1577q6 122 67.5 200t163.5 78q77 0 170 -49q51 -27 76.5 -36t56.5 -9t47.5 19.5t24.5 62.5h162q-8 -126 -69 -205t-165 -79q-80 0 -166 47q-52 28 -76 36.5t-53 8.5q-31 0 -50 -20.5t-25 -53.5h-164 zM672 586h235l-116 358z" />
<glyph unicode="&#xc4;" horiz-adv-x="1589" d="M-33 0l572 1450h518l565 -1450h-530l-76 213h-461l-72 -213h-516zM340 1757q0 82 61.5 142.5t145.5 60.5q82 0 142.5 -60.5t60.5 -142.5q0 -84 -60 -142.5t-143 -58.5q-87 0 -147 57.5t-60 143.5zM672 586h235l-116 358zM850 1757q0 82 61.5 142.5t145.5 60.5 q82 0 142.5 -60.5t60.5 -142.5q0 -84 -60 -142.5t-143 -58.5q-87 0 -147 57.5t-60 143.5z" />
<glyph unicode="&#xc5;" horiz-adv-x="1589" d="M-33 0l572 1450h518l565 -1450h-530l-76 213h-461l-72 -213h-516zM561 1755q0 99 70 166.5t166 67.5q95 0 165 -68t70 -166t-70 -165.5t-165 -67.5q-97 0 -166.5 67.5t-69.5 165.5zM672 586h235l-116 358zM674 1755q0 -51 36 -86t87 -35t87 35t36 86t-36 86t-87 35 t-87 -35t-36 -86z" />
<glyph unicode="&#xc6;" horiz-adv-x="2076" d="M0 0l725 1450h1249v-406h-518v-124h486v-379h-486v-135h553v-406h-1001v213h-363l-100 -213h-545zM791 586h217v458h-9z" />
<glyph unicode="&#xc7;" horiz-adv-x="1425" d="M70 725q0 171 61.5 315.5t168 242.5t251 153t307.5 55q166 0 316 -54t251 -147l-299 -360q-83 108 -239 108q-126 0 -209.5 -85.5t-83.5 -227.5q0 -137 85.5 -223t207.5 -86q152 0 239 116l299 -358q-175 -175 -467 -209l-67 -74q9 3 33 3q30 0 57.5 -4.5t55.5 -17 t49 -31.5t34 -50.5t13 -71.5q0 -60 -32.5 -104t-86 -66t-107 -31.5t-110.5 -9.5q-66 0 -143 13.5t-130 34.5l70 159q65 -32 174 -32q82 0 82 43q0 36 -76 36q-46 0 -84 -12l-90 70l127 149q-188 28 -336 127.5t-234.5 263.5t-86.5 365z" />
<glyph unicode="&#xc8;" horiz-adv-x="1234" d="M135 0v1450h998v-406h-539v-124h506v-379h-506v-135h573v-406h-1032zM221 1860h434l228 -295h-346z" />
<glyph unicode="&#xc9;" horiz-adv-x="1234" d="M135 0v1450h998v-406h-539v-124h506v-379h-506v-135h573v-406h-1032zM393 1565l228 295h434l-316 -295h-346z" />
<glyph unicode="&#xca;" horiz-adv-x="1234" d="M135 0v1450h998v-406h-539v-124h506v-379h-506v-135h573v-406h-1032zM188 1565l281 295h346l275 -295h-316l-137 139l-137 -139h-312z" />
<glyph unicode="&#xcb;" horiz-adv-x="1234" d="M135 0v1450h998v-406h-539v-124h506v-379h-506v-135h573v-406h-1032zM178 1757q0 82 61.5 142.5t145.5 60.5q82 0 142.5 -60.5t60.5 -142.5q0 -84 -60 -142.5t-143 -58.5q-87 0 -147 57.5t-60 143.5zM688 1757q0 82 61.5 142.5t145.5 60.5q82 0 142.5 -60.5t60.5 -142.5 q0 -84 -60 -142.5t-143 -58.5q-87 0 -147 57.5t-60 143.5z" />
<glyph unicode="&#xcc;" horiz-adv-x="761" d="M-37 1860h434l228 -295h-346zM135 0v1450h492v-1450h-492z" />
<glyph unicode="&#xcd;" horiz-adv-x="761" d="M135 0v1450h492v-1450h-492zM135 1565l227 295h435l-316 -295h-346z" />
<glyph unicode="&#xce;" horiz-adv-x="761" d="M-66 1565l281 295h346l275 -295h-316l-137 139l-137 -139h-312zM135 0v1450h492v-1450h-492z" />
<glyph unicode="&#xcf;" horiz-adv-x="761" d="M-74 1757q0 82 61.5 142.5t145.5 60.5q82 0 142.5 -60.5t60.5 -142.5q0 -84 -60 -142.5t-143 -58.5q-87 0 -147 57.5t-60 143.5zM135 0v1450h492v-1450h-492zM436 1757q0 82 61.5 142.5t145.5 60.5q82 0 142.5 -60.5t60.5 -142.5q0 -84 -60 -142.5t-143 -58.5 q-87 0 -147 57.5t-60 143.5z" />
<glyph unicode="&#xd0;" horiz-adv-x="1613" d="M25 586v291h110v573h541q101 0 192 -10.5t179.5 -35t162 -62t136.5 -94.5t106 -130t67.5 -171t24.5 -214q0 -149 -44.5 -271.5t-122 -207t-183 -142.5t-225.5 -85t-252 -27h-582v586h-110zM604 418h90q177 0 267 76.5t90 242.5q0 140 -91.5 219.5t-246.5 79.5h-109v-159 h262v-291h-262v-168z" />
<glyph unicode="&#xd1;" horiz-adv-x="1619" d="M135 0v1450h486l413 -735h8l-20 735h463v-1450h-498l-401 692h-8l20 -692h-463zM434 1577q6 121 68 199.5t164 78.5q77 0 170 -49q51 -27 76.5 -36t56.5 -9t47 19.5t24 62.5h162q-8 -126 -68.5 -205t-164.5 -79q-80 0 -166 47q-52 28 -76 36.5t-53 8.5q-31 0 -50.5 -20.5 t-25.5 -53.5h-164z" />
<glyph unicode="&#xd2;" horiz-adv-x="1751" d="M70 733q0 228 105.5 401.5t287.5 265t411 91.5t412 -91.5t289 -265t106 -401.5q0 -172 -62 -317.5t-169.5 -245t-256 -155.5t-319.5 -56t-319 56t-255 155.5t-168.5 245t-61.5 317.5zM440 1860h434l228 -295h-346zM588 733q0 -142 80.5 -232.5t205.5 -90.5 q124 0 205.5 90.5t81.5 232.5q0 139 -81 225t-206 86q-126 0 -206 -85.5t-80 -225.5z" />
<glyph unicode="&#xd3;" horiz-adv-x="1751" d="M70 733q0 228 105.5 401.5t287.5 265t411 91.5t412 -91.5t289 -265t106 -401.5q0 -172 -62 -317.5t-169.5 -245t-256 -155.5t-319.5 -56t-319 56t-255 155.5t-168.5 245t-61.5 317.5zM588 733q0 -142 80.5 -232.5t205.5 -90.5q124 0 205.5 90.5t81.5 232.5q0 139 -81 225 t-206 86q-126 0 -206 -85.5t-80 -225.5zM653 1565l228 295h434l-316 -295h-346z" />
<glyph unicode="&#xd4;" horiz-adv-x="1751" d="M70 733q0 228 105.5 401.5t287.5 265t411 91.5t412 -91.5t289 -265t106 -401.5q0 -172 -62 -317.5t-169.5 -245t-256 -155.5t-319.5 -56t-319 56t-255 155.5t-168.5 245t-61.5 317.5zM424 1565l281 295h346l274 -295h-315l-138 139l-137 -139h-311zM588 733 q0 -142 80.5 -232.5t205.5 -90.5q124 0 205.5 90.5t81.5 232.5q0 139 -81 225t-206 86q-126 0 -206 -85.5t-80 -225.5z" />
<glyph unicode="&#xd5;" horiz-adv-x="1751" d="M70 733q0 228 105.5 401.5t287.5 265t411 91.5t412 -91.5t289 -265t106 -401.5q0 -172 -62 -317.5t-169.5 -245t-256 -155.5t-319.5 -56t-319 56t-255 155.5t-168.5 245t-61.5 317.5zM492 1577q6 122 67.5 200t163.5 78q77 0 170 -49q51 -27 76.5 -36t56.5 -9t47.5 19.5 t24.5 62.5h162q-8 -126 -69 -205t-165 -79q-80 0 -166 47q-52 28 -76 36.5t-53 8.5q-31 0 -50.5 -20.5t-25.5 -53.5h-163zM588 733q0 -142 80.5 -232.5t205.5 -90.5q124 0 205.5 90.5t81.5 232.5q0 139 -81 225t-206 86q-126 0 -206 -85.5t-80 -225.5z" />
<glyph unicode="&#xd6;" horiz-adv-x="1751" d="M70 733q0 228 105.5 401.5t287.5 265t411 91.5t412 -91.5t289 -265t106 -401.5q0 -172 -62 -317.5t-169.5 -245t-256 -155.5t-319.5 -56t-319 56t-255 155.5t-168.5 245t-61.5 317.5zM416 1757q0 82 61.5 142.5t145.5 60.5q82 0 142 -60.5t60 -142.5q0 -84 -59.5 -142.5 t-142.5 -58.5q-87 0 -147 57.5t-60 143.5zM588 733q0 -142 80.5 -232.5t205.5 -90.5q124 0 205.5 90.5t81.5 232.5q0 139 -81 225t-206 86q-126 0 -206 -85.5t-80 -225.5zM926 1757q0 82 61.5 142.5t145.5 60.5q82 0 142 -60.5t60 -142.5q0 -84 -59.5 -142.5t-142.5 -58.5 q-87 0 -147 57.5t-60 143.5z" />
<glyph unicode="&#xd7;" horiz-adv-x="1363" d="M98 950q40 37 119 114t119 114q58 -57 174.5 -166.5t175.5 -167.5q58 55 170.5 166t169.5 166l229 -213l-342 -338q60 -56 177.5 -167.5t177.5 -168.5l-234 -230q-59 57 -175.5 169t-174.5 169q-60 -58 -174.5 -169t-175.5 -169q-38 37 -115 107.5t-115 107.5l347 344 q-59 57 -177 166t-176 166z" />
<glyph unicode="&#xd8;" horiz-adv-x="1751" d="M53 39l189 205q-172 196 -172 489q0 171 61.5 314t169 240t256 150.5t320.5 53.5q244 0 430 -109l184 209l192 -166l-182 -196q180 -198 180 -496q0 -172 -62 -317.5t-169.5 -245t-256 -155.5t-319.5 -56q-130 0 -245 31.5t-193 91.5l-190 -207zM561 727q0 -78 19 -127 l411 451q-47 18 -117 18q-76 0 -136.5 -28t-98.5 -76t-58 -109t-20 -129zM752 410q42 -19 118 -19q149 0 231.5 98t82.5 242q0 77 -21 129z" />
<glyph unicode="&#xd9;" horiz-adv-x="1587" d="M115 569v881h487v-827q0 -105 50.5 -163.5t142.5 -58.5t142 58.5t50 163.5v827h486v-881q0 -130 -44.5 -240.5t-129 -193t-216.5 -129.5t-297 -47q-166 0 -295.5 46.5t-210.5 129.5t-123 193t-42 241zM358 1860h435l227 -295h-346z" />
<glyph unicode="&#xda;" horiz-adv-x="1587" d="M115 569v881h487v-827q0 -105 50.5 -163.5t142.5 -58.5t142 58.5t50 163.5v827h486v-881q0 -130 -44.5 -240.5t-129 -193t-216.5 -129.5t-297 -47q-166 0 -295.5 46.5t-210.5 129.5t-123 193t-42 241zM573 1565l228 295h434l-315 -295h-347z" />
<glyph unicode="&#xdb;" horiz-adv-x="1587" d="M115 569v881h487v-827q0 -105 50.5 -163.5t142.5 -58.5t142 58.5t50 163.5v827h486v-881q0 -130 -44.5 -240.5t-129 -193t-216.5 -129.5t-297 -47q-166 0 -295.5 46.5t-210.5 129.5t-123 193t-42 241zM346 1565l281 295h346l274 -295h-315l-137 139l-138 -139h-311z" />
<glyph unicode="&#xdc;" horiz-adv-x="1587" d="M115 569v881h487v-827q0 -105 50.5 -163.5t142.5 -58.5t142 58.5t50 163.5v827h486v-881q0 -130 -44.5 -240.5t-129 -193t-216.5 -129.5t-297 -47q-166 0 -295.5 46.5t-210.5 129.5t-123 193t-42 241zM338 1757q0 82 61.5 142.5t145.5 60.5q82 0 142.5 -60.5t60.5 -142.5 q0 -84 -60 -142.5t-143 -58.5q-87 0 -147 57.5t-60 143.5zM848 1757q0 82 61.5 142.5t145.5 60.5q82 0 142 -60.5t60 -142.5q0 -84 -59.5 -142.5t-142.5 -58.5q-87 0 -147 57.5t-60 143.5z" />
<glyph unicode="&#xdd;" horiz-adv-x="1511" d="M-49 1450h588l229 -426l219 426h574l-576 -856v-594h-487v594zM586 1565l227 295h434l-315 -295h-346z" />
<glyph unicode="&#xde;" horiz-adv-x="1400" d="M135 0v1450h486v-207h137q93 0 175.5 -14.5t160.5 -49.5t134 -89t90 -139.5t34 -194.5q0 -105 -33 -189.5t-88.5 -141t-132.5 -94.5t-161.5 -54.5t-178.5 -16.5h-137v-260h-486zM621 631h102q62 0 104.5 30t42.5 91q0 112 -147 112h-102v-233z" />
<glyph unicode="&#xdf;" horiz-adv-x="1488" d="M109 0v1010q0 269 166.5 416t486.5 147q90 0 173.5 -15.5t158.5 -48.5t130 -81.5t87 -119.5t32 -157q0 -120 -56 -198t-146 -113q127 -32 203.5 -130t76.5 -253q0 -241 -152.5 -365.5t-402.5 -124.5q-90 0 -221 29v346q56 -20 117 -20q84 0 134 37.5t50 119.5 q0 166 -215 166h-69v346h67q59 0 98 31t39 88q0 50 -34.5 77t-90.5 27q-81 0 -120 -52.5t-39 -137.5v-1024h-473z" />
<glyph unicode="&#xe0;" horiz-adv-x="1210" d="M53 317q0 63 20 115t54 89t83.5 65.5t103 45.5t118 28.5t124 15.5t124.5 4v4q0 48 -32.5 72t-90.5 24q-116 0 -227 -92l-236 234q98 93 233 144.5t279 51.5q120 0 211 -28.5t148.5 -77.5t94 -120.5t50.5 -150t14 -174.5v-567h-428v86h-4q-39 -58 -112 -86.5t-152 -28.5 q-67 0 -130.5 19t-120 58t-90.5 108.5t-34 160.5zM176 1491h434l228 -295h-346zM453 340q0 -39 34.5 -61.5t73.5 -22.5q67 0 108.5 43t41.5 111v36h-27q-112 0 -171.5 -24t-59.5 -82z" />
<glyph unicode="&#xe1;" horiz-adv-x="1210" d="M53 317q0 63 20 115t54 89t83.5 65.5t103 45.5t118 28.5t124 15.5t124.5 4v4q0 48 -32.5 72t-90.5 24q-116 0 -227 -92l-236 234q98 93 233 144.5t279 51.5q120 0 211 -28.5t148.5 -77.5t94 -120.5t50.5 -150t14 -174.5v-567h-428v86h-4q-39 -58 -112 -86.5t-152 -28.5 q-67 0 -130.5 19t-120 58t-90.5 108.5t-34 160.5zM391 1196l227 295h435l-316 -295h-346zM453 340q0 -39 34.5 -61.5t73.5 -22.5q67 0 108.5 43t41.5 111v36h-27q-112 0 -171.5 -24t-59.5 -82z" />
<glyph unicode="&#xe2;" horiz-adv-x="1210" d="M53 317q0 63 20 115t54 89t83.5 65.5t103 45.5t118 28.5t124 15.5t124.5 4v4q0 48 -32.5 72t-90.5 24q-116 0 -227 -92l-236 234q98 93 233 144.5t279 51.5q120 0 211 -28.5t148.5 -77.5t94 -120.5t50.5 -150t14 -174.5v-567h-428v86h-4q-39 -58 -112 -86.5t-152 -28.5 q-67 0 -130.5 19t-120 58t-90.5 108.5t-34 160.5zM166 1196l280 295h347l274 -295h-315l-138 139l-137 -139h-311zM453 340q0 -39 34.5 -61.5t73.5 -22.5q67 0 108.5 43t41.5 111v36h-27q-112 0 -171.5 -24t-59.5 -82z" />
<glyph unicode="&#xe3;" horiz-adv-x="1210" d="M53 317q0 63 20 115t54 89t83.5 65.5t103 45.5t118 28.5t124 15.5t124.5 4v4q0 48 -32.5 72t-90.5 24q-116 0 -227 -92l-236 234q98 93 233 144.5t279 51.5q120 0 211 -28.5t148.5 -77.5t94 -120.5t50.5 -150t14 -174.5v-567h-428v86h-4q-39 -58 -112 -86.5t-152 -28.5 q-67 0 -130.5 19t-120 58t-90.5 108.5t-34 160.5zM233 1208q6 122 68 200.5t164 78.5q77 0 170 -49q51 -27 76.5 -36t56.5 -9t47.5 19.5t24.5 62.5h161q-8 -127 -68.5 -206t-164.5 -79q-80 0 -166 47q-52 28 -76 36.5t-53 8.5q-31 0 -50.5 -20.5t-25.5 -53.5h-164zM453 340 q0 -39 34.5 -61.5t73.5 -22.5q67 0 108.5 43t41.5 111v36h-27q-112 0 -171.5 -24t-59.5 -82z" />
<glyph unicode="&#xe4;" horiz-adv-x="1210" d="M53 317q0 63 20 115t54 89t83.5 65.5t103 45.5t118 28.5t124 15.5t124.5 4v4q0 48 -32.5 72t-90.5 24q-116 0 -227 -92l-236 234q98 93 233 144.5t279 51.5q120 0 211 -28.5t148.5 -77.5t94 -120.5t50.5 -150t14 -174.5v-567h-428v86h-4q-39 -58 -112 -86.5t-152 -28.5 q-67 0 -130.5 19t-120 58t-90.5 108.5t-34 160.5zM158 1389q0 82 61 142t146 60q82 0 142 -60t60 -142q0 -84 -59.5 -142.5t-142.5 -58.5q-87 0 -147 57.5t-60 143.5zM453 340q0 -39 34.5 -61.5t73.5 -22.5q67 0 108.5 43t41.5 111v36h-27q-112 0 -171.5 -24t-59.5 -82z M668 1389q0 82 61 142t145 60q82 0 142.5 -60t60.5 -142q0 -84 -60 -142.5t-143 -58.5q-87 0 -146.5 57.5t-59.5 143.5z" />
<glyph unicode="&#xe5;" horiz-adv-x="1210" d="M53 317q0 63 20 115t54 89t83.5 65.5t103 45.5t118 28.5t124 15.5t124.5 4v4q0 48 -32.5 72t-90.5 24q-116 0 -227 -92l-236 234q98 93 233 144.5t279 51.5q120 0 211 -28.5t148.5 -77.5t94 -120.5t50.5 -150t14 -174.5v-567h-428v86h-4q-39 -58 -112 -86.5t-152 -28.5 q-67 0 -130.5 19t-120 58t-90.5 108.5t-34 160.5zM381 1386q0 99 69.5 166.5t165.5 67.5q95 0 165.5 -68t70.5 -166t-70.5 -165.5t-165.5 -67.5q-96 0 -165.5 67t-69.5 166zM453 340q0 -39 34.5 -61.5t73.5 -22.5q67 0 108.5 43t41.5 111v36h-27q-112 0 -171.5 -24 t-59.5 -82zM494 1386q0 -51 35.5 -85.5t86.5 -34.5t87 34.5t36 85.5t-36 86t-87 35t-86.5 -35t-35.5 -86z" />
<glyph unicode="&#xe6;" horiz-adv-x="1875" d="M53 317q0 63 20 115t54 89t83.5 65.5t103 45.5t118 28.5t124 15.5t124.5 4v4q0 48 -32.5 72t-90.5 24q-120 0 -227 -92l-236 234q98 93 233 144.5t279 51.5q223 0 324 -125q60 57 143.5 91t177.5 34q166 0 296 -76.5t201 -210.5t71 -303q0 -50 -4 -100h-725 q4 -54 60 -88.5t124 -34.5q116 0 176 76l336 -170q-73 -118 -209.5 -185t-314.5 -67q-106 0 -209.5 45.5t-165.5 122.5q-120 -156 -418 -156q-59 0 -116 11.5t-112 37.5t-96.5 65t-66.5 99t-25 133zM459 340q0 -38 33 -59t71 -21q66 0 105 41t39 107v34h-25 q-111 0 -167 -22.5t-56 -79.5zM1085 682h326q0 58 -42.5 94.5t-113.5 36.5q-72 0 -117.5 -40.5t-52.5 -90.5z" />
<glyph unicode="&#xe7;" horiz-adv-x="1077" d="M66 539q0 172 83.5 305t227 203.5t323.5 70.5q106 0 218 -34.5t174 -82.5l-236 -339q-24 28 -63 43.5t-78 15.5q-74 0 -129.5 -48.5t-55.5 -133.5t55.5 -132t129.5 -47q88 0 143 58l238 -332q-63 -51 -158.5 -85t-198.5 -40l-65 -70q9 3 33 3q30 0 57.5 -4.5t55.5 -17 t48.5 -31.5t33.5 -50.5t13 -71.5q0 -60 -32.5 -104t-85.5 -66t-106.5 -31.5t-110.5 -9.5q-66 0 -143 13.5t-130 34.5l70 159q65 -32 174 -32q82 0 82 43q0 36 -76 36q-47 0 -84 -12l-90 70l135 160q-206 45 -329 193.5t-123 365.5z" />
<glyph unicode="&#xe8;" horiz-adv-x="1290" d="M66 539q0 173 80.5 306t216.5 203t303 70q166 0 296 -76.5t200.5 -210.5t70.5 -303q0 -50 -4 -100h-725q4 -54 60 -88.5t124 -34.5q116 0 176 76l336 -170q-73 -118 -209.5 -185t-314.5 -67q-119 0 -227.5 37.5t-194.5 108t-137 183t-51 251.5zM233 1491h435l227 -295 h-346zM500 682h325q0 58 -42 94.5t-113 36.5q-72 0 -117.5 -40.5t-52.5 -90.5z" />
<glyph unicode="&#xe9;" horiz-adv-x="1290" d="M66 539q0 173 80.5 306t216.5 203t303 70q166 0 296 -76.5t200.5 -210.5t70.5 -303q0 -50 -4 -100h-725q4 -54 60 -88.5t124 -34.5q116 0 176 76l336 -170q-73 -118 -209.5 -185t-314.5 -67q-119 0 -227.5 37.5t-194.5 108t-137 183t-51 251.5zM449 1196l227 295h434 l-315 -295h-346zM500 682h325q0 58 -42 94.5t-113 36.5q-72 0 -117.5 -40.5t-52.5 -90.5z" />
<glyph unicode="&#xea;" horiz-adv-x="1290" d="M66 539q0 173 80.5 306t216.5 203t303 70q166 0 296 -76.5t200.5 -210.5t70.5 -303q0 -50 -4 -100h-725q4 -54 60 -88.5t124 -34.5q116 0 176 76l336 -170q-73 -118 -209.5 -185t-314.5 -67q-119 0 -227.5 37.5t-194.5 108t-137 183t-51 251.5zM231 1196l281 295h346 l275 -295h-316l-137 139l-137 -139h-312zM500 682h325q0 58 -42 94.5t-113 36.5q-72 0 -117.5 -40.5t-52.5 -90.5z" />
<glyph unicode="&#xeb;" horiz-adv-x="1290" d="M66 539q0 173 80.5 306t216.5 203t303 70q166 0 296 -76.5t200.5 -210.5t70.5 -303q0 -50 -4 -100h-725q4 -54 60 -88.5t124 -34.5q116 0 176 76l336 -170q-73 -118 -209.5 -185t-314.5 -67q-119 0 -227.5 37.5t-194.5 108t-137 183t-51 251.5zM217 1389q0 82 61 142 t146 60q82 0 142.5 -60t60.5 -142q0 -84 -60 -142.5t-143 -58.5q-87 0 -147 57.5t-60 143.5zM500 682h325q0 58 -42 94.5t-113 36.5q-72 0 -117.5 -40.5t-52.5 -90.5zM727 1389q0 82 61 142t146 60q82 0 142.5 -60t60.5 -142q0 -84 -60 -142.5t-143 -58.5q-87 0 -147 57.5 t-60 143.5z" />
<glyph unicode="&#xec;" horiz-adv-x="694" d="M-82 1491h434l228 -295h-347zM111 0v1077h473v-1077h-473z" />
<glyph unicode="&#xed;" horiz-adv-x="694" d="M111 0v1077h473v-1077h-473zM127 1196l227 295h434l-315 -295h-346z" />
<glyph unicode="&#xee;" horiz-adv-x="694" d="M-96 1196l280 295h346l275 -295h-316l-137 139l-137 -139h-311zM111 0v1077h473v-1077h-473z" />
<glyph unicode="&#xef;" horiz-adv-x="694" d="M-106 1389q0 82 61 142t145 60q82 0 142.5 -60t60.5 -142q0 -84 -60 -142.5t-143 -58.5q-87 0 -146.5 57.5t-59.5 143.5zM111 0v1077h473v-1077h-473zM403 1389q0 82 61 142t146 60q82 0 142.5 -60t60.5 -142q0 -84 -60 -142.5t-143 -58.5q-87 0 -147 57.5t-60 143.5z " />
<glyph unicode="&#xf0;" horiz-adv-x="1359" d="M66 543q0 171 76.5 298t206 191t292.5 64q25 0 74 -9l4 3q-41 42 -113 100l-219 -88l-225 182l219 88q-68 54 -143 101l360 192q69 -48 174 -139l229 92l248 -193l-260 -100q151 -161 228 -332.5t77 -384.5q0 -129 -32.5 -236.5t-89.5 -183t-135.5 -128t-168.5 -77 t-190 -24.5q-122 0 -232.5 39.5t-195 112.5t-134.5 185t-50 247zM504 543q0 -76 49.5 -129.5t126.5 -53.5t126.5 53.5t49.5 129.5q0 73 -50.5 125.5t-127.5 52.5q-76 0 -125 -52t-49 -126z" />
<glyph unicode="&#xf1;" horiz-adv-x="1363" d="M109 0v1077h460v-119h4q44 64 126 106t182 42q88 0 156.5 -27t110.5 -70.5t69.5 -104t38 -121.5t10.5 -128v-655h-475v573q0 80 -25 114t-78 34q-48 0 -77 -38.5t-29 -109.5v-573h-473zM295 1208q6 122 67.5 200.5t163.5 78.5q77 0 170 -49q51 -27 76.5 -36t56.5 -9 t47.5 19.5t24.5 62.5h162q-8 -126 -69 -205.5t-165 -79.5q-79 0 -165 47q-52 28 -76 36.5t-53 8.5q-31 0 -50.5 -20.5t-25.5 -53.5h-164z" />
<glyph unicode="&#xf2;" horiz-adv-x="1359" d="M66 543q0 134 50 244.5t135 182t195 110t232 38.5q124 0 235 -38.5t196 -110t135 -182t50 -244.5q0 -135 -50 -247t-135 -185t-196 -112.5t-235 -39.5q-122 0 -232.5 39.5t-195 112.5t-134.5 185t-50 247zM242 1491h434l227 -295h-346zM504 543q0 -76 49.5 -129.5 t126.5 -53.5t126.5 53.5t49.5 129.5q0 73 -50.5 125.5t-127.5 52.5q-76 0 -125 -52t-49 -126z" />
<glyph unicode="&#xf3;" horiz-adv-x="1359" d="M66 543q0 134 50 244.5t135 182t195 110t232 38.5q124 0 235 -38.5t196 -110t135 -182t50 -244.5q0 -135 -50 -247t-135 -185t-196 -112.5t-235 -39.5q-122 0 -232.5 39.5t-195 112.5t-134.5 185t-50 247zM459 1196l227 295h434l-315 -295h-346zM504 543 q0 -76 49.5 -129.5t126.5 -53.5t126.5 53.5t49.5 129.5q0 73 -50.5 125.5t-127.5 52.5q-76 0 -125 -52t-49 -126z" />
<glyph unicode="&#xf4;" horiz-adv-x="1359" d="M66 543q0 134 50 244.5t135 182t195 110t232 38.5q124 0 235 -38.5t196 -110t135 -182t50 -244.5q0 -135 -50 -247t-135 -185t-196 -112.5t-235 -39.5q-122 0 -232.5 39.5t-195 112.5t-134.5 185t-50 247zM231 1196l281 295h346l275 -295h-316l-137 139l-137 -139h-312z M504 543q0 -76 49.5 -129.5t126.5 -53.5t126.5 53.5t49.5 129.5q0 73 -50.5 125.5t-127.5 52.5q-76 0 -125 -52t-49 -126z" />
<glyph unicode="&#xf5;" horiz-adv-x="1359" d="M66 543q0 134 50 244.5t135 182t195 110t232 38.5q124 0 235 -38.5t196 -110t135 -182t50 -244.5q0 -135 -50 -247t-135 -185t-196 -112.5t-235 -39.5q-122 0 -232.5 39.5t-195 112.5t-134.5 185t-50 247zM299 1208q6 122 67.5 200.5t163.5 78.5q77 0 170 -49 q50 -26 76.5 -35.5t57.5 -9.5t47 19.5t24 62.5h162q-8 -127 -68.5 -206t-164.5 -79q-80 0 -166 47q-52 28 -76 36.5t-53 8.5q-31 0 -50.5 -20.5t-25.5 -53.5h-164zM504 543q0 -76 49.5 -129.5t126.5 -53.5t126.5 53.5t49.5 129.5q0 73 -50.5 125.5t-127.5 52.5 q-76 0 -125 -52t-49 -126z" />
<glyph unicode="&#xf6;" horiz-adv-x="1359" d="M66 543q0 134 50 244.5t135 182t195 110t232 38.5q124 0 235 -38.5t196 -110t135 -182t50 -244.5q0 -135 -50 -247t-135 -185t-196 -112.5t-235 -39.5q-122 0 -232.5 39.5t-195 112.5t-134.5 185t-50 247zM221 1389q0 82 61 142t146 60q82 0 142.5 -60t60.5 -142 q0 -84 -60 -142.5t-143 -58.5q-87 0 -147 57.5t-60 143.5zM504 543q0 -76 49.5 -129.5t126.5 -53.5t126.5 53.5t49.5 129.5q0 73 -50.5 125.5t-127.5 52.5q-76 0 -125 -52t-49 -126zM731 1389q0 82 61 142t146 60q82 0 142.5 -60t60.5 -142q0 -84 -60 -142.5t-143 -58.5 q-87 0 -147 57.5t-60 143.5z" />
<glyph unicode="&#xf7;" horiz-adv-x="1363" d="M162 471v301h1040v-301h-1040zM481 227q0 78 60.5 134.5t142.5 56.5t140.5 -56.5t58.5 -134.5q0 -80 -58.5 -137t-140.5 -57t-142.5 57.5t-60.5 136.5zM481 1014q0 78 60.5 134t142.5 56t140.5 -56t58.5 -134q0 -81 -58.5 -138t-140.5 -57q-83 0 -143 57t-60 138z" />
<glyph unicode="&#xf8;" horiz-adv-x="1359" d="M20 55l156 154q-52 61 -81 147.5t-29 184.5q0 173 83 306t221.5 202t307.5 69q193 0 323 -88l150 146l178 -172l-141 -140q106 -117 106 -321q0 -130 -49 -240.5t-133 -185t-196 -116.5t-238 -42q-187 0 -318 88l-163 -164zM483 565q0 -21 4 -41l220 221q-20 5 -43 5 q-83 0 -132 -52t-49 -133zM639 354q12 -6 45 -6q83 0 131.5 50.5t48.5 131.5q0 28 -6 43z" />
<glyph unicode="&#xf9;" horiz-adv-x="1357" d="M92 422v655h475v-569q0 -80 25 -114t78 -34q48 0 77 38.5t29 109.5v569h473v-1077h-461v119h-4q-44 -64 -126 -106t-181 -42q-88 0 -156 26.5t-110.5 70t-70 103.5t-38 121t-10.5 130zM223 1491h434l228 -295h-346z" />
<glyph unicode="&#xfa;" horiz-adv-x="1357" d="M92 422v655h475v-569q0 -80 25 -114t78 -34q48 0 77 38.5t29 109.5v569h473v-1077h-461v119h-4q-44 -64 -126 -106t-181 -42q-88 0 -156 26.5t-110.5 70t-70 103.5t-38 121t-10.5 130zM475 1196l227 295h435l-316 -295h-346z" />
<glyph unicode="&#xfb;" horiz-adv-x="1357" d="M92 422v655h475v-569q0 -80 25 -114t78 -34q48 0 77 38.5t29 109.5v569h473v-1077h-461v119h-4q-44 -64 -126 -106t-181 -42q-88 0 -156 26.5t-110.5 70t-70 103.5t-38 121t-10.5 130zM221 1196l281 295h346l274 -295h-315l-137 139l-138 -139h-311z" />
<glyph unicode="&#xfc;" horiz-adv-x="1357" d="M92 422v655h475v-569q0 -80 25 -114t78 -34q48 0 77 38.5t29 109.5v569h473v-1077h-461v119h-4q-44 -64 -126 -106t-181 -42q-88 0 -156 26.5t-110.5 70t-70 103.5t-38 121t-10.5 130zM213 1389q0 82 61 142t146 60q82 0 142.5 -60t60.5 -142q0 -84 -60 -142.5 t-143 -58.5q-87 0 -147 57.5t-60 143.5zM723 1389q0 82 61 142t146 60q82 0 142.5 -60t60.5 -142q0 -84 -60 -142.5t-143 -58.5q-87 0 -147 57.5t-60 143.5z" />
<glyph unicode="&#xfd;" horiz-adv-x="1306" d="M-16 1077h524l160 -567h8l141 567h506l-442 -1143q-41 -106 -88.5 -180.5t-114 -132t-156.5 -85.5t-207 -28q-70 0 -148 10t-120 23l59 389q60 -24 134 -24q73 0 112 29t60 83l8 23zM487 1196l228 295h434l-315 -295h-347z" />
<glyph unicode="&#xfe;" horiz-adv-x="1421" d="M109 -492v2040h469v-555h4q49 53 125.5 83t156.5 30q116 0 212 -49t155.5 -129.5t92 -180t32.5 -204.5q0 -109 -32.5 -210t-92.5 -182.5t-155 -130.5t-210 -49q-81 0 -158 30t-126 83h-4v-576h-469zM557 543q0 -77 50.5 -130t133.5 -53q84 0 130.5 51t46.5 132 q0 76 -47 127t-130 51q-82 0 -133 -52t-51 -126z" />
<glyph unicode="&#xff;" horiz-adv-x="1306" d="M-16 1077h524l160 -567h8l141 567h506l-442 -1143q-41 -106 -88.5 -180.5t-114 -132t-156.5 -85.5t-207 -28q-70 0 -148 10t-120 23l59 389q60 -24 134 -24q73 0 112 29t60 83l8 23zM211 1389q0 82 61 142t146 60q82 0 142.5 -60t60.5 -142q0 -84 -60 -142.5t-143 -58.5 q-87 0 -147 57.5t-60 143.5zM721 1389q0 82 61 142t146 60q82 0 142 -60t60 -142q0 -84 -59.5 -142.5t-142.5 -58.5q-87 0 -147 57.5t-60 143.5z" />
<glyph unicode="&#x152;" horiz-adv-x="2062" d="M70 729q0 149 45.5 270.5t124 204t188 139t234 82t264.5 25.5h1034v-406h-518v-124h487v-379h-487v-135h553v-406h-1069q-143 0 -265 22t-233 75t-189 135t-123.5 208.5t-45.5 288.5zM584 713q0 -139 91 -223t234 -84h88v638h-69q-164 0 -254 -82.5t-90 -248.5z" />
<glyph unicode="&#x153;" horiz-adv-x="2037" d="M66 543q0 134 50 244.5t135 182t195 110t232 38.5q121 0 216 -44.5t153 -115.5q65 71 161 115.5t211 44.5q164 0 292.5 -76.5t198.5 -210.5t70 -303q0 -50 -4 -100h-725q4 -54 60 -88.5t125 -34.5q116 0 176 76l336 -170q-73 -118 -208 -185t-310 -67q-123 0 -224 41.5 t-159 105.5q-124 -147 -369 -147q-122 0 -232.5 39.5t-195 112.5t-134.5 185t-50 247zM504 543q0 -76 49.5 -129.5t126.5 -53.5t126.5 53.5t49.5 129.5q0 73 -50.5 125.5t-127.5 52.5q-76 0 -125 -52t-49 -126zM1247 682h326q0 58 -42.5 94.5t-113.5 36.5 q-72 0 -117.5 -40.5t-52.5 -90.5z" />
<glyph unicode="&#x178;" horiz-adv-x="1511" d="M-49 1450h588l229 -426l219 426h574l-576 -856v-594h-487v594zM309 1757q0 82 61.5 142.5t145.5 60.5q82 0 142.5 -60.5t60.5 -142.5q0 -84 -60 -142.5t-143 -58.5q-87 0 -147 57.5t-60 143.5zM819 1757q0 82 61.5 142.5t145.5 60.5q82 0 142.5 -60.5t60.5 -142.5 q0 -84 -60 -142.5t-143 -58.5q-87 0 -147 57.5t-60 143.5z" />
<glyph unicode="&#x2c6;" d="M-82 1196l281 295h346l274 -295h-315l-137 139l-138 -139h-311z" />
<glyph unicode="&#x2dc;" d="M-16 1208q6 122 67.5 200.5t163.5 78.5q77 0 170 -49q51 -27 76.5 -36t56.5 -9t47.5 19.5t24.5 62.5h162q-8 -126 -69 -205.5t-165 -79.5q-80 0 -166 47q-52 28 -76 36.5t-53 8.5q-31 0 -50.5 -20.5t-25.5 -53.5h-163z" />
<glyph unicode="&#x2000;" horiz-adv-x="994" />
<glyph unicode="&#x2001;" horiz-adv-x="1989" />
<glyph unicode="&#x2002;" horiz-adv-x="994" />
<glyph unicode="&#x2003;" horiz-adv-x="1989" />
<glyph unicode="&#x2004;" horiz-adv-x="663" />
<glyph unicode="&#x2005;" horiz-adv-x="497" />
<glyph unicode="&#x2006;" horiz-adv-x="331" />
<glyph unicode="&#x2007;" horiz-adv-x="331" />
<glyph unicode="&#x2008;" horiz-adv-x="248" />
<glyph unicode="&#x2009;" horiz-adv-x="397" />
<glyph unicode="&#x200a;" horiz-adv-x="110" />
<glyph unicode="&#x2010;" horiz-adv-x="688" d="M61 408v352h566v-352h-566z" />
<glyph unicode="&#x2011;" horiz-adv-x="688" d="M61 408v352h566v-352h-566z" />
<glyph unicode="&#x2012;" horiz-adv-x="688" d="M61 408v352h566v-352h-566z" />
<glyph unicode="&#x2013;" horiz-adv-x="819" d="M61 461v246h697v-246h-697z" />
<glyph unicode="&#x2014;" horiz-adv-x="1228" d="M61 461v246h1106v-246h-1106z" />
<glyph unicode="&#x2018;" horiz-adv-x="700" d="M86 872l203 578h336l-152 -578h-387z" />
<glyph unicode="&#x2019;" horiz-adv-x="700" d="M76 872l151 578h387l-202 -578h-336z" />
<glyph unicode="&#x201a;" horiz-adv-x="700" d="M76 -258l151 577h387l-202 -577h-336z" />
<glyph unicode="&#x201c;" horiz-adv-x="1163" d="M86 872l203 578h336l-162 -578h-377zM559 872l193 578h335l-151 -578h-377z" />
<glyph unicode="&#x201d;" horiz-adv-x="1163" d="M76 872l151 578h377l-192 -578h-336zM539 872l161 578h377l-203 -578h-335z" />
<glyph unicode="&#x201e;" horiz-adv-x="1163" d="M76 -258l151 577h377l-192 -577h-336zM539 -258l161 577h377l-203 -577h-335z" />
<glyph unicode="&#x2022;" horiz-adv-x="1024" d="M150 725q0 151 105.5 256.5t256.5 105.5t256.5 -105.5t105.5 -256.5t-105.5 -257t-256.5 -106t-256.5 106t-105.5 257z" />
<glyph unicode="&#x2026;" horiz-adv-x="2048" d="M70 231q0 109 81 188t193 79q106 0 186 -79.5t80 -187.5q0 -111 -79 -187.5t-187 -76.5q-113 0 -193.5 76t-80.5 188zM750 231q0 109 81 188t193 79q106 0 186 -79.5t80 -187.5q0 -111 -79 -187.5t-187 -76.5q-113 0 -193.5 76t-80.5 188zM1432 231q0 109 81 188t193 79 q106 0 186 -79.5t80 -187.5q0 -111 -79 -187.5t-187 -76.5q-113 0 -193.5 76t-80.5 188z" />
<glyph unicode="&#x202f;" horiz-adv-x="397" />
<glyph unicode="&#x2039;" horiz-adv-x="716" d="M35 561l360 508l264 -170l-235 -338l235 -338l-264 -170z" />
<glyph unicode="&#x203a;" horiz-adv-x="716" d="M57 223l236 338l-236 338l267 170l358 -508l-358 -508z" />
<glyph unicode="&#x205f;" horiz-adv-x="497" />
<glyph unicode="&#x20ac;" horiz-adv-x="1433" d="M61 422l86 264h97q-2 18 -2 45q0 21 2 39h-178l96 268h119q75 218 272 335.5t463 117.5q82 0 182 -13t160 -36l-135 -342q-107 35 -217 35q-77 0 -148.5 -26t-97.5 -71h475l-94 -268h-465q-2 -18 -2 -39q0 -27 2 -45h444l-88 -264h-297q26 -43 97.5 -69.5t152.5 -26.5 q72 0 140.5 15t109.5 40l61 -354q-126 -68 -358 -68q-251 0 -425.5 123.5t-236.5 339.5h-215z" />
<glyph unicode="&#x2122;" horiz-adv-x="2048" d="M82 1239v211h709v-211h-230v-633h-250v633h-229zM913 606v844h336l183 -508l170 508h333v-844h-229v502h-4l-189 -502h-186l-182 502h-4v-502h-228z" />
<glyph unicode="&#x25fc;" horiz-adv-x="1075" d="M0 0v1075h1075v-1075h-1075z" />
<glyph unicode="&#xfb01;" horiz-adv-x="1548" d="M0 739v338h184v25q0 85 14.5 157t50 138t92 112t145 73.5t202.5 27.5q138 0 215 -31l-31 -354q-45 18 -92 18q-125 0 -125 -151v-15h228v-338h-228v-739h-471v739h-184zM956 1389q0 99 73 170t175 71q97 0 169.5 -71.5t72.5 -169.5q0 -101 -72 -170.5t-170 -69.5 q-104 0 -176 69t-72 171zM965 0v1077h473v-1077h-473z" />
<glyph unicode="&#xfb02;" horiz-adv-x="1554" d="M0 739v338h184v25q0 85 14.5 157t50 138t92 112t145 73.5t202.5 27.5q138 0 215 -31l-31 -354q-45 18 -92 18q-125 0 -125 -151v-15h228v-338h-228v-739h-471v739h-184zM963 0v1548h483v-1548h-483z" />
</font>
</defs>
</svg>
